<?xml version="1.0" encoding="utf-8"?>
<!-- Generator: Adobe Illustrator 27.8.0, SVG Export Plug-In . SVG Version: 6.00 Build 0)  -->
<svg version="1.1" id="Ebene_1" xmlns="http://www.w3.org/2000/svg" xmlns:xlink="http://www.w3.org/1999/xlink" x="0px" y="0px"
	 viewBox="0 0 200 200" style="enable-background:new 0 0 200 200;" xml:space="preserve">
<style type="text/css">
	.st0{fill:#E1821F;}
	.st1{fill:none;stroke:#E1821F;stroke-width:4;}
</style>
<path class="st0" d="M171.7,190.9c0.1-0.2,0.1-0.3,0.1-0.5s-0.3-0.4-0.3-0.6c0-1-0.6-1.3-0.9-1.8c-0.4-0.6-0.3-1.8-0.3-2.5
	c0-1.2-1.2-1.7-1.2-3.1c0-0.4,0.2-0.6,0.1-0.8c0-1.1,0.9-1.4,0.9-2.4c0-0.4-0.4-0.6-0.4-1c0-0.2,0.1-0.3,0.1-0.4
	c0-0.5-0.6-1.9-0.8-2.2c-0.4-0.6-1.2-0.7-1.2-1.6c0-0.4,0.4-1.3,0.4-1.8c0-0.3-0.2-0.6,0-0.9c-0.4,0-0.4-0.3-0.7-0.3
	c-0.1,0-0.7,0.2-0.9,0.2c-0.6,0-0.5-1.2-1.2-1.2c-0.9,0-1.1,0.4-1.8,0.5l0,0c-0.3,0.2-0.6,0.4-1,0.4s-0.5-0.2-1-0.2
	c-0.7,0-0.8,0.4-1.4,0.4c-0.4,0-0.5-0.3-0.6-0.4c-0.5-0.4-1.6-0.9-1.8-1.6c-0.1-0.8-0.7-1.2-1-1.7c-0.1-0.2-0.6-0.2-0.6-0.6
	c0-0.3,0.1-0.4,0.1-0.7c0-0.2-0.2-0.3-0.2-0.5c0-0.5,0.6-1.1,0.4-1.9l0,0c0-0.1-0.2-0.2-0.2-0.4s0.2-0.2,0.2-0.4s-0.3-0.4-0.3-0.7
	c0-0.6,0.5-1,0.7-1.4c0.3-0.6,0.5-0.8,0.8-1.3c0.1-0.3,0.2-0.6,0.4-0.7c0.3-0.2,0.5-0.3,0.8-0.5c0.2-0.1,0.6-0.5,0.6-0.7
	c0.2-0.5,0-1,0.3-1.4s0.7-0.5,1-0.8c0.2-0.2,0.2-1,0.5-1c0.2,0,0.2,0.3,0.3,0.3c0.4,0.1,0.8,0.1,1.2,0.1s0.7-0.4,1-0.5
	c0.4-0.2,1.5-0.5,1.9-0.5c0.2,0,0.2,0.1,0.4,0.1s0.3-0.2,0.5-0.2h0.5c0.3,0,0.5-0.1,0.8-0.1c0.2,0,0.3,0.2,0.6,0.2
	c0,0.2-0.2,0.2-0.2,0.4s0.2,0.2,0.2,0.4c0,0.4-0.3,0.4-0.3,0.7c0,0.2,0.3,0.2,0.4,0.3c0.4,0.3,1,0.5,1.6,0.6
	c0.4,0.1,0.4,0.4,0.6,0.6c0.2,0.1,0.3,0,0.5,0.1c0.3,0.1,0.5,0.5,1,0.5c0.2,0,0.4-0.3,0.5-0.4c-0.1,0-0.2-0.2-0.2-0.3
	c0-0.4,0.5-0.7,0.8-0.7s0.5,0.4,0.7,0.5c0.7,0.2,1.8,0.7,2.6,0.7c0.4,0,0.5-0.4,0.9-0.4c0.2,0,0.3,0.2,0.5,0.2
	c0.4,0.1,0.6-0.2,0.7,0c0.2,0.2,0.4,0.5,0.4,1c0,0.3-0.2,0.5,0,0.7c-0.2,0.1-0.1,0-0.2,0c-0.3,0-0.6-0.8-0.8-1c0,0.5,0.8,1.6,1,2
	s0.5,0.6,0.6,1s0.1,0.8,0.4,0.9c0.6,0.2,0.5,1.4,0.8,2c0.1,0.2,0.3,0.3,0.5,0.4c0.2,0.3,0.4,1.4,0.8,1.4c0.6,0.4,1,0.9,1.3,1.2
	c0.1,0.2,0.3,0.2,0.4,0.4c0.2,0.2-0.1,0.4,0,0.6c0.1,0.1,0.4,0.3,0.5,0.3c0.2,0,0.3-0.2,0.5-0.2h0.4c0.3,0,0.7-0.2,1.3-0.2
	c0.4,0,0.4-0.4,0.7-0.4c0.2,0,0.1,0.1,0.3,0c-0.1,0.1-0.2,0.2-0.2,0.4v0.3c0,0.4-0.3,1-0.4,1.4c-0.8,1.5-1.3,2.4-2.6,3.5
	c-0.9,0.8-1.6,1.8-2.1,2.9c-0.1,0.2-0.3,0.3-0.3,0.6c0,0.2-0.2,0.3-0.2,0.5c0,0.3,0.3,0.3,0.3,0.5v0.3c0,0.6,0,1.2,0.6,1.4
	c-0.1,0.5,0,0.7,0,1.4c-0.2,0.1-0.2,0.3-0.2,0.5v0.3c0,0.9-1,1.1-1.6,1.5c-0.2,0.2-0.4,0.6-0.6,0.7c-0.3,0.1-0.7,0.4-0.7,0.8
	c0,0.1,0.1,0.2,0.2,0.2c0,0.1,0,0.3,0,0.3s0.2,0.3,0.2,0.6c0,0.2-0.1,0.7-0.1,0.9c-0.2,0.5-1.2,0.3-1.2,1v0.2l-0.1,0.4
	c0,0.1,0.1,0.2,0.1,0.3c0,0.4-0.4,0.5-0.6,0.7c-0.4,0.3-0.6,0.9-0.8,1.2c-0.3,0.4-0.6,0.8-1,1c-0.3,0.2-0.7,0.1-1,0.4
	c-0.4,0.3-1,0.1-1.6,0.1c0,0.1-0.1,0.1-0.2,0.2c-0.5,0-0.7,0-0.9,0.2C172.2,191.6,171.6,191.3,171.7,190.9L171.7,190.9L171.7,190.9
	L171.7,190.9z"/>
<path class="st1" d="M108,45c0.3,0,0.9-0.1,1.2-0.1c1,0,2.1,0,3.1,0c0.5,0.1,1.4,0.2,1.8,0.2c0.6,0.4,1.4,0.6,2.1,0.5l0.5,0.1
	c0.3,0.1,1,0.4,1.4,0.5h0.5l0.5,0.1c0.3,0.1,1,0.4,1.4,0.6h0.5l0.5,0.2c0.4,0.1,1.1,0.4,1.5,0.5l0.5,0.2c0.2,0.1,0.7,0.3,0.9,0.4
	l0.4,0.2c0.2,0.1,0.6,0.3,0.7,0.4l0.4,0.1c0.2,0.1,0.5,0.3,0.7,0.4l0.4,0.1c0.2,0.1,0.5,0.3,0.7,0.5l0.4,0.2
	c0.2,0.1,0.6,0.3,0.8,0.5l0.4,0.2c0.2,0.1,0.6,0.4,0.8,0.5s0.5,0.4,0.7,0.5l0.4,0.2c0.2,0.1,0.6,0.4,0.8,0.5l0.4,0.3
	c0.2,0.1,0.6,0.4,0.8,0.5s0.5,0.4,0.7,0.5s0.5,0.4,0.6,0.5l0.4,0.2c0.2,0.1,0.5,0.4,0.7,0.5s0.5,0.4,0.7,0.5s0.5,0.4,0.6,0.6
	l0.4,0.2c0.2,0.1,0.5,0.4,0.7,0.6c0.2,0.1,0.5,0.4,0.7,0.6c0.2,0.2,0.5,0.5,0.6,0.6c0.2,0.2,0.5,0.5,0.6,0.6
	c0.2,0.2,0.5,0.5,0.6,0.6l0.6,0.6c0.2,0.1,0.5,0.5,0.6,0.6l0.6,0.6c0.1,0.1,0.4,0.4,0.6,0.6c0.1,0.1,0.4,0.4,0.6,0.6
	c0.1,0.1,0.4,0.4,0.6,0.5c0.1,0.1,0.4,0.4,0.6,0.5c0.2,0.1,0.5,0.3,0.6,0.4c0.2,0,0.6,0.1,0.7,0.2c0.2,0,0.6,0,0.8,0.1
	c0.2,0,0.6,0,0.8,0c0.3,0.1,0.9,0.2,1.2,0.2c0.2,0,0.5,0.1,0.7,0.1c0.2,0.1,0.5,0.3,0.6,0.4l0.3,0.2c0.4,0.7,0.7,0.7,1.1,0l0.2-0.4
	c0.1-0.1,0.4-0.4,0.5-0.5l0.2-0.3c0.1-0.1,0.3-0.4,0.5-0.5l0.2-0.3c0.4,0,1.1,0,1.5-0.1l0.5,0.1c0.2,0.1,0.6,0.2,0.8,0.3
	s0.5,0.3,0.6,0.4c0.2,0.1,0.5,0.3,0.6,0.4l0.3,0.2c0.1,0.1,0.4,0.4,0.6,0.5c0.1,0.2,0.4,0.5,0.5,0.7l0.3,0.4c0.1,0.3,0.4,1,0.6,1.4
	l0.1,0.6c0,0.8,0.1,1.7,0.2,2.5c0,1.2,0.1,3.5,0.2,4.7c0,0.3,0.1,0.8,0.1,1.1c0.1,0.2,0.4,0.5,0.5,0.7s0.3,0.5,0.5,0.7l0.2,0.4
	c0.1,0.1,0.4,0.4,0.5,0.6c0.1,0.1,0.4,0.4,0.5,0.6c0.1,0.1,0.4,0.5,0.5,0.6c0.1,0.2,0.4,0.5,0.5,0.6c0.1,0.2,0.4,0.5,0.5,0.6
	l0.1,0.4c0.1,0.2,0.4,0.5,0.5,0.7l0.1,0.5c0.2,1.8,0.6,3.6,0.9,5.3v0.6c0.1,0.4,0.5,1.1,0.6,1.4l0.2,0.5c0.1,0.2,0.3,0.6,0.5,0.8
	l0.2,0.4c0.1,0.2,0.3,0.5,0.5,0.7l0.5,0.7l0.3,0.4c0.1,0.2,0.4,0.5,0.5,0.7s0.4,0.5,0.5,0.6s0.4,0.4,0.5,0.6
	c0.1,0.1,0.4,0.4,0.5,0.6c0.1,0.1,0.4,0.4,0.5,0.5s0.4,0.3,0.6,0.5c0.2,0.1,0.5,0.3,0.6,0.4c0.2,0,0.5,0.1,0.7,0.2h0.4l0.4,0.1
	l0.3-0.3l0.3-0.3c0.1-0.2,0.4-0.5,0.6-0.7l0.2-0.4c0.1-0.3,0.4-0.9,0.6-1.2c0.1-0.2,0.3-0.5,0.4-0.7l0.1-0.4
	c0.1-0.1,0.4-0.4,0.5-0.6l0.2-0.3c0.1-0.1,0.4-0.4,0.6-0.5c0.3,0,0.9-0.1,1.3-0.2c0.2,0.1,0.6,0.2,0.8,0.3c0.2,0.3,0.5,0.9,0.7,1.1
	c0.1,0.2,0.2,0.7,0.3,1c0.1,0.4,0.3,1.1,0.4,1.4l0.3,1.2c0,1.9,0,3.8,0,5.7v0.6c0,0.3-0.1,0.9-0.2,1.2c-0.1,0.4-0.4,1.1-0.5,1.4v0.5
	l-0.2,0.5c-0.1,0.2-0.3,0.6-0.4,0.8l-0.2,0.4c-0.1,0.2-0.3,0.6-0.4,0.7c-0.1,0.2-0.3,0.5-0.4,0.7l-0.1,0.4c-0.1,0.2-0.2,0.6-0.2,0.9
	s-0.1,0.8-0.2,1c-0.1,0.4-0.2,1.2-0.2,1.6l-0.1,0.5l0.5,0.3c0,0.3,0.1,0.8,0.2,1.1c-0.1,0.8,0,1.6,0.4,2.3c0.2,2.1,0.4,4.2-0.2,6.2
	c-0.1,0.2-0.4,0.5-0.5,0.7l-0.1,0.4c-0.1,0.1-0.4,0.4-0.5,0.5s-0.4,0.3-0.6,0.4l-0.4,0.1c-0.2,0.1-0.5,0.2-0.7,0.3
	c-0.2,0-0.6-0.1-0.9-0.1c-0.2-0.1-0.6-0.3-0.7-0.4c-0.2-0.1-0.5-0.4-0.7-0.5l-0.3-0.3c-0.1-0.1-0.4-0.4-0.6-0.6l-0.4-0.2
	c-0.2-0.1-0.5-0.4-0.6-0.5c-0.2-0.1-0.5-0.4-0.6-0.5c-0.2-0.1-0.5-0.4-0.7-0.5s-0.5-0.4-0.6-0.5l-0.4-0.2c-0.2-0.1-0.6-0.3-0.8-0.5
	l-0.4-0.2c-0.2-0.1-0.6-0.3-0.8-0.4l-0.4-0.2c-0.2-0.1-0.6-0.3-0.8-0.4l-0.4-0.2c-0.2-0.1-0.6-0.3-0.8-0.4l-0.4-0.2
	c-0.2-0.1-0.6-0.2-0.7-0.3h-0.4l-0.4-0.1c-0.7-1.2-2.1-0.1-0.9,0.8c0,0.4,0,1.2,0,1.6c0,0.3,0,0.8,0,1c0.1,0.2,0.3,0.6,0.4,0.8
	l0.1,0.5c0.1,0.3,0.4,1,0.5,1.3l0.2,0.4c0.1,0.2,0.3,0.6,0.4,0.8l0.2,0.4c0.1,0.2,0.2,0.5,0.3,0.7c0,0.2,0.1,0.5,0.2,0.7l0.1,0.3
	h-0.5c-0.9,0-1.7,0-2.6-0.1L161,128c-0.2-0.1-0.5-0.4-0.7-0.5s-0.5-0.4-0.6-0.6c-0.1-0.1-0.5-0.4-0.6-0.6s-0.4-0.5-0.6-0.6l-0.2-0.4
	c-0.1-0.1-0.4-0.4-0.6-0.6c-0.1-0.2-0.4-0.5-0.5-0.6c-0.1-0.2-0.4-0.5-0.6-0.6c-0.1-0.2-0.4-0.5-0.6-0.6c-0.1-0.2-0.4-0.5-0.6-0.7
	c-0.1-0.2-0.4-0.5-0.6-0.7l-0.3-0.4c-0.1-0.2-0.4-0.5-0.6-0.7c-0.1-0.2-0.4-0.5-0.6-0.7c-0.1-0.2-0.4-0.5-0.6-0.7
	c-0.1-0.2-0.4-0.5-0.6-0.7c-0.1-0.2-0.4-0.5-0.6-0.7l-0.3-0.4c-0.1-0.2-0.4-0.5-0.6-0.7c-0.1-0.2-0.4-0.5-0.6-0.7
	c-0.1-0.2-0.4-0.5-0.6-0.6c-0.1-0.2-0.4-0.5-0.6-0.6c-0.1-0.1-0.5-0.5-0.6-0.6s-0.5-0.5-0.6-0.6s-0.4-0.4-0.6-0.6
	c-0.1-0.1-0.4-0.4-0.6-0.6l-0.6-0.6c-0.2-0.1-0.5-0.4-0.6-0.6c-0.2-0.1-0.5-0.4-0.6-0.5c-0.2-0.1-0.5-0.4-0.7-0.5l-0.4-0.3
	c-0.2-0.1-0.6-0.4-0.8-0.5c-0.3-0.1-1-0.4-1.4-0.5c-0.3,0-0.8-0.1-1.1-0.1c-0.4,0.1-1.1,0.2-1.4,0.3l-0.5,0.2
	c-0.2,0.1-0.6,0.2-0.9,0.3l-0.5,0.1c-0.3,0.1-0.9,0.3-1.3,0.3c-0.4-0.6-0.7-1.2-1-1.9l-0.1-0.4c-0.1-0.2-0.3-0.5-0.5-0.6l-0.2-0.4
	c-0.1-0.1-0.4-0.4-0.5-0.6c-0.1-0.1-0.4-0.4-0.5-0.6c-0.1-0.1-0.4-0.4-0.6-0.6c-0.1-0.1-0.4-0.4-0.6-0.6l-0.3-0.2
	c-0.1-0.1-0.4-0.4-0.6-0.6c-0.1-0.1-0.4-0.4-0.6-0.6c-0.1-0.2-0.4-0.5-0.5-0.6c-0.1-0.2-0.4-0.5-0.5-0.6l-0.2-0.4l-0.2-0.4l-0.5-0.6
	c-0.3-0.2-0.8-0.6-1-0.8l-0.3-0.3l-0.4,0.1c-0.2,0.1-0.6,0.2-0.7,0.2l-0.4,0.1c-0.7,0.1-1.2,0.5-1.5,1.1l-0.3,0.4
	c-0.1,0.2-0.4,0.6-0.5,0.8l-0.2,0.4c-0.1,0.3-0.4,1-0.6,1.3c-0.1,0.2-0.3,0.5-0.4,0.7l-0.1,0.4c-0.1,0.2-0.3,0.5-0.4,0.7l-0.1,0.4
	c-0.1,0.2-0.3,0.5-0.4,0.7l-0.1,0.4l-0.2,0.4c-0.1,0.2-0.3,0.6-0.4,0.9l-0.2,0.4l-0.4,0.9l-0.2,0.5c-0.1,0.2-0.3,0.6-0.4,0.9
	l-0.2,0.5l-0.4,0.2v0.5v0.5l-0.2,0.5c-0.1,0.4-0.4,1.1-0.6,1.4v0.5c0,0.3-0.1,0.8-0.2,1.1c-0.5,1-0.4,2.1,0.3,3l0.2,0.4
	c0.1,0.2,0.4,0.5,0.5,0.7c0.1,0.1,0.4,0.4,0.6,0.6c0.1,0.1,0.4,0.4,0.6,0.5c0.1,0.1,0.4,0.4,0.6,0.5l0.3,0.2
	c0.1,0.1,0.5,0.4,0.6,0.5l0.6,0.5c0.1,0.1,0.4,0.4,0.5,0.6s0.4,0.5,0.5,0.6c0.1,0.2,0.3,0.6,0.4,0.7l0.2,0.5v1.5l-0.5,0.1
	c-0.8,0.2-1.7,0.4-2.5,0.7l-0.5,0.1l-0.1,0.4l-0.6,0.6c-0.2,0.1-0.5,0.3-0.6,0.4l0.5,0.1c0,0.4-0.1,1.2-0.2,1.6
	c0,0.4,0.1,1.1,0.2,1.5c0,0.4,0,1.3,0,1.7c-0.3,0.1-0.9,0.3-1.2,0.4l-0.5,0.1c-0.2-0.1-0.6-0.2-0.8-0.3c-0.7,0-1.4,0-2.1,0.1
	c-0.4,0-1.3,0-1.7,0c-0.4,0.1-1.1,0.3-1.5,0.4l-0.5,0.1c-0.4,0.1-1.1,0.3-1.5,0.4c-0.3,0-0.8,0.1-1.1,0.1c-0.3,0-0.8,0-1.1-0.1
	c-0.2-0.1-0.7-0.2-1-0.3c-0.2-0.1-0.5-0.3-0.7-0.4c-0.1-0.1-0.4-0.4-0.6-0.5l-0.4-0.7l-0.2-0.4l-0.1-0.5c0-0.9-0.2-1.8-0.6-2.6
	c-0.2-1-0.3-2-0.4-3l0.1-0.6c-0.1-0.3-0.4-1-0.5-1.4l-0.1-0.5c-0.1-0.4-0.3-1.1-0.5-1.4l-0.2-0.5c-0.1-0.4-0.4-1.1-0.5-1.4l-0.2-0.5
	c-0.1-0.3-0.4-1-0.5-1.4l-0.1-0.5V118c-0.1-0.2-0.3-0.6-0.4-0.7l-0.1-0.5c-0.1-0.3-0.4-1-0.5-1.3l-0.2-0.5l-0.3-0.9l-0.2-0.5
	c-0.1-0.3-0.4-1-0.5-1.4l-0.2-0.5c-0.1-0.3-0.4-1-0.6-1.3c-0.1-0.3-0.4-1-0.5-1.3l-0.2-0.5c-0.2-0.3-0.6-0.8-0.8-1.1
	c-0.2,0-0.6-0.1-0.8-0.2h-0.4c-0.2,0-0.6,0.1-0.8,0.1l-0.4,0.1c-0.2,0.1-0.6,0.2-0.7,0.3l-0.4,0.2c-0.2,0.1-0.6,0.3-0.7,0.4
	l-0.4,0.2c-0.2,0.1-0.6,0.3-0.8,0.4l-0.5,0.2c-0.3,0.1-1,0.4-1.4,0.5l-0.5,0.2h-0.5c-0.8-0.1-1.5,0-2.1,0.5c-1.9,0.2-3.9,0.2-5.8,0
	l-0.2-0.5l-0.5,0.1c-0.4,0-1.1,0-1.5,0l-0.5-0.1c-0.2-0.1-0.6-0.3-0.8-0.4c-0.3,0-0.8,0-1,0l-0.5-0.1c-0.4-0.1-1.1-0.3-1.4-0.4
	l-0.5-0.1c-0.3-0.2-1-0.5-1.3-0.7c-0.1,0.3-0.2,0.8-0.2,1.1c-0.3,3.2-0.4,6.5-0.5,9.7l0.5,1.5c0.1,0.3,0.3,0.8,0.3,1
	c0.2,0.3,0.5,0.9,0.7,1.3c0.1,0.2,0.4,0.5,0.5,0.7c0.1,0.1,0.4,0.4,0.5,0.6c0.1,0.1,0.4,0.4,0.5,0.5s0.4,0.4,0.5,0.5
	s0.4,0.4,0.6,0.5l0.3,0.3c0.1,0.2,0.4,0.5,0.5,0.7l0.1,0.5c0,0.2,0.1,0.7,0.1,1l0.1,0.5c-0.2,0.1-0.5,0.3-0.7,0.4l-0.3,0.3
	c-0.3,0.2-0.9,0.5-1.2,0.7h-0.5c-0.2,0.1-0.6,0.3-0.7,0.4l-0.5,0.1c-0.8-0.1-1.5,0.1-2.1,0.5c-0.4,0.1-1.3,0.2-1.8,0.3h-0.6
	c-0.8,0-1.6-0.1-2.3,0c-0.4-0.1-1.2-0.2-1.6-0.3c-0.2-0.1-0.6-0.3-0.8-0.4l-0.4-0.9c-0.5-1.8-0.6-3.6-0.8-5.4v-0.6v-0.5l-0.4-0.1
	c-0.1-0.2-0.3-0.5-0.4-0.7l-0.2-0.3c-0.1-0.2-0.4-0.5-0.5-0.7c-0.1-0.1-0.4-0.5-0.6-0.6c-0.1-0.1-0.4-0.4-0.6-0.6
	c-0.2-0.1-0.5-0.4-0.6-0.6l-0.3-0.3c-0.1-0.2-0.5-0.5-0.6-0.6c-0.1-0.2-0.4-0.5-0.5-0.6l-0.2-0.4c-0.1-0.1-0.4-0.4-0.6-0.5v-0.5
	c-0.1-0.4-0.4-1.1-0.5-1.5c-0.1-0.3-0.2-0.8-0.2-1.1l-0.1-0.6c-0.1-1.5-0.4-2.9-0.7-4.3c-0.1-0.2-0.3-0.5-0.4-0.7
	c-0.2-0.1-0.5-0.3-0.6-0.4l-0.4-0.2c-0.6-0.7-1.7-0.2-1.4,0.8c0,1.5-0.2,3.1-0.4,4.6c-0.3,0.8-0.5,1.8-0.4,2.7
	c0,0.3-0.1,0.8-0.2,1.1c-0.4,0.6-0.6,1.3-0.5,2l-0.1,0.5c-0.1,0.3-0.3,1-0.5,1.4l-0.2,0.5c-0.1,0.4-0.3,1.1-0.5,1.4l-0.1,0.5
	c-0.5,0.6-0.6,1.3-0.4,2l0.1,0.5c0,0.3,0,0.8,0,1.1c-0.1,0.7,0.1,1.4,0.5,2l0.1,0.4c0.1,0.2,0.3,0.5,0.4,0.7
	c0.1,0.2,0.3,0.5,0.4,0.7l0.2,0.4c0.1,0.2,0.3,0.5,0.4,0.7c0.1,0.2,0.3,0.6,0.4,0.7l0.2,0.4l0.3,0.8l0.1,0.5c0,0.2-0.1,0.7-0.1,0.9
	c-0.1,0.2-0.4,0.5-0.5,0.7l-0.3,0.3c-0.2,0.1-0.5,0.4-0.6,0.5c-0.2,0.1-0.5,0.3-0.7,0.4l-0.4,0.1c-0.1,0.1-0.4,0.4-0.5,0.5
	c-1.1,0-3.4,0.1-4.5,0.1l-0.6-0.1c-0.2-0.1-0.6-0.3-0.8-0.5h-0.5l-0.4-0.2c-0.2-0.1-0.6-0.3-0.8-0.4c-0.2-0.1-0.5-0.4-0.7-0.5
	l-0.4-0.2c-0.2-0.1-0.5-0.4-0.7-0.5s-0.5-0.4-0.7-0.5L39,135c-0.1-0.1-0.4-0.4-0.6-0.5c-0.1-0.1-0.4-0.4-0.5-0.6
	c-0.1-0.2-0.3-0.5-0.4-0.7c0-0.2-0.1-0.6-0.2-0.8c0-0.2,0-0.6,0.1-0.8l0.1-0.5c0-0.2,0.1-0.7,0.2-0.9c0-2.1,0-4.1,0.2-6.2l0.1-0.6
	c-0.1-0.3-0.4-1-0.5-1.4l-0.1-0.5c-0.1-0.4-0.3-1.1-0.4-1.5l-0.1-0.6l-0.1-0.6c0-1.6,0-3.2-0.1-4.8v-0.6c0-0.8-0.1-1.6-0.1-2.4
	c-0.1-0.2-0.2-0.7-0.3-0.9l-0.2-0.5c-0.1-0.2-0.3-0.6-0.3-0.8l-0.2-0.4v-0.5c-0.1-0.2-0.3-0.6-0.4-0.8c-0.1-0.4-0.2-1.2-0.3-1.6
	c0.1-0.8-0.1-1.5-0.5-2.1l-0.1-0.5v-0.5c-0.1-0.3-0.4-1-0.5-1.3l-0.1-0.5c-0.1-0.4-0.3-1.1-0.4-1.4l-0.2-0.5c-0.1-0.3-0.4-1-0.5-1.4
	l-0.2-0.5c-0.1-0.3-0.4-1-0.5-1.4l0-0.4c-0.1-0.3-0.3-1.1-0.4-1.4s-0.2-0.8-0.2-1.1c-0.1-0.4-0.3-1.1-0.4-1.4l-0.1-0.5
	c-0.1-0.4-0.3-1.1-0.4-1.4s-0.2-0.8-0.2-1v-0.5c0.2-0.7,0-1.3-0.4-1.9c-0.3-0.6-0.6-1.2-0.8-1.8l-0.1-0.5c-0.1,0.1-0.3,0.3-0.4,0.4
	s-0.3,0.3-0.4,0.4s-0.4,0.3-0.5,0.4s-0.4,0.4-0.5,0.5s-0.4,0.4-0.5,0.6s-0.4,0.5-0.5,0.6l-0.2,0.4c-0.1,0.2-0.4,0.5-0.5,0.7
	S25,88,24.9,88.1l-0.2,0.4c-0.1,0.2-0.3,0.6-0.4,0.8l-0.2,0.5c-0.1,0.4-0.5,1.1-0.6,1.4l-0.2,0.5c-0.5,0.7-0.6,1.4-0.4,2.2
	c0.1,0.8,0.1,1.6,0.2,2.4l0.6,1.3c0.1,0.2,0.4,0.5,0.5,0.7s0.4,0.5,0.5,0.6c0.1,0.2,0.4,0.5,0.5,0.6c0.1,0.2,0.4,0.5,0.5,0.6
	l0.3,0.4c0.1,0.2,0.4,0.5,0.5,0.7s0.4,0.5,0.5,0.7s0.4,0.5,0.5,0.7l0.3,0.4c0.1,0.2,0.4,0.6,0.5,0.7c0.1,0.2,0.4,0.5,0.5,0.7
	l0.2,0.4c0.1,0.2,0.4,0.5,0.5,0.6c0.1,0.2,0.4,0.5,0.5,0.7s0.4,0.5,0.5,0.6l0.2,0.3c0.1,0.2,0.3,0.5,0.4,0.6l0.3,0.6
	c0.1,0.2,0.2,0.5,0.3,0.6l0.2,0.3c-0.2,0.3-0.6,0.8-0.8,1.1h-0.5h-0.5c-0.3,0.1-1,0.4-1.4,0.6c-0.3,0-0.9,0.1-1.2,0.1
	c-1-0.1-1.9-0.2-2.9-0.3l-0.5-0.2c-0.2-0.1-0.6-0.4-0.8-0.5c-0.1-0.1-0.4-0.4-0.6-0.6c-0.1-0.2-0.4-0.5-0.5-0.7l-0.2-0.4
	c-0.1-0.2-0.3-0.6-0.5-0.8l-0.2-0.4l-0.2-0.4c-0.1-0.2-0.3-0.5-0.5-0.6c-0.1-0.2-0.3-0.5-0.4-0.7s-0.3-0.5-0.4-0.7s-0.3-0.6-0.5-0.7
	l-0.2-0.4c-0.1-0.2-0.3-0.7-0.4-0.9l-0.2-0.5c0-0.3-0.1-0.8-0.1-1.1c0-0.3,0.1-0.8,0.1-1.1c0.1-0.2,0.2-0.7,0.2-1l0.1-0.5
	c0.1-0.2,0.2-0.7,0.3-0.9c0.1-1.2,0.2-2.4,0.3-3.6c0-0.3,0.1-0.9,0.2-1.2c0.1-0.2,0.3-0.7,0.5-0.9c0-0.3,0-0.8,0.1-1.1l0.2-0.5
	c0.1-0.2,0.3-0.7,0.4-0.9l0.2-0.4c0.1-0.2,0.3-0.6,0.4-0.7l0.1-0.4c0.1-0.2,0.3-0.5,0.5-0.7l0.1-0.4c0.1-0.2,0.3-0.6,0.5-0.8
	l0.2-0.4c0.1-0.2,0.4-0.6,0.5-0.8c0.1-0.2,0.4-0.6,0.5-0.8l0.3-0.4c0.1-0.2,0.4-0.5,0.5-0.7s0.4-0.5,0.5-0.7s0.4-0.5,0.5-0.6
	l0.2-0.4c0.1-0.2,0.4-0.5,0.5-0.7s0.4-0.5,0.5-0.7s0.4-0.5,0.6-0.7c0.1-0.2,0.4-0.5,0.6-0.7l0.3-0.4c0.1-0.2,0.4-0.5,0.6-0.7
	c0.1-0.2,0.4-0.5,0.6-0.7c0.1-0.2,0.4-0.5,0.6-0.7c0.1-0.2,0.4-0.5,0.6-0.7c0.1-0.2,0.4-0.5,0.6-0.7l0.3-0.4
	c0.1-0.2,0.4-0.5,0.6-0.7c0.1-0.2,0.4-0.5,0.6-0.7c0.1-0.2,0.4-0.5,0.6-0.6c0.1-0.2,0.4-0.5,0.6-0.6c0.1-0.2,0.4-0.5,0.6-0.7
	c0.1-0.1,0.4-0.5,0.6-0.6l0.2-0.4c0.1-0.2,0.4-0.5,0.6-0.7c0.1-0.2,0.4-0.5,0.6-0.7c0.1-0.2,0.4-0.5,0.6-0.7
	c0.1-0.2,0.4-0.5,0.6-0.7c0.1-0.2,0.4-0.5,0.6-0.7c0.1-0.2,0.4-0.5,0.6-0.6l0.2-0.4c0.1-0.2,0.4-0.5,0.6-0.7
	c0.1-0.2,0.4-0.5,0.6-0.7c0.1-0.2,0.5-0.5,0.6-0.6c0.2-0.2,0.5-0.5,0.6-0.6c0.2-0.2,0.5-0.5,0.6-0.6c0.2-0.2,0.5-0.5,0.6-0.6
	l0.6-0.6c0.2-0.2,0.5-0.5,0.6-0.6c0.2-0.1,0.5-0.5,0.6-0.6c0.2-0.2,0.5-0.5,0.6-0.6c0.2-0.1,0.5-0.5,0.6-0.6
	c0.2-0.1,0.5-0.4,0.7-0.6c0.2-0.1,0.5-0.4,0.7-0.6l0.4-0.2c0.2-0.1,0.5-0.4,0.6-0.6c0.2-0.1,0.5-0.4,0.7-0.5s0.5-0.4,0.7-0.6
	c0.2-0.1,0.5-0.4,0.7-0.5l0.4-0.2c0.2-0.1,0.5-0.4,0.6-0.5c0.2-0.1,0.5-0.4,0.7-0.5l0.4-0.2c0.2-0.1,0.5-0.4,0.7-0.5
	s0.6-0.3,0.8-0.4L54,53c0.2-0.1,0.6-0.3,0.8-0.4l0.5-0.2c0.3-0.2,1-0.5,1.3-0.6l0.5-0.1c0.2-0.1,0.6-0.3,0.7-0.4l0.5-0.2
	c0.3-0.1,1-0.4,1.4-0.5l0.5-0.2c0.4-0.1,1.1-0.3,1.4-0.4c0.3-0.1,0.8-0.2,1.1-0.2c0.8,0.1,1.5,0,2.1-0.4c0.4-0.1,1.3-0.2,1.7-0.2
	l0.6-0.1c3.3,0,6.5,0.1,9.8,0h0.6c1.1,0.1,3.2,0.2,4.3,0.2c1.8,0.1,3.6,0.3,5.3,0.4h0.6c1.2,0,2.4-0.1,3.6,0c0.8,0.2,1.5,0,2.1-0.5
	l0.5-0.1c0.3,0,0.8,0,1-0.1s0.6-0.3,0.8-0.5l0.5-0.1c0.4-0.1,1.1-0.3,1.4-0.4l0.5-0.2c0.4-0.1,1.1-0.3,1.4-0.5l0.5-0.1
	c0.3,0,0.8,0,1-0.1s0.6-0.3,0.8-0.5l0.5-0.1c0.4-0.1,1.1-0.3,1.4-0.5l0.5-0.2c0.4-0.1,1.1-0.4,1.5-0.5l0.5-0.1c0.3,0,0.8,0,1.1,0
	h0.5L108,45L108,45z"/>
</svg>
