<?xml version="1.0" encoding="utf-8"?>
<!-- Generator: Adobe Illustrator 27.8.0, SVG Export Plug-In . SVG Version: 6.00 Build 0)  -->
<svg version="1.1" id="Ebene_1" xmlns="http://www.w3.org/2000/svg" xmlns:xlink="http://www.w3.org/1999/xlink" x="0px" y="0px"
	 viewBox="0 0 200 200" style="enable-background:new 0 0 200 200;" xml:space="preserve">
<style type="text/css">
	.st0{fill:#49C1ED;}
	.st1{fill:none;stroke:#49C1ED;stroke-width:4;}
</style>
<path class="st0" d="M188.8,191.1c-1.6-0.3-4.2-0.4-5.9-0.7c-0.6-0.1-1.6-0.2-1.6-0.8c0-0.9,3.1-1.2,4.3-1.2
	c0.1-0.9,0.6-0.5,1.2-1.1c1.4-1.4,4.7-1.2,6.6-2.2c-0.5-0.4-0.6-0.7-1.5-0.7c-0.5,0-1.8-1.1-2.5-1.1c-0.2,0-0.9,0.3-1.2,0.3
	c-0.6,0-1.2-0.9-1.6-1.2c-1.1-0.6-2-0.3-3.1-0.5c0-0.4,0-0.3-0.1-0.5c-0.6,0.4-1.3,0.4-2.1,0.4c-0.5,0-0.7,0.7-1.3,0.7
	c-0.5,0-0.9-0.4-1.6-0.4H176c-0.7,0-1.4-0.6-2.1-0.6c-0.6,0-0.7,0.9-1.3,0.9c-0.8,0-1.3-0.7-2.2-0.7c-0.8,0-1.3,0.3-1.8,0.5h-5
	c-0.4-0.1-1.2,0.3-1.7,0.3c-1.4,0.1-2.8,0.9-4.1,1.3c-0.7,0.2-1.3,0-1.8,0.3c-0.8,0.3-1.2,0.9-2,1.3h-0.6c0.1-1.2,1.4-1.6,1.9-2.4
	c-0.6-0.2-1.1-0.1-1.7-0.1c-1.9,0-2.5-1.1-4.1-1.1c-0.7,0-1.5,0.2-1.6,0.7h-1.8c-1.2,0-2.8,1.5-3.7,1.5c-0.3,0-0.4,0-0.7,0
	c-0.1-0.6-0.4-0.8-0.9-0.8s-0.5,0.4-0.8,0.5c-1.2,0.5-2.3,0.7-3.8,0.7c-0.4,0-0.9,0.1-0.9,0c0-0.2-2.2-0.3-2.7-0.3
	c-0.7,0-0.8,0.3-1.4,0.3h-1c-0.8,0-2.4,0-3.2,0.5h-1.2l0.1-0.4h-0.7c-1.6,0.5-3.3,0.3-4.4,1.6c0.3,0.3,0.6,0.1,1,0.2
	c-0.4,0.3-1.4,0.5-2.1,0.5v-0.1l-5,0.6v0.7c0.7,0.5,1.8,0.3,2.6,0.8c-0.6,0.6-1.4,0.5-2.4,0.7c-0.9,0.2-2.6,1-3.6,0.7h-3.4
	c-1,0-1.6-0.3-2.6-0.9h-5.1c-0.5-0.3-1.8-0.5-2.3-1h0.5c0.2,0.1,0.5,0.2,0.6,0.3h0.5c-0.3-0.5-0.8-0.3-1.1-0.8h1.5
	c-0.2-0.1-0.4-0.1-0.6-0.2h2c0.5-0.5,1.5-0.5,2.1-0.8c0.4-0.2,0.2-0.8,0.2-1.2c-0.3-0.2-0.6-0.4-0.6-1c-0.2,0-0.4-0.1-0.5-0.1
	c-0.5-0.4-0.4-0.8-0.9-1.1c-0.4-0.3-1.4-0.1-1.4-0.9c0-0.3,0.4-0.4,0.6-0.5c0.2-0.2,0.1-0.5,0.3-0.8c0.6-0.7,1.4-0.4,1.9-1.1h-0.5
	c-0.5,0.2-0.9,0.5-1.3,0.5s-0.6,0.5-1.2,0.6c-0.1,0.8-1,0.6-1,1.2c0,0.1,0.8,1.2,0.8,1.2c-0.1,0-0.3,0.1-0.4,0.1
	c0.3,0.4,1,0.7,1,1.3s-1.9,0.5-2.2,0.8c-0.1,0-0.1,0-0.2,0c-0.7,0-0.8-0.3-1.4-0.5c-0.1,0.6-1,0.7-1.7,0.7c-0.8,0-3.6-0.3-3.6-0.4
	c0,0-2-0.4-2.2-0.4s-1,0-1.3,0.2c0.3,0.2,0.4,0.3,0.7,0.3h-1.2c1,0.3,1.2,0.5,1.9,1c-0.3,0.2-0.7,0-0.9,0c-1.2,0-2.4-0.2-3.4-0.5
	c-0.1,0.2-0.3,0.4-0.5,0.4c-0.6,0-0.9-0.6-1.5-0.6c-0.4,0-0.5,0.2-1.2,0.2c-0.9,0-1-0.2-1.7-0.2c-0.2,0-0.4,0.2-0.6,0.3
	c-2.1,0.4-3.2,0.8-5.6,0.8c-0.7,0-1.2,0.2-1.4,0.4h1.3c0,0.7-0.8,0.8-1.4,0.8c-0.7,0-1.4-0.2-2-0.2c0.5,0.4,1,0.8,1.9,0.8h1.3
	c0.5,0,1.9-0.2,1.9,0.9h-2.3c1.2,0,1.2,0.7,1.8,0.8c1.4,0.1,2.1,0.3,3.3,0.3c0.6,0,0.8-0.5,1.1,0l-1.6,0.3c-1.2-0.3-2.1-0.1-3.5-0.2
	c2.5,1,3.5,1.2,3.5,1.2h107.4C185.1,192.2,186.5,191.9,188.8,191.1L188.8,191.1z"/>
<path class="st1" d="M164.8,40.3c0.4,0,1.2-0.1,1.7-0.2h0.6c1,0,3,0,4,0l0.6,0.1c0.3,0,0.8,0.1,1.1,0.1c0.6,0.6,1.2,0.7,2,0.4
	c0.3,0,0.8,0.1,1.1,0.2c0.3,0.1,0.9,0.3,1.3,0.4h0.5c0.3,0,0.8,0.1,1,0.1c0.5,0.6,1.1,0.8,1.9,0.4c0.3,0,0.8,0,1,0.1
	c0.2,0.8,1.7,1.1,1.6,0c1.6,0.4,3.3,0.7,4.9,1.2v1.4c-0.1,0.2-0.3,0.6-0.4,0.8l-0.3,0.3c-0.2,0.1-0.5,0.4-0.6,0.5s-0.4,0.4-0.6,0.5
	c-0.2,0.1-0.5,0.3-0.6,0.5l-0.3,0.2c-0.2,0.1-0.5,0.3-0.7,0.4l-0.4,0.1c-0.2,0.1-0.5,0.3-0.7,0.5l-0.5,0.2l-1.3,0.5l-0.5,0.1
	c-0.3,0.1-1,0.3-1.4,0.4l-0.5-0.1c-0.3,0.1-0.8,0.4-1,0.6c0,0.2-0.1,0.6-0.1,0.8c0.1,0.2,0.2,0.5,0.2,0.7c0.2,0.1,0.5,0.3,0.7,0.4
	l0.4,0.1l2.7,1c0.2-0.3,0.6-0.8,0.9-1.1c0.3,0.1,1,0.3,1.4,0.3l0.2,0.4l-0.2,0.4l-0.4,0.1c-0.1,0.1-0.4,0.3-0.6,0.5l-0.4,0.1h-0.5
	l-1.2,0.5l-0.5,0.1h-0.5c-0.8-0.4-1.4-0.3-1.9,0.4c-0.4,0-1.2,0.1-1.6,0.2h-0.5c-0.8-0.4-1.4-0.3-1.9,0.5l-0.5,0.1
	c-0.3,0.1-1,0.4-1.4,0.5l-0.5,0.2l-0.8,0.5l-0.4,0.3c-0.2,0.1-0.5,0.4-0.6,0.5s-0.4,0.4-0.6,0.6c-0.1,0.1-0.4,0.4-0.5,0.5L169,59
	c-0.1,0.2-0.4,0.5-0.5,0.6s-0.4,0.5-0.5,0.6c-0.1,0.2-0.4,0.5-0.5,0.6s-0.4,0.4-0.5,0.6l-0.2,0.4c-0.1,0.2-0.4,0.5-0.5,0.7
	s-0.4,0.5-0.5,0.6l-0.2,0.4l-0.5,0.8l-0.2,0.4c-0.1,0.2-0.3,0.6-0.4,0.8c-0.1,0.2-0.4,0.5-0.5,0.7l-0.1,0.4
	c-0.1,0.2-0.3,0.5-0.5,0.7l-0.1,0.4c-0.1,0.2-0.3,0.5-0.4,0.7l-0.1,0.4c-0.1,0.2-0.3,0.5-0.4,0.7l-0.1,0.4c-0.1,0.2-0.3,0.5-0.4,0.7
	l-0.1,0.4l-0.2,0.4c-0.1,0.2-0.3,0.6-0.4,0.8l-0.2,0.5c-0.1,0.3-0.4,1-0.5,1.3l-0.2,0.5c-0.1,0.2-0.3,0.7-0.4,0.9l-0.1,0.5
	c-0.2,0.3-0.4,0.9-0.6,1.2v0.5c-0.2,0.3-0.5,0.9-0.6,1.2l-0.1,0.5c-0.1,0.2-0.3,0.6-0.4,0.9l-0.1,0.5c-0.2,0.3-0.5,0.9-0.6,1.2v0.5
	c-0.2,0.3-0.5,0.9-0.6,1.2c-0.1,0.3-0.4,0.9-0.5,1.2l-0.1,0.5c-0.1,0.2-0.3,0.5-0.4,0.7l-0.1,0.4l-0.1,0.4c-0.1,0.2-0.3,0.6-0.3,0.8
	l-0.2,0.4c-0.1,0.3-0.4,0.9-0.5,1.2c-0.1,0.3-0.4,1-0.6,1.3l-0.2,0.5c-0.1,0.2-0.3,0.7-0.4,0.9l-0.2,0.5c-0.1,0.3-0.3,1-0.4,1.3
	c-0.1,0.1-0.4,0.4-0.6,0.5l-0.2,0.4c-0.1,0.2-0.3,0.5-0.3,0.7v0.4c-0.1,0.1-0.4,0.4-0.5,0.5l-0.1,0.4c-0.1,0.2-0.3,0.5-0.3,0.7
	l-0.2,0.3c-0.1,0.2-0.4,0.4-0.5,0.6c-0.7,0.5-0.5,1.8,0.5,1.5c0.3,0,0.8,0,1,0c0.4,0.8,1,1,1.8,0.7c2.2-0.1,4.4-0.1,6.6,0
	c0.7,0.2,1.5,0.1,2.2-0.2l0.5,0.1l0.5,0.1c0.3,0.2,0.9,0.5,1.2,0.6l0.5-0.1c0,0.3,0,0.8,0,1l-1.5-0.1c-0.8-0.2-1.4,0.1-1.8,0.8h-0.5
	c-0.3,0.1-1,0.4-1.3,0.5l-0.5,0.1c-0.3,0.1-1,0.4-1.3,0.5l-0.5,0.2c-0.2,0.1-0.6,0.3-0.8,0.4l-0.4,0.2c-0.2,0.1-0.6,0.3-0.7,0.4
	l-0.4,0.2c-0.2,0.1-0.5,0.3-0.7,0.4s-0.5,0.3-0.6,0.4l-0.3,0.2c-0.1,0.1-0.4,0.3-0.6,0.4c-0.1,0.1-0.4,0.3-0.5,0.5
	c-0.1,0.1-0.4,0.4-0.5,0.5s-0.4,0.4-0.6,0.5c-0.2,0.1-0.5,0.4-0.6,0.5c-0.2,0.1-0.5,0.4-0.7,0.5c-0.3,0.1-1,0.4-1.3,0.6
	c-0.3,0-0.8,0.1-1.1,0.2c-0.3,0-0.8,0-1.1,0c-0.8,0-1.5,0-2.3,0c-0.2-0.1-0.5-0.3-0.7-0.4c-0.2,0-0.7,0-1-0.1c-0.3,0-0.8-0.1-1-0.1
	c-0.6-0.2-1.3-0.2-1.9,0c0,0.4-0.1,1.1-0.2,1.5c0,0.4-0.1,1.2-0.2,1.6c-0.6,0.5-0.8,1.2-0.3,1.9c0,0.3-0.1,0.8-0.1,1.1
	c-0.1,0.3-0.3,0.9-0.5,1.3v0.5l-0.1,0.5c-0.1,0.3-0.4,1-0.5,1.3l-0.2,0.5c-0.1,0.2-0.3,0.6-0.4,0.8l-0.2,0.4
	c-0.1,0.2-0.3,0.6-0.4,0.8l-0.2,0.4c-0.1,0.2-0.3,0.5-0.4,0.7l-0.2,0.4c-0.1,0.2-0.3,0.5-0.4,0.7c-0.1,0.2-0.4,0.5-0.5,0.6
	c-0.1,0.2-0.4,0.5-0.5,0.6l-0.3,0.3c-0.1,0.2-0.4,0.5-0.5,0.6s-0.4,0.4-0.5,0.6c-0.1,0.1-0.4,0.4-0.5,0.6l-0.6,0.6
	c-0.1,0.1-0.4,0.4-0.6,0.5c-0.2,0.1-0.5,0.4-0.6,0.5c-0.2,0.1-0.5,0.4-0.7,0.5l-0.3,0.3c-0.2,0.1-0.5,0.4-0.7,0.5s-0.5,0.4-0.7,0.5
	l-0.4,0.2c-0.2,0.1-0.4,0.4-0.6,0.5l-0.7,0.4l-0.4,0.2c-0.2,0.1-0.6,0.3-0.8,0.4l-0.4,0.1c-0.1,0.1-0.4,0.4-0.5,0.5h-0.4l-0.7,0.3
	l-0.4,0.2c-0.1,0.1-0.4,0.4-0.5,0.5c-0.3,0.1-1,0.3-1.4,0.4l-0.5,0.2c-0.3,0.2-1,0.4-1.3,0.6h-0.5l-1.3,0.6h-0.5
	c-0.3,0.2-0.9,0.5-1.2,0.6l-0.5,0.2c-0.2,0.1-0.6,0.3-0.8,0.3h-0.9c0-0.4-0.1-1.2-0.2-1.7c0.1-0.4,0.2-1.2,0.2-1.6
	c0.1-0.2,0.2-0.7,0.2-0.9c0.7-0.4,0.9-1,0.6-1.7c-0.1-0.2-0.2-0.7-0.2-1c0-0.2-0.1-0.7-0.1-0.9v-0.5v-0.5l0.1-0.5
	c0-0.2,0.1-0.7,0.2-0.9v-0.5c1.1,0,1.2-1.5,0.1-1.6c0-0.4,0.1-1.2,0.1-1.6c0.6-0.6,0.7-1.2,0.4-1.9c-0.1-0.3-0.3-1.1-0.4-1.4
	l0.1-0.5l0.2-0.4l-0.2-0.2l-0.3,0.4h-1.6c-0.8-0.5-1.8-0.3-2.5,0.3c-0.4,0-1.2,0.1-1.6,0.2h-0.5c-0.8-0.5-1.8-0.4-2.4,0.4
	c-0.4,0-1.2,0.1-1.6,0.2h-0.5c-0.8-0.5-1.9-0.4-2.4,0.4c-1,0.1-3,0.2-4,0.2h-0.6c-2.6-0.1-5.2-0.1-7.8,0h-0.6
	c-0.7-0.1-1.5-0.1-2.2-0.2c-0.3-0.1-1-0.4-1.4-0.5c-0.3,0-0.8-0.1-1.1-0.1c-0.3-0.1-1-0.3-1.3-0.4c-0.3,0-0.8,0-1-0.1
	c-0.4-1.6-2.5-0.2-0.9,0.5l0.3,0.2c0.2,0.1,0.5,0.3,0.7,0.3l0.3,0.2c0.2,0.1,0.5,0.2,0.7,0.3c-0.1,0.3-0.3,0.8-0.4,1
	c-0.2,0-0.7,0.1-1,0.1h-0.5c-0.2-0.1-0.5-0.3-0.7-0.4h-0.4l-0.4-0.1c-0.2-0.1-0.6-0.2-0.8-0.3l-0.4-0.2c-0.3-0.1-1-0.2-1.3-0.3
	c-0.3-0.2-0.8-0.6-1.1-0.8l-0.5-0.2c-0.1-1.4-1.7-0.2-0.4,0.3c0.1,0.2,0.4,0.5,0.6,0.6c0.2,0,0.5,0.1,0.6,0.1c0.2,0.3,0.5,0.8,0.7,1
	c-0.2,0.1-0.5,0.3-0.6,0.4h-0.4c-0.2,0-0.5-0.1-0.6-0.1l-0.3-0.1c-0.1-0.1-0.3-0.3-0.4-0.3l-0.3-0.1l-0.3-0.1
	c0.1,0.1,0.2,0.3,0.3,0.3c0.1,0.1,0.2,0.3,0.3,0.4c0.1,0.1,0.2,0.4,0.2,0.5c-0.2,0.1-0.7,0.3-0.9,0.4H73c-0.2,0-0.6,0-0.8,0
	l-0.4-0.1l0.1-0.4h-0.3c-0.2,0-0.5,0.1-0.6,0.2c-0.2,0.1-0.5,0.3-0.7,0.4c-0.2,0-0.5-0.1-0.7-0.2l-0.3-0.2c-0.2-0.1-0.5-0.3-0.6-0.4
	c-0.2-0.1-0.5-0.3-0.7-0.4l-0.4-0.2c-0.4-1.4-2.3-0.1-0.8,0.4c0.7,0.4,1.4,0.7,2.1,1.1c-0.3,0.1-0.8,0.2-1.1,0.3l-0.5,0.1
	c-0.3-0.1-1-0.3-1.4-0.4l-0.5-0.2c-0.2-0.1-0.6-0.3-0.8-0.4h-0.5c-0.1-0.1-0.4-0.4-0.6-0.5l-0.4-0.1c-0.2-0.1-0.5-0.3-0.7-0.4
	l-0.4-0.1c-0.2-0.1-0.5-0.3-0.7-0.4l-0.4-0.1l-0.4-0.2c-0.2-0.1-0.6-0.3-0.8-0.3l-0.4-0.2l-0.2-0.4h-0.5h-0.5l-0.5-0.2
	c-0.3-0.1-1-0.4-1.4-0.5l-0.5-0.1c-0.3-0.1-1-0.4-1.4-0.5l-0.5-0.1c-0.2-0.1-0.5-0.4-0.7-0.5c-0.3,0-0.8,0-1,0h-0.5
	c-0.3-0.2-1-0.4-1.3-0.6h-0.5c-0.3-0.2-1-0.5-1.3-0.6H48c-0.3-0.2-1-0.5-1.3-0.6h-0.5c-0.2-0.1-0.5-0.4-0.7-0.5
	c-0.2,0-0.7-0.1-1-0.1H44c-0.3-0.1-1-0.4-1.3-0.5l-0.5-0.1l-1.3-0.4l-0.4-0.2c-0.1-0.1-0.4-0.4-0.5-0.6l-0.4-0.2l-0.3-0.3
	c-0.2-0.1-0.5-0.2-0.7-0.2l-0.6-0.6l-0.4-0.3c-0.3-0.1-1-0.4-1.3-0.5c-3.4,0-6.7,0-10.1,0.1h-0.6c-0.9-0.3-1.8-0.3-2.7-0.1l-0.5-0.1
	l-0.2,0.5c-0.7,0.1-1.5,0.1-2.2,0.2h-0.5c-0.8-0.5-1.9-0.4-2.5,0.4c-1,0.1-1.9,0.1-2.9,0.2h-0.6c-0.9-0.3-1.8-0.4-2.7-0.1l-0.5-0.1
	l-0.2,0.5c-0.7,0-1.4,0-2.1,0l-0.2-0.5l0.5,0.1c0.3-0.2,0.8-0.5,1.1-0.7h0.5c0.3-0.2,0.9-0.5,1.2-0.6h0.5c0.3-0.2,0.9-0.5,1.2-0.6
	s0.9-0.4,1.2-0.5l0.5-0.1H15c0.2-0.1,0.5-0.3,0.7-0.4l0.5-0.1c0.3-0.1,0.9-0.4,1.2-0.6h0.5c0.3-0.1,1-0.4,1.3-0.6
	c0.3,0,0.8-0.1,1.1-0.1c0.3-0.1,1-0.4,1.3-0.5h0.5c0.3,0,0.8,0,1,0c0.2-0.1,0.5-0.4,0.7-0.5l0.5-0.1c0.8,0.3,1.4,0.2,1.9-0.5
	c0.3,0,0.8-0.1,1.1-0.2c0.8,0.3,1.3,0.1,1.8-0.6c0.2-0.1,0.6-0.3,0.8-0.4l0.4-0.2c0.2-0.1,0.6-0.3,0.7-0.4l0.4-0.2
	c0.2-0.1,0.5-0.3,0.7-0.4l0.4-0.2c0.2-0.1,0.5-0.3,0.7-0.4l0.4-0.2c0.2-0.1,0.6-0.3,0.8-0.4l0.4-0.2c0.2-0.1,0.6-0.3,0.8-0.4
	l0.4-0.2c0.3-0.1,1-0.2,1.3-0.3l0.4-0.2c0.1-0.2,0.3-0.5,0.4-0.6c0.3-0.1,1-0.2,1.4-0.3l0.5-0.2c0.2-0.1,0.7-0.3,0.9-0.4l0.5-0.2
	c0.3-0.1,1-0.2,1.3-0.3l0.4-0.2c0.1-0.2,0.3-0.5,0.4-0.6c0.3-0.1,1-0.2,1.3-0.3l0.5-0.2c0.2-0.1,0.7-0.3,0.9-0.4l0.4-0.2
	c0.3-0.1,1-0.2,1.3-0.3l0.4-0.2c0.1-0.2,0.3-0.5,0.4-0.6l1.3-0.2l0.4-0.3c0.2-0.1,0.6-0.3,0.9-0.4l0.5-0.2c0.3-0.1,0.9-0.4,1.2-0.5
	l1.2-0.6h0.5c0.3-0.2,0.9-0.5,1.2-0.6h0.5c0.3-0.2,0.9-0.5,1.2-0.6h0.5c0.8,0.3,1.4,0.1,1.9-0.6l1.6-0.1c0.8,0.3,1.4,0.2,1.9-0.4
	c0.3,0,0.8-0.1,1.1-0.1h1.6h0.5l0.2-0.5c0.3,0,0.8-0.1,1-0.1c0.8,0.4,1.4,0.2,1.9-0.4c0.4,0,1.2-0.1,1.6-0.2c0.8,0.3,1.4,0.2,2-0.4
	c0.3,0,0.8-0.1,1.1-0.1c0.4,0,1.2,0,1.6,0h0.5l0.2-0.5c0.3,0,0.8-0.1,1-0.2c0.8,0.3,1.4,0.2,2-0.4c0.3,0,0.8-0.1,1.1-0.1
	c0.4,0,1.2,0,1.6,0H83l0.2-0.5c0.3,0,0.8-0.1,1-0.2c0.8,0.3,1.4,0.2,2-0.4c0.3,0,0.8-0.1,1.1-0.1c0.4,0,1.2,0,1.6,0h0.5l0.2-0.5
	c0.3,0,0.8-0.1,1.1-0.2c0.8,0.3,1.4,0.2,1.9-0.5l0.5-0.1c0.3,0,0.8,0,1-0.1s0.5-0.3,0.7-0.5h0.5c0.3,0,0.7-0.1,1-0.1
	c0.2-0.1,0.5-0.4,0.7-0.5h0.5c0.3-0.2,1-0.5,1.3-0.6h0.5c0.3-0.2,1-0.5,1.3-0.6h0.5c0.3-0.2,1-0.5,1.3-0.6h0.5
	c0.3-0.1,1-0.4,1.4-0.6l0.5-0.2l1.4-0.4l0.5-0.1l0.5-0.1v-0.4l0.4-0.1c0.2-0.1,0.5-0.3,0.7-0.4l0.4-0.1c0.2-0.1,0.5-0.3,0.6-0.4
	l0.4-0.1c0.2-0.1,0.5-0.4,0.6-0.5c0.2-0.1,0.6-0.3,0.8-0.4l0.4-0.2c0.2-0.1,0.6-0.3,0.7-0.4l0.4-0.1c0.2-0.1,0.4-0.4,0.6-0.5
	s0.5-0.4,0.7-0.5s0.5-0.4,0.7-0.5l0.4-0.3c0.2-0.1,0.5-0.4,0.7-0.5s0.5-0.4,0.7-0.5s0.5-0.4,0.7-0.5l0.3-0.3
	c0.2-0.1,0.5-0.4,0.6-0.5c0.2-0.1,0.5-0.4,0.6-0.5s0.4-0.4,0.6-0.5c0.1-0.1,0.4-0.4,0.6-0.5c0.1-0.1,0.4-0.4,0.6-0.5
	c0.1-0.1,0.4-0.4,0.6-0.5c0.1-0.1,0.4-0.4,0.6-0.5c0.1-0.1,0.4-0.4,0.6-0.5s0.5-0.4,0.6-0.5c0.2-0.1,0.5-0.4,0.7-0.5l0.4-0.3
	c0.2-0.1,0.5-0.4,0.7-0.5s0.5-0.4,0.7-0.5l0.4-0.2l0.7-0.4l0.4-0.1c0.2-0.1,0.5-0.4,0.6-0.5l0.4-0.1c0.2-0.1,0.5-0.4,0.6-0.5
	c0.2-0.1,0.6-0.3,0.8-0.4l0.4-0.2c0.2-0.1,0.6-0.3,0.9-0.4l0.5-0.2c0.3-0.1,1-0.4,1.4-0.5l0.5-0.1c0.1-0.1,0.4-0.4,0.6-0.5l0.4-0.1
	c0.2-0.1,0.5-0.3,0.7-0.4l0.4-0.1c0.2-0.1,0.5-0.3,0.7-0.5l0.4-0.1c0.2-0.1,0.5-0.3,0.7-0.5l0.4-0.1c0.2-0.1,0.5-0.4,0.7-0.5
	s0.6-0.3,0.8-0.4l0.4-0.2c0.2-0.1,0.6-0.3,0.7-0.5l0.4-0.2c0.1-0.1,0.4-0.4,0.6-0.5c0.2-0.1,0.5-0.4,0.6-0.5s0.4-0.4,0.6-0.6
	c0.1-0.2,0.4-0.5,0.5-0.6s0.4-0.4,0.5-0.6l0.1-0.4l0.2-0.4c0.1-0.2,0.3-0.6,0.4-0.8l0.2-0.4c0.1-0.2,0.3-0.6,0.4-0.8l0.2-0.4
	c0.1-0.2,0.3-0.6,0.4-0.8c0.1-0.2,0.4-0.5,0.5-0.6l0.1-0.4c0.1-0.2,0.3-0.5,0.4-0.7l0.2-0.4c0.1-0.2,0.4-0.5,0.5-0.7
	s0.4-0.5,0.5-0.7l0.3-0.4c0.1-0.2,0.4-0.5,0.5-0.7s0.4-0.5,0.5-0.6s0.4-0.4,0.5-0.6c0.1-0.1,0.4-0.4,0.5-0.6
	c0.1-0.1,0.4-0.4,0.5-0.6c0.1-0.1,0.4-0.4,0.6-0.5c0.1-0.1,0.4-0.4,0.6-0.5c0.1-0.1,0.4-0.4,0.6-0.5c0.2-0.1,0.5-0.4,0.6-0.5
	c0.2-0.1,0.5-0.4,0.6-0.5l0.3-0.3l0.7-0.5c0.2-0.1,0.5-0.3,0.7-0.5l0.4-0.2c0.2-0.1,0.6-0.3,0.7-0.4l0.4-0.2
	c0.1-0.1,0.4-0.4,0.5-0.6c0.3-0.1,1-0.3,1.3-0.4l0.5-0.2c0.2-0.1,0.7-0.3,0.9-0.4l0.5-0.1c0.3,0,0.8,0,1,0c0.2-0.1,0.5-0.4,0.7-0.5
	l0.5-0.1C163.6,41.1,164.3,41,164.8,40.3L164.8,40.3z"/>
</svg>
