<?xml version="1.0" encoding="utf-8"?>
<!-- Generator: Adobe Illustrator 27.8.0, SVG Export Plug-In . SVG Version: 6.00 Build 0)  -->
<svg version="1.1" id="Ebene_1" xmlns="http://www.w3.org/2000/svg" xmlns:xlink="http://www.w3.org/1999/xlink" x="0px" y="0px"
	 viewBox="0 0 200 200" style="enable-background:new 0 0 200 200;" xml:space="preserve">
<style type="text/css">
	.st0{fill:none;stroke:#EB5990;stroke-width:4;}
	.st1{fill:#EB5990;}
</style>
<path class="st0" d="M85.8,53.7c3.2-0.2,6.5-0.7,9.7-0.1c1,0.3,2.1,0.4,3.2,0.4c0.4,0,1.2,0.1,1.6,0.2c0.6,0.4,1.3,0.5,2,0.4
	l0.5,0.1c0.3,0.1,1,0.4,1.3,0.5h0.5l0.5,0.1c0.3,0.1,1,0.4,1.4,0.5L107,56c0.3,0.1,1,0.4,1.4,0.5c0.3,0.1,1,0.4,1.3,0.6l0.4,0.2
	c0.2,0.1,0.6,0.3,0.8,0.4l0.4,0.2c0.2,0.1,0.6,0.3,0.8,0.4l0.4,0.2c0.2,0.1,0.5,0.3,0.7,0.4c0.2,0.1,0.5,0.4,0.6,0.5l0.4,0.2
	c0.2,0.1,0.5,0.4,0.7,0.5s0.5,0.4,0.7,0.5l0.4,0.3l0.7,0.5c0.2,0.1,0.5,0.4,0.7,0.5s0.5,0.4,0.7,0.5s0.4,0.4,0.6,0.6l0.4,0.2
	c0.2,0.1,0.5,0.4,0.6,0.6c0.2,0.1,0.5,0.4,0.6,0.6c0.1,0.2,0.4,0.5,0.6,0.6c0.1,0.2,0.4,0.5,0.6,0.6l0.2,0.4
	c0.1,0.2,0.4,0.4,0.6,0.6c0.1,0.2,0.4,0.5,0.6,0.6c0.1,0.2,0.4,0.5,0.6,0.6c0.1,0.2,0.4,0.5,0.6,0.6c0.1,0.2,0.4,0.5,0.6,0.6
	c0.1,0.2,0.4,0.5,0.6,0.6c0.1,0.2,0.4,0.5,0.6,0.7l0.2,0.4c0.1,0.1,0.4,0.4,0.6,0.6c0.1,0.2,0.4,0.5,0.6,0.6s0.4,0.5,0.6,0.6
	c0.1,0.2,0.4,0.5,0.6,0.6c0.1,0.2,0.4,0.5,0.6,0.6c0.1,0.2,0.4,0.5,0.6,0.6c0.1,0.2,0.4,0.5,0.6,0.7l0.3,0.4
	c0.1,0.2,0.4,0.5,0.6,0.7c0.1,0.2,0.4,0.5,0.6,0.6c0.1,0.2,0.4,0.5,0.6,0.6c0.1,0.2,0.4,0.5,0.6,0.6c0.2,0.1,0.5,0.4,0.6,0.6
	l0.6,0.6c0.2,0.1,0.5,0.4,0.6,0.5c0.2,0.1,0.5,0.4,0.6,0.5l0.4,0.2c0.2,0.1,0.5,0.3,0.7,0.5c0.2,0.1,0.5,0.3,0.7,0.5l0.4,0.2
	c0.2,0.1,0.5,0.3,0.7,0.4l0.4,0.1l0.4,0.2c0.2,0.1,0.6,0.3,0.9,0.4V83c0.3,0.1,1,0.4,1.4,0.6l0.5,0.2c0.3,0.2,1,0.5,1.3,0.7l0.4,0.3
	c0,0.2,0,0.7,0,0.9v0.4c-0.1,0.2-0.3,0.5-0.3,0.7c-0.1,0.1-0.2,0.4-0.3,0.6l-0.1,0.3c-0.1,0.1-0.2,0.4-0.2,0.6
	c0,0.1-0.1,0.4-0.2,0.5l-0.1,0.3l-0.1,0.3c0.1-0.1,0.4-0.2,0.5-0.3h0.3c0.2,0,0.6-0.1,0.7-0.1l0.4-0.1c0.3-0.1,0.9-0.4,1.3-0.5
	l0.4-0.1c0.2-0.1,0.6-0.3,0.7-0.4l0.4-0.1l0.7-0.4l0.4-0.1c0.2-0.1,0.5-0.3,0.7-0.4l0.4-0.1c0.2-0.1,0.5-0.3,0.7-0.4l0.4-0.1
	l0.7-0.4l0.4-0.1c0.2-0.1,0.5-0.3,0.7-0.4l0.4-0.1c0.2-0.1,0.5-0.3,0.7-0.4l0.4-0.1c0.2-0.1,0.5-0.3,0.7-0.4c0.3-0.1,1-0.4,1.3-0.6
	l0.5-0.2c0.2-0.1,0.6-0.3,0.9-0.4l0.5-0.2c0.3-0.1,1-0.4,1.4-0.5l0.5-0.2c0.4-0.1,1.1-0.3,1.4-0.4c0.3-0.1,0.8-0.2,1.1-0.2
	c0.4-0.1,1.1-0.3,1.5-0.4s1.3-0.2,1.8-0.2c1,0,2,0.1,3,0.1l0.6,0.1l0.5,0.2c0.4,0.1,1.1,0.3,1.5,0.4c0.1,0.1,0.4,0.4,0.5,0.5
	l0.4,0.2c0.2,0.1,0.5,0.3,0.7,0.4s0.5,0.4,0.7,0.5l0.4,0.3c0.2,0.1,0.5,0.4,0.6,0.5s0.4,0.4,0.6,0.6c0.1,0.2,0.4,0.5,0.5,0.6
	c0.1,0.2,0.4,0.5,0.5,0.7l0.1,0.4c0.1,0.2,0.4,0.5,0.5,0.7l0.1,0.5c0,0.7,0.1,1.5,0.1,2.3l-0.1,0.6l-0.2,0.6
	c-0.1,0.4-0.4,1.2-0.5,1.6c-0.1,0.1-0.4,0.4-0.5,0.5l-0.2,0.4c-0.1,0.2-0.3,0.5-0.5,0.6c-0.1,0.1-0.4,0.4-0.5,0.6
	c-0.1,0.1-0.4,0.4-0.5,0.5s-0.4,0.4-0.6,0.5c-0.2,0.1-0.5,0.4-0.6,0.5l-0.4,0.2c-0.2,0.1-0.6,0.4-0.7,0.5c-0.3,0.1-1,0.4-1.3,0.6
	c-0.3,0.1-0.8,0.2-1,0.3c-0.4,0.1-1.1,0.3-1.4,0.4l-0.5,0.2c-0.3,0.1-1,0.3-1.4,0.5l-0.5,0.2c-0.3,0.1-1,0.3-1.4,0.4
	c-0.3,0.1-0.8,0.2-1,0.2c-0.3,0.1-1,0.3-1.4,0.4l-0.5,0.1c-0.3,0.1-1,0.3-1.4,0.4c-0.3,0.1-0.8,0.2-1,0.2c-0.3,0.1-1,0.3-1.4,0.4
	l-0.5,0.1c-0.3,0.1-1,0.3-1.4,0.5l-0.5,0.1h-0.5c-0.3,0.1-1,0.4-1.3,0.5l-0.5,0.1c-0.3,0.1-1,0.3-1.4,0.4l-0.5,0.2
	c-0.3,0.1-1,0.4-1.4,0.5l-0.5,0.1H148c-0.3,0.1-1,0.4-1.3,0.5l-0.5,0.1c-0.3,0.1-1,0.3-1.4,0.4l-0.5,0.1c-0.3,0.1-1,0.3-1.3,0.5
	l-0.5,0.2c-0.3,0.1-1,0.4-1.3,0.5s-1,0.4-1.3,0.5l-0.5,0.2c-0.3,0.1-1,0.2-1.3,0.3l-0.4,0.2l0.1,0.3c0.1,0.5,0.3,0.9,0.4,1.4
	l0.1,0.4h1h0.5c0.3,0.1,1,0.3,1.3,0.4l0.5,0.2c0.3,0.1,1,0.3,1.3,0.5l0.5,0.2c0.3,0.1,1,0.3,1.4,0.4l0.5,0.1c0.3,0.1,1,0.4,1.3,0.5
	h0.5l0.5,0.1c0.6,0.5,1.2,0.6,2,0.5h0.5c0.4,0.1,1.2,0.2,1.6,0.3c0.4,0.1,1.1,0.3,1.5,0.4c0.3,0.1,0.8,0.2,1,0.2
	c0.3,0.1,1,0.4,1.3,0.5l0.4,0.2c0.2,0.1,0.6,0.2,0.8,0.2h0.4c-0.1,0.3-0.4,1-0.5,1.3c-0.3,0.8-0.7,1.5-1,2.3c-0.9,0-1.7,0.5-2.5,1
	c-0.2,0.1-0.5,0.4-0.6,0.5l-0.3,0.3c-0.2,0.1-0.5,0.4-0.6,0.5c-0.7,0.2-1.4,0.6-2,1.1c-0.2,0.2-0.7,0.7-0.9,1l0.3-0.3
	c-0.2,0.1-0.5,0.3-0.7,0.4h-0.4h-0.4c-0.2-0.1-0.5-0.2-0.7-0.3c-0.2-0.1-0.5-0.3-0.6-0.4c-0.2-0.1-0.5-0.3-0.7-0.4l-0.4-0.2
	c-0.2-0.1-0.5-0.4-0.7-0.5s-0.5-0.4-0.7-0.5l-0.4-0.2l-0.7-0.5c-0.2-0.1-0.5-0.4-0.7-0.5l-0.4-0.2c-0.2-0.1-0.6-0.4-0.7-0.5
	l-0.4-0.2c-0.2-0.1-0.6-0.4-0.7-0.5c-0.2-0.1-0.6-0.4-0.7-0.5l-0.4-0.3c-0.2-0.1-0.6-0.4-0.7-0.5c-0.2-0.1-0.5-0.4-0.7-0.5l-0.4-0.3
	c-0.2-0.1-0.5-0.4-0.7-0.5s-0.5-0.4-0.7-0.5s-0.5-0.4-0.6-0.5l-0.4-0.2c-0.2-0.1-0.5-0.4-0.7-0.5s-0.5-0.4-0.7-0.5l-0.4-0.2
	l-0.7-0.5c-0.2-0.1-0.6-0.3-0.7-0.5l-0.4-0.2c-0.2-0.1-0.6-0.3-0.7-0.4c-0.2-0.1-0.5-0.3-0.7-0.4l-0.4-0.1l-0.4-0.1
	c-0.4-0.8-0.8-0.9-1.3-0.2c-0.4,0-1.2,0-1.6,0.1c-1.1-0.2-2.1,0.3-2.7,1.3l-0.3,0.4c-0.1,0.3-0.3,1-0.4,1.4l-0.1,0.5
	c-0.1,0.3-0.3,1-0.4,1.4l-0.1,0.5c-0.1,0.4-0.3,1.1-0.4,1.5c0,0.3,0.1,0.9,0.2,1.2l-0.3-0.2c0,0.2,0.1,0.6,0.2,0.7
	c0.1,0.2,0.3,0.6,0.4,0.8c0.1,0.2,0.3,0.5,0.4,0.7s0.4,0.5,0.5,0.6s0.4,0.4,0.6,0.5l0.3,0.3c0.1,0.1,0.4,0.4,0.6,0.5
	c0.1,0.1,0.4,0.4,0.5,0.5l0.3,0.2c0.1,0.2,0.4,0.5,0.5,0.6c0.1,0.2,0.2,0.6,0.2,0.8c0,0.2,0,0.6,0,0.8l0.2-0.3
	c-0.1,0.3-0.4,1-0.5,1.3c0,0.2-0.1,0.6-0.2,0.8l0.3-0.3l-0.4,0.3c-0.2,0.3-0.6,0.9-0.8,1.2l-0.1,0.5c0,0.2-0.1,0.7-0.1,1
	c-0.3,0-0.8,0.1-1.1,0.2c-0.9,0-1.8,0.2-2.6,0.6c-0.4,0.1-1.3,0.2-1.7,0.2h-0.6c-1.1,0-3.2,0-4.2,0c-0.4-0.1-1.3-0.2-1.8-0.3
	c-0.6-0.4-1.3-0.6-2-0.5l-0.4-0.2c-0.2-0.1-0.6-0.3-0.8-0.4l-0.4-0.2c-0.2-0.1-0.5-0.3-0.7-0.4l-0.3-0.2c-0.1-0.2-0.4-0.4-0.6-0.6
	l-0.2-0.4c-0.1-0.2-0.3-0.6-0.4-0.8l-0.1-0.5c0-0.4-0.1-1.3-0.2-1.7c0-0.4,0.1-1.3,0.2-1.7c0.1-0.2,0.3-0.7,0.4-0.9c0-0.3,0-0.8,0-1
	l0.1-0.5c0.1-0.2,0.3-0.6,0.4-0.8c0-0.3,0-0.8,0.1-1l0.1-0.5c0.1-0.4,0.3-1.1,0.4-1.4l0.1-0.5c0.1-0.2,0.4-0.6,0.5-0.7
	c0-0.2,0.1-0.7,0.1-1l0.2-0.5c0.1-0.2,0.3-0.7,0.3-1l-0.5-0.2c-1.6-0.6-3.3-0.9-4.9-1.4c-0.2,0-0.7,0.1-0.9,0.1
	c-2.2-0.2-4.3-0.2-6.4-0.2c-3.9-0.1-7.7,0.2-11.6-0.1c-0.3,0.1-1,0.3-1.3,0.4l-0.9,0.2c-0.2,0.1-0.5,0.2-0.7,0.2l0.4,0.2
	c-0.9,0-1,0.3-0.4,1.1v0.5v1c0.1,0.2,0.3,0.6,0.4,0.8l0.1,0.5c0,0.4,0.1,1.1,0.1,1.5c0.1,0.2,0.3,0.6,0.4,0.8l0.1,0.5
	c0.2,0.3,0.5,0.9,0.6,1.2c0.3,0.2,0.9,0.6,1.2,0.7c0.3,0.1,0.8,0.2,1,0.3c0.8,0.4,1.7,0.6,2.5,0.7c0.3,0,0.8,0.1,1.1,0.2
	c0,0.3,0,0.8,0,1l0.1,0.5c0,0.3,0.1,0.8,0.1,1.1l-0.1,0.5c0,0.3-0.1,0.8-0.1,1.1c-0.7-0.1-1.2,0.2-1.6,0.9c-0.3,0.2-0.8,0.6-1,0.9
	c-0.1,0.2-0.2,0.7-0.3,0.9l-0.5-0.1c-0.7-0.2-1.4,0-2,0.5c-1,0-3.1-0.1-4.1-0.1c-1.1-0.2-2.2-0.4-3.3-0.4h-0.5c-0.3,0-0.8-0.2-1-0.2
	c-0.3-0.1-1-0.3-1.3-0.4l-0.4-0.2c-0.2-0.1-0.5-0.3-0.6-0.4l-0.4-0.1c-0.2-0.1-0.4-0.4-0.6-0.5c-0.2-0.3-0.6-0.8-0.8-1.1
	c-0.1-0.3-0.4-1-0.5-1.3s-0.2-0.8-0.3-1c-0.1-0.4-0.3-1.1-0.4-1.4l-0.2-1c0.1-0.7,0-1.4-0.4-2c0-0.3-0.1-0.8-0.2-1
	c0.1-0.7,0-1.4-0.4-2c-0.1-0.4-0.2-1.2-0.2-1.6c0.2-0.7,0-1.4-0.4-2c-0.1-0.3-0.2-0.8-0.3-1c-0.2-0.2-0.7-0.7-1-1
	c-0.7-0.1-1.3-0.3-2-0.5c-0.7-0.6-1.6-0.2-1.8,0.6c-0.1,0.1-0.4,0.4-0.6,0.5l-0.2,0.4c-0.1,0.2-0.3,0.5-0.5,0.7l-0.2,0.4
	c-0.1,0.2-0.3,0.5-0.5,0.7c-0.1,0.2-0.4,0.5-0.5,0.6l-0.2,0.4c-0.1,0.2-0.4,0.5-0.5,0.7s-0.4,0.5-0.5,0.6l-0.2,0.4
	c-0.1,0.2-0.4,0.5-0.5,0.7s-0.4,0.5-0.5,0.7l-0.3,0.4c-0.1,0.2-0.4,0.5-0.6,0.7c-0.1,0.2-0.4,0.5-0.6,0.7c-0.1,0.2-0.4,0.5-0.6,0.6
	c-0.2,0.2-0.5,0.5-0.6,0.6s-0.5,0.4-0.6,0.6c-0.2,0.1-0.5,0.4-0.6,0.6c-0.2,0.1-0.5,0.4-0.7,0.5l-0.4,0.2c-0.2,0.1-0.5,0.4-0.7,0.5
	l-0.4,0.1c-0.2,0.1-0.5,0.3-0.7,0.4l-0.4,0.2c-0.2,0.1-0.6,0.2-0.8,0.2h-0.4c-0.2,0-0.6-0.1-0.8-0.2h-0.4c-0.2-0.1-0.6-0.2-0.9-0.3
	c-0.2-0.1-0.6-0.3-0.8-0.4l-0.4-0.3c-0.1-0.2-0.4-0.5-0.6-0.6c-0.2-0.1-0.7-0.2-0.9-0.3c0-0.7-0.3-1.3-0.9-1.7
	c-0.1-0.2-0.3-0.7-0.4-0.9l-0.2-0.5c0-1.8,0-3.6,0-5.4l0.1-0.5l0.2-0.5c0.1-0.2,0.3-0.6,0.4-0.7l0.1-0.4c0.1-0.2,0.3-0.5,0.5-0.6
	l0.2-0.4c0.1-0.1,0.4-0.4,0.5-0.6c0.2-0.1,0.5-0.4,0.6-0.5l0.4-0.2c0.2-0.1,0.6-0.3,0.8-0.5l0.4-0.2c0.3-0.2,1-0.4,1.4-0.6l0.5-0.2
	c0.3-0.2,0.9-0.5,1.3-0.7l0.4-0.3c0.1-0.1,0.4-0.4,0.6-0.5l0.2-0.3c0.1-0.2,0.2-0.5,0.3-0.6l0.1-0.3c0.1-0.2,0.2-0.4,0.2-0.6
	c-0.1-0.1-0.3-0.4-0.4-0.5c-0.2-0.2-0.7-0.6-1-0.8l-0.4-0.2c-0.2-0.1-0.5-0.3-0.7-0.4l-0.4-0.1l-0.4-0.2c-0.2-0.1-0.6-0.3-0.8-0.3
	l-0.4-0.2c-0.2-0.1-0.6-0.3-0.8-0.4l-0.4-0.2c-0.2-0.1-0.7-0.3-0.9-0.3c-0.3-0.1-0.8-0.2-1-0.3c-0.6-0.4-1.3-0.6-2.1-0.5
	c-0.3,0-0.8-0.1-1.1-0.2c-0.2-0.1-0.6-0.3-0.9-0.4c-0.4,0-1.2-0.1-1.6-0.1l-0.5-0.1c-0.2-0.1-0.6-0.3-0.8-0.4c-0.3,0-0.8,0-1,0
	L36.4,98c-0.2-0.1-0.6-0.3-0.8-0.4c-0.3,0-0.8-0.1-1.1-0.1L34,97.4c-0.4-0.1-1.1-0.4-1.5-0.5L32,96.7c-0.2-0.1-0.6-0.3-0.8-0.4
	l-0.5-0.1L30.3,96c-0.2-0.1-0.6-0.3-0.8-0.4l-0.4-0.2c-0.2-0.1-0.5-0.3-0.7-0.4l-0.3-0.2c-0.1-0.1-0.4-0.3-0.6-0.4
	c-0.1-0.1-0.4-0.3-0.5-0.4s-0.4-0.4-0.5-0.5v-0.4l0.2-0.3l0.4,0.1c0.3,0.1,1,0.2,1.3,0.3l0.5,0.1c0.3,0.1,1,0.4,1.3,0.5h0.5l0.5,0.1
	c0.3,0.1,1,0.4,1.3,0.5H33l0.5,0.1c0.6,0.4,1.3,0.6,2.1,0.5c0.4,0.1,1.2,0.2,1.7,0.3c0.8,0.3,1.6,0.6,2.5,0.4l0.4-0.1
	c0.6-0.2,1.6-0.1,1.7-0.8c0-0.2-0.1-0.5-0.2-0.6c-0.1-0.1-0.4-0.3-0.6-0.4L41,93.5c-0.1-0.1-0.4-0.3-0.6-0.4
	c-0.1-0.1-0.4-0.3-0.5-0.4l-0.3-0.2c-0.1-0.1-0.3-0.4-0.4-0.5c-0.1-0.2-0.2-0.4-0.3-0.6v-0.3l0.2-0.3c0.1-0.1,0.3-0.4,0.4-0.6
	l0.3-0.2c0.1-0.1,0.4-0.4,0.5-0.6s0.4-0.5,0.5-0.7l0.3-0.4c0.2-0.3,0.6-0.9,0.8-1.2c0.1-0.2,0.4-0.5,0.5-0.7l0.2-0.4
	c0.1-0.2,0.4-0.5,0.5-0.7s0.4-0.5,0.5-0.6c0.1-0.2,0.4-0.5,0.5-0.6c0.1-0.2,0.4-0.5,0.5-0.7s0.4-0.5,0.5-0.7l0.3-0.4
	c0.1-0.2,0.4-0.5,0.5-0.7s0.4-0.6,0.5-0.7l0.3-0.4c0.1-0.2,0.4-0.6,0.5-0.7c0.1-0.2,0.4-0.5,0.5-0.7l0.2-0.4
	c0.1-0.2,0.4-0.5,0.5-0.7s0.4-0.5,0.5-0.7l0.2-0.4l0.5-0.7c0.1-0.2,0.4-0.5,0.5-0.7l0.2-0.4c0.1-0.2,0.4-0.5,0.5-0.7
	s0.4-0.5,0.5-0.7l0.2-0.4c0.1-0.2,0.4-0.5,0.5-0.7s0.4-0.5,0.5-0.7l0.2-0.4c0.1-0.2,0.4-0.5,0.5-0.7s0.4-0.5,0.5-0.7
	s0.4-0.5,0.6-0.6l0.2-0.4c0.1-0.2,0.4-0.5,0.5-0.7s0.4-0.5,0.6-0.7c0.1-0.2,0.4-0.5,0.6-0.7c0.1-0.2,0.4-0.5,0.6-0.7l0.3-0.4
	c0.1-0.2,0.4-0.5,0.6-0.7c0.1-0.2,0.4-0.5,0.6-0.6c0.1-0.2,0.4-0.5,0.6-0.6c0.1-0.2,0.4-0.4,0.6-0.6c0.2-0.1,0.5-0.4,0.6-0.6
	c0.2-0.1,0.5-0.4,0.6-0.6c0.2-0.1,0.5-0.4,0.7-0.6l0.4-0.3c0.2-0.1,0.5-0.4,0.7-0.5s0.5-0.4,0.7-0.5s0.5-0.4,0.7-0.5
	c0.2-0.1,0.5-0.4,0.7-0.5L65,59c0.2-0.1,0.5-0.4,0.7-0.5s0.5-0.4,0.7-0.5l0.4-0.2c0.2-0.1,0.6-0.3,0.7-0.4l0.4-0.2
	c0.1-0.1,0.4-0.4,0.5-0.5c0.4-0.1,1.1-0.3,1.5-0.5l0.5-0.2c0.3-0.1,1-0.4,1.4-0.6c0.2,0,0.7-0.1,1-0.1l0.7-0.5l0.5-0.1
	c0.4-0.1,1.1-0.3,1.5-0.4c0.3,0,0.8-0.2,1.1-0.2c0.7,0,1.4,0,2.2-0.1l0.5,0.1l0.2-0.5c0.7-0.1,1.5-0.2,2.2-0.2
	C82.8,54,84.3,53.9,85.8,53.7L85.8,53.7z"/>
<path class="st1" d="M189.7,155.2c0-0.3-1.1-0.7-1.9-0.7c-0.2,0-0.4,0-0.6,0.1c-1.6-1.1-5.1-1.7-7.4-1.7c-0.1,0-1.5-0.6-0.5,0.5
	h-0.5c-0.9-0.8-2.7-0.2-3.9-0.4c-1.1-0.2,0.1-1.2-4.1-0.7c-1.2,0.1-1.5-1.2-2.5-1.2c-0.3,0-0.4,0.3-0.4,0.4c0,0-1.1,0.3-2.3-0.4
	c-0.7-0.4-0.8,0.7-1.2,0.9c-0.8,0.3-2.3,0.2-2.9,0.2c-1.4,0-1.6-1.3-3.5-1.3c-0.3-0.1-1.7-0.2-2.4-0.2c-1.4,0-2.4,0.1-3.9,0
	c0.3-0.2,0.6-0.3,0.8-0.7c-1-0.5-5.4-2-5.6-0.4c-0.5,0-0.7-0.1-1.3-0.1c-0.9,0-2.7,0.3-3.1,0.9c0.2,0,0.2,0,0.5,0.2
	c-0.3,0.1-1.1,0-1.8,0.2c0.2,0.2,0.2,0.3,0.4,0.6c-1.4-0.1-0.9,0.6-0.9,0.8c-0.7-0.2-0.9-0.8-1.6-1c0,0-0.4,0.6,0.7,1.2v0.8
	c-1-0.5-0.8-2-2.5-2c-0.3,0-0.6,0.3-0.6,0.8c0,0.6,0.7,1.4,1.5,1.5c-2.9,3.8-3,7.4-2.4,9.2s0.9,2.7-0.1,2.6
	c-1.6-0.1-3.1-0.9-3.2,0.7c0,0.7,0.7,1.2,1,1.8c0-0.3,0.2-0.3,0.2-0.7c0.7,0.3,1.1-1.1,1.7-0.8c0.5,0.3,0.5,0,0.7,0
	c0.3,0,0.3,0.5,0.3,0.7c0,0.1,0,0.2,0.1,0.3c-0.2-0.1-0.5-0.1-0.8,0c0,0.2,0.1,0.2,0.2,0.4c-0.1,0-0.5-0.1-0.5-0.1
	c0,0.3,0.6,0.8,0.9,1c0.2,0.2,0.5,0.1,0.6,0.3c0.1,0.3,0,0.7,0.3,0.9c0-0.2-0.1-0.5,0.2-0.5s0.8,0.5,0.8,0.7c0,0.1-0.2,0.6-0.7,0
	c-0.1-0.1-0.2,0-0.2,0.2c0,0.9,1,0.9,1,2.1c-0.2,0.1-0.5,0.2-1,0.2c-0.6,0-1.8-0.5-1.8-1c-0.4-0.1-0.5-0.3-0.5-0.7h-0.3
	c-0.2,0.2-0.5,0.4-0.9,0.4c-0.6,0-0.5-0.7-1.3-0.7c0.1-0.1,0-0.2,0-0.3c0-0.3-0.2-0.7-0.6-0.7c-0.7,0-1.5,0.4-2.3,0.4
	c-0.7,0-1.2-0.7-2.1-0.7c-0.7,0-1,0.4-1.4,0.5c-0.3,0.1-0.5,0.1-0.6-0.1c-0.3,0.1-0.9,0-0.9,0c-0.1-0.1-0.2-0.3-0.2-0.3
	c-0.3,0.1-1,0-1,0.3c0,0.2,0.1,0.2,0.2,0.3l0.1,0.4l-0.3,0.3c0,0.1,0.2,0.2,0.3,0.2c0,0.2,0.1,0.2,0.2,0.4c0,0.1-0.1,0.1-0.1,0.2
	v0.3h0.2c0,0.3,0.2,0.4,0.4,0.6c-0.1,0.3,1.1,0.7,1.6,0.7c0.1-0.1,0.1-0.1,0.1-0.2c-0.1,0-0.1-0.1-0.2-0.1c0.1,0,0.1-0.1,0.3-0.1
	c0.5,0,0.6,0.6,1.1,0.6c0.4,0,0.6-0.6,0.9-0.6c0.2,0,0.2,0.2,0.4,0.2c0.1,0,0.1-0.1,0.2-0.2h0.3c0,0.1,0,0.2-0.2,0.3
	c0,0.3,0.2,0.5,0.2,0.8c0,0.5-0.3,1.5-0.5,2.1c0,0.1-0.3,0.3-0.3,0.6c0,0.2,0.3,0.6,0.4,0.8c0.1,0.3,0.1,0.8,0.2,1.1
	c0.6,0.5,0.9,1.3,1.3,2c0.4,0.6,0.8,0.7,1.3,1.4v1.3h0.2v0.1l0,0c0.3,0.4,0.6,0.5,0.9,1c0.2,0.3,0.2,0.6,0.5,0.9
	c0.1,0.1,0.7,0.8,0.7,0.9c0,0-0.1,0.6-0.2,0.6c0.2,0.5,0.5,1,0.5,1.8h0.2c0.5,0,0.7-0.3,1.1-0.5c0.6-0.2,1.1-0.2,1.5-0.4
	c0.3-0.1,0.3-0.5,0.6-0.5c0.5-0.1,0.8-0.1,1.3-0.4c0.2-0.2,0.2-0.7,0.5-0.8c0.5-0.2,0.7,0,1.2-0.2c0.2-0.1,0.2-0.6,0.8-0.6
	c-0.1-0.1,0-0.2,0-0.3s0-0.1,0-0.3c0.2,0.1,0.2,0,0.5,0v-0.4c-0.3-0.6,0.9-0.8,0.9-1.6s-1.1-0.6-1.5-1c-0.3-0.3-0.4-1.2-0.7-1.5
	c-0.6,0.6-0.8,1.4-2,1.4c-0.2,0-0.7-0.2-0.8-0.4c0.1,0,0.3-0.3,0.3-0.4c0-0.2-0.1-0.2-0.2-0.4h-0.3c0.1,0.1,0.1,0.3-0.1,0.4
	c-0.3-0.3-0.3-0.7-0.6-1.1c-0.1-0.2-0.4-0.2-0.5-0.5c0-0.1,0-0.5-0.2-0.6c-0.2-0.2-0.4-0.2-0.5-0.6c0.3-0.1,0.3-0.2,0.5-0.5
	c1.1,0.6,1.7,2.3,3.3,2.3c0.5,0,0.8-0.4,1.1-0.4c0.1,0,0.3,0.1,0.3,0.2c0.1,0.2,0,0.3,0,0.4c0,0.3,1.6,0.6,2,0.7c0.2,0,0.3,0,0.5,0
	c0.2,0.1,0.4,0.2,0.7,0.2h1c0.5,0,0.7-0.2,1.1-0.3c0.3,0.6,0.3,1.1,1.2,1.1c0,0.3,0.4,0.8,0.7,0.8c0.1,0,0.3-0.2,0.4-0.3
	c-0.1,0.3-0.3,0.4-0.7,0.5c0.2,0.3,0.7,1,1.2,1s0.6-0.6,0.6-1c0.1,0.3,0.2,0.3,0.2,0.7c0,1.7,0.7,2.9,1.3,4.3c0.2,0.6,0.9,1.5,1,2.1
	c0.1,0.5,0.6,1.8,1.1,1.8s0.2-0.6,0.9-0.6c0,0-0.1-0.2-0.1-0.3c0-0.3,0.4-0.4,0.4-0.8c0-0.2-0.2-0.3-0.2-0.5c0-0.4,0.2-0.4,0.2-0.9
	c0-0.6-0.3-0.8-0.3-1.3c0-0.7,0.8-0.5,1.1-1c0.4-0.5,0.6-0.7,1-1.2c0.1-0.2,0.3-0.7,0.5-0.8c0.3-0.2,0.6,0,0.7-0.4
	c0.2-0.5,0-0.7,0.6-0.9c0.4,0.1,1.2-0.1,1.2-0.7c0,0.1,0.2,0.2,0.2,0.2c0.2,0,0.2,0.1,0.4-0.1c0.3,0.3,0.2,0.7,0.5,1.1
	c0.4,0.5,1.6,1.2,1.6,2c0,0.3-0.2,0.6-0.2,0.9c0,0.1,0.3,0.1,0.4,0c0.1,0.1,0.1,0.2,0.3,0.2c0.3,0,0.6-0.4,0.7-0.8
	c0.6,0.4,0.6,1.4,0.9,2.1c0.1,0.2,0.4,0.4,0.4,0.7c0,0.4,0.1,0.6,0,1.1c0.3,0,0.4-0.3,0.4-0.6c0-0.4-0.3-1.2-0.5-1.4l-0.4-0.3
	c0-0.3,0.2-0.5,0.2-0.9c0-0.7-0.8-0.8-0.8-1.6c0-0.9,1-1,1.4-1.5c0.1-0.2,0-0.3,0.3-0.5c0.1,0.1,0.2,0.2,0.4,0.1
	c0-0.1-0.2-0.3-0.2-0.5c0-0.3,0.4-0.3,0.6-0.3h0.2c0.5,0,0.8-0.4,1.2-0.4c0.3,0,0.4,0.3,0.7,0.2c0.1,0.5,0.6,0.8,0.9,0.8h0.5
	c0.2,0,0.3,0.1,0.6,0.2c0,0.3,0,0.6,0.3,0.7c0.2-0.3,0-0.2,0-0.6c0.9-0.2,1.2-0.5,1.7-0.9v0.3h0.4c0.3-0.4,0.9-0.3,1.1-0.6v0.1
	c0.3-0.5,0.5-0.7,1-1.1c0.3-0.2,0.2-0.5,0.2-1c0.1-0.5,0.6-1.1,0.6-1.6c0-0.6-0.2-0.7-0.7-0.9c0.1-0.2,0.3-0.3,0.4-0.4
	c-0.2-0.2-0.3-0.2-0.4-0.4c0.1,0,0.1,0,0.2,0c-0.5-0.6-0.7-1.2-1.4-1.7c-0.1-0.1-0.7-0.1-0.7-0.4c0-0.7,0.6-0.9,1.1-1.3
	c-0.1-0.1-0.9-0.4-1-0.4c-0.3,0-0.3,0.3-0.6,0.3l-1.4-0.9c0-0.1,0.2-0.3,0.3-0.3c0.6,0,0.5-1.1,1.2-1.1c0.2,0,0.3,0.3,0.3,0.4
	c0,0.3,0,0.6,0,0.9c0.5-0.1,0.7-0.8,1.2-0.8s0.8,0.4,1,0.9c-0.6,0.5,0.6,0.3,1,0.5c0.1,0,0.2,0.4,0.2,0.5c0,0.3,0.4,1.7,0.8,1.7
	c0.3,0,1.2-0.3,1.2-0.6c0-0.7-1.3-1.6-1.7-2.1c-0.1-0.1-0.5-0.4-0.5-0.5c0-0.3,0.7-0.3,0.7-0.8c0-0.3-0.3-0.3-0.3-0.6
	c0-0.2,0.1-0.3,0.2-0.5c0.3-0.2,0.9-0.1,1-0.1c1.3,0.2,1.1-2,1.1-2.8c0-1.6-1.4-4.2-3.1-4.2c-0.3,0-0.2,0-0.3,0.3
	c-0.4-0.2-0.6-0.7-1-1c-0.2,0.2-0.8,0.3-0.8,0.3c0.1-0.7,0.1-0.3,0.3-0.7c0.3-0.5,0-1,0.3-1.5c0.5-0.9,2-0.6,2.9-0.6
	s1.4,0.4,1.9,0.4c0.4,0,0.6-0.2,0.8-0.4c-0.4-0.1-1.2-1.7,0.4-1.4c0.7,0.1,0.9,0.5,1.5,0.6c-0.1-0.5,0.1-0.3,0-1.2h0.5
	c0.1,0.5,0.3,0.7,0.6,1c-0.3,0.4-0.8,1.2-0.8,1.9c0,1.5,3,2.9,3.8,4.2c0.2-0.5,0.4-0.7,0-1.1c-0.2-0.2,0.1-0.2,0.3-0.4
	c-0.1-0.1-0.4-0.3-0.4-0.5s0.1-0.3,0.4-0.3c0,0,0.5-0.6-0.8-0.5l0.5-0.5c-0.4-0.4-2-1-2-1.7c0-0.3,0.3-0.8,0.5-0.8h1.1
	c1.2,0,1.7-0.9,2.9-1.4c-0.3-1-1.4-0.4-2.2-1c0.3-0.1,0.5-0.2,0.8-0.3c-0.2-0.1-0.3-0.2-0.4-0.4c1-0.2,2.7,0.8,3.6,0.8
	c0.1,0,0.3,0,0.3-0.2C190,155.4,189.8,155.3,189.7,155.2L189.7,155.2z"/>
</svg>
