<?xml version="1.0" encoding="utf-8"?>
<!-- Generator: Adobe Illustrator 27.8.0, SVG Export Plug-In . SVG Version: 6.00 Build 0)  -->
<svg version="1.1" id="Ebene_1" xmlns="http://www.w3.org/2000/svg" xmlns:xlink="http://www.w3.org/1999/xlink" x="0px" y="0px"
	 viewBox="0 0 200 200" style="enable-background:new 0 0 200 200;" xml:space="preserve">
<style type="text/css">
	.st0{fill:none;stroke:#EFC932;stroke-width:4;}
	.st1{fill:#EFC932;}
</style>
<path class="st0" d="M105.7,143.9c0,0-19.7,9.7-28.4,5.8c-6.7-3-18.3-4.8-22.2-30.3c-3.7-24.2,27.5-50.2,27.5-50.2
	s-18.3-5.6-13.9-20.7c4.1-14.1,20-6,20-6s6.9-6.6,11.2-7.2c4.2-0.5,12.2,4.1,12.2,4.1s10.7-2.1,14.3,1.5c2.8,2.9,3.7,8.6,2,12.4
	c-1.2,2.8-7.5,4.5-7.5,4.5s1.1,10.4-1,14.7c-1.6,3.1-7.8,6.4-7.8,6.4l-0.3,5.7c0,0,7.3,0.1,10.5-1.5c5.7-2.8,14.3-13.6,14.3-13.6
	s5.3-2.1,7.1-0.4s0.7,7.9,0.7,7.9s-11,13.2-17.7,18.1c-5.2,3.8-17,8.7-17,8.7l-0.3,7.9c0,0,4.7,3,6.5,5.3c1.6,2.2,3.4,7.5,3.4,7.5
	h13.6l1.4,7.5l-24.4,14.7L105.7,143.9L105.7,143.9L105.7,143.9z"/>
<path class="st1" d="M146.4,163.9c0.2-0.3,0.4-0.5,0.4-0.9c0-0.5,0.7-1.2,1-1.3c0.1,0.3,0.2,0.7,0.5,0.7c0.1,0,0.2-0.4,0.2-0.4
	c0-0.1-0.1-0.3-0.1-0.4v-0.4c0.4,0,0.6,0.1,1,0c0-0.5,0.3-1.2,0.6-1.3c0.4-0.1,0.3-0.8,0.7-1c0.8-0.4,1.3-0.4,1.8-0.8
	c0.3,0.4,0.9,0.7,0.9,1.2c0,0.1-0.1,0.1-0.1,0.3c0.1-0.1,0.3-0.3,0.5-0.3s0.3,0.1,0.5,0.1s0.5-0.1,0.6-0.3l-0.1-0.4
	c0.2-0.5,0.5-0.9,1.1-1c-0.1-0.2-0.2-0.2-0.2-0.4c0-0.5,1.4-1.1,2-1.1c0.5,0,0.7-0.1,0.7-0.5v-0.3c-0.2,0-0.4-0.1-0.4-0.3v-0.3h0.3
	c0.1,0,0.2,0.1,0.4,0.2c0,0.1-0.1,0.2,0,0.3s0.5,0.1,0.5,0.1c0.8,0.2,1.3,0.7,2.1,0.7c0.2,0,0.4-0.2,0.6-0.3c0,0.2,0.3,0.5,0.4,0.5
	c0-0.3,0.1-0.5,0.3-0.5s0.4,0.3,0.4,0.4c0,0.3-0.7,1.1-1.1,1.1v0.4c0,0.1,0,0.2,0.1,0.3c0,0.1,0.3,0,0.3,0c0,0.1,0.1,0.2,0.2,0.3
	c0,0.2-0.1,0.3-0.3,0.3c-0.3,0-0.3-0.4-0.4-0.5c-0.3,0.2-0.9,0.6-0.9,1.1c0,1.2,1.3,1,1.9,1.6c0.4,0.4,0.8,0.7,1.4,0.9
	c0.4,0.1,0.3,0.9,0.9,0.9c0.3,0,0.6-0.3,0.7-0.4c0.2-0.2,0.3-0.5,0.4-0.8c0.1-1,0.9-1.5,0.9-2.6c0-1.3,0.5-1.6,0.9-2.7
	c0.2-0.6,0.3-1.5,0.9-1.5c0.2,0,0.4,0.3,0.4,0.4c0,0.3-0.1,0.6-0.1,0.9c0,0.1,0,0.2,0,0.3c0,0.2,0.3,2.5,0.6,2.5h0.3l0.1-0.2
	c0.4,0.4,0.4,0.6,0.7,1l-0.2,0.5c0.1,0.4,0,0.6,0,1c0,0.6,0.4,1,0.4,1.7c0,0.4,0.2,0.5,0.2,0.7v0.6c0,0.7,1.3,1.1,1.8,1.6
	c0.4,0.4,0,0.8,0.4,1.1v0.9c0,0.1,0.1,0.5,0.3,0.5c0.1,0,0.2-0.1,0.3-0.2c0.3,0.4,0.6,0.8,0.6,1.5c0,0.4,0.4,0.4,0.5,0.6
	c0.3,0.5,0.9,1.2,0.9,1.7c0,0.3-0.2,0.5-0.2,0.8c-0.5,0.3-0.3,1-0.3,1.6c0,1-0.3,1.7-0.6,2.2c-0.5,0.8-0.8,1.3-1.3,2.2
	c-0.3,0.6-0.6,0.5-0.8,1c-0.3,0.6-0.8,0.8-1.3,1.1c-0.9,0.6-1,1.3-1.6,1.9c-1,1-1.8,1.9-2.6,3.1c-0.3,0.2-0.3,0.5-0.6,0.6
	c-0.8,0.3-1.5,0.1-2,0.3c-0.6,0.2-1,0.6-1.5,0.8c-0.3,0.1-0.4,0.5-0.8,0.5c-0.1,0-0.6-1.1-0.6-1.3c-0.5,0.1-0.5,0.4-0.5,0.5
	l-1.4,0.8c-0.1,0-0.5-0.6-0.5-0.6c-0.3-0.1-0.5,0-0.8,0c-0.4-0.1-1.3-0.9-1.3-1.4c0-0.4,0.5-0.5,0.5-1.1c0-0.7-0.6-0.6-0.9-1
	c0.3-0.3,0.5-0.6,0.5-1.1c0-0.1-0.1-0.2-0.1-0.3c-0.5,0.1-0.5,1.2-1.4,1.2c-0.1,0-0.1-0.1-0.1-0.2c0-0.4,0.6-0.1,0.7-0.4
	c0.4-0.7,1.3-1.4,1.4-2.1c-0.3,0-0.5,0.1-0.9,0c0,0.4-0.2,0.5-0.2,0.9h-0.4c-0.6,0-1.4,0.7-1.4,1.5c-0.3,0-0.5-0.1-0.5-0.4
	c0-0.3,0.3-0.8,0.3-1.1c0-0.6-0.4-1-0.4-1.6c0,0-1.7-0.4-1.9-0.6c-0.1-0.1-0.3-0.3-0.4-0.3h-2l-1.6,0.9h-2c-0.6,0.3-1.1,0.4-1.8,0.8
	c-0.9,0.6-1.2,1.2-2.7,1.2h-1c-1.8,0-2.7,1.2-4.4,1.2c-0.6,0-0.8-0.4-1.1-0.7c-0.2-0.2-0.5,0-0.5-0.5c0-0.6,0.9-0.4,1.1-0.8
	c0.4-0.7,0.5-1.3,0.9-2c-0.4-0.3-0.2-0.6-0.2-1v-2.2v-0.9c0-1.1-0.2-1.7-0.6-2.3v-0.3c0.2,0.1,0.2,0.3,0.3,0.5h0.4
	c0-0.2-0.1-0.3-0.2-0.4v-0.3c0.2,0.1,0.3,0.3,0.3,0.5c0.3-0.1,0.3-0.3,0.3-0.5l-0.3-1c0.5-1,0.8-1.6,0.8-2.8c0-0.4,0.1-0.5,0.3-0.7
	c0.2,0.1,0.1,0.4,0.3,0.4c0.3,0,0.3-0.3,0.4-0.4c0.3-0.4,0.6-0.3,1-0.5c0.5-0.2,0.5-0.6,0.9-0.9c0.8-0.5,1.4-0.2,2.1-0.6
	c0.9-0.5,1.4-0.2,2.5-0.5C145,165.5,146.2,164.1,146.4,163.9L146.4,163.9L146.4,163.9z"/>
<path class="st1" d="M182.5,192.8c0.5-0.4,0.9-0.9,1.4-1.3c0.3-0.2,0.6-0.1,0.8-0.3c0.4-0.4,0.9-1.2,1.5-1.2c0.1,0,0.2,0.1,0.3,0.1
	c-0.2,0.3-0.2,0.5-0.3,0.8c0.4,0,0.7-0.3,1-0.4v0.5c-0.4,0.1-0.6,0.7-0.7,0.9c-0.2,0.4-0.6,0.4-0.9,0.5c-0.5,0.4-1.9,0.8-1.9,1.3
	v0.3c-0.3,0.3-1.3,0.3-1.8,0.4c-0.6,0.1-1.3,1.2-1.7,1.6c-0.5,0.5-0.6,0.4-1.2,0.6c-0.6,0.2-1,0.9-1.8,0.9c-0.5,0-1.7-0.7-1.7-1.1
	c0-0.1,1.1-0.7,1.2-0.8c1-0.7,1.7-1,2.8-1.5c0.4-0.2,0.8-0.1,1.2-0.2c0.3-0.1,1.5-0.8,1.9-1.1H182.5L182.5,192.8z"/>
<path class="st1" d="M188,191.4c-0.1,0-0.5-0.3-0.5-0.4c0-0.3,0.3-0.4,0.5-0.4c0.5-0.2,1-0.4,1.1-1c-0.2-0.1-0.7-0.6-0.7-0.9
	c0-0.2,0.1-0.3,0.3-0.4c0.1-0.1,0.5-0.1,0.6-0.1c0.4,0,0.8-0.7,1-0.8c0.8-0.5,0.6-1.7,1-2.3c-0.3-0.2-0.4-0.5-0.4-0.8
	c0-0.1,0.1-0.2,0.2-0.3c-0.1-0.1-0.2-0.2-0.2-0.3c0-0.2,0.1-1,0.4-1c0.1,0.6,0.8,0.8,0.8,1.4c0,0.3-0.2,0.4-0.4,0.4
	c0,0.5-0.3,0.6-0.3,1.1c0,0.1,0.1,0.3,0.2,0.3c0.3,0,0.6-0.5,0.8-0.6c0,0,0,0.1,0,0.2c0,0.4-0.3,0.5-0.3,0.9c0,0.1,0.3,0.6,0.5,0.6
	c0.6,0,0.7-0.4,1.2-0.4c0.3,0,0.5,0.2,0.5,0.4c0,0.3-0.4,0.4-0.5,0.5c-0.4,0.4-0.8,0.7-1.1,1c-0.2,0.2-0.8-0.1-1,0.1
	c-0.4,0.2-0.5,0.5-0.7,0.7C190.4,189.9,189,191.4,188,191.4L188,191.4z"/>
<path class="st1" d="M167.7,145v5c0,0-0.5,0.3,0,0.6v2.6c0.4,0.2,0.8,0.2,1.2,0.2s0.9-0.7,0.9-0.9c-0.1,0-0.2,0-0.3,0
	c0.2,0,0.4,0,0.5,0c0-0.5,0.3-1.2,0.8-1.2c0.7,0,1.1,0.1,1.8,0.5c0.5,0.3,0.3,0.8,0.6,1.3l-0.1-0.1l0,0c0,1.2,1.6,1.3,2.7,1.6
	c0.2,0.1,0.3,0.4,0.6,0.4c0.2,0,0.5,0,0.5-0.4s-0.5-0.4-0.6-1c-0.6,0-0.6-0.4-0.7-0.8c-0.1-0.3-0.6-0.1-0.8-0.4
	c-0.2-0.4-0.4-0.5-0.4-1.1c-0.4,0-0.9-0.6-1-0.9c0.2-0.1,0.5,0,1,0c0.4,0,0.9-0.2,0.9-0.6c-0.4,0-1-0.5-1.4-0.7
	c-0.3-0.1-0.6-0.4-1-0.4c-0.2,0-0.4,0.1-0.5-0.1c-0.2-0.5,0-0.8-0.2-1.3c0,0-1.2-0.9-1.4-0.9C170,145.9,169.2,145.5,167.7,145
	L167.7,145L167.7,145z"/>
</svg>
