<?xml version="1.0" encoding="utf-8"?>
<!-- Generator: Adobe Illustrator 27.8.0, SVG Export Plug-In . SVG Version: 6.00 Build 0)  -->
<svg version="1.1" id="Ebene_1" xmlns="http://www.w3.org/2000/svg" xmlns:xlink="http://www.w3.org/1999/xlink" x="0px" y="0px"
	 viewBox="0 0 200 200" style="enable-background:new 0 0 200 200;" xml:space="preserve">
<style type="text/css">
	.st0{fill:none;stroke:#A2B21D;stroke-width:4;}
	.st1{fill:#A2B21D;}
</style>
<path class="st0" d="M155.8,49.1h0.4c0.2,0.1,0.6,0.2,0.7,0.3c0.1,0.1,0.4,0.4,0.6,0.6l0.3,0.4l0.1,0.4c0.1,0.2,0.4,0.6,0.5,0.8
	l0.2,0.5c0.2,0.4,0.5,1.1,0.6,1.5l0.2,0.5l0.2,0.5c0.1,0.2,0.4,0.6,0.6,0.7c0.2,0.2,0.5,0.6,0.6,0.7c0.2,0.2,0.5,0.5,0.7,0.7
	l0.4,0.3c0.2,0.2,0.5,0.5,0.7,0.6c0.2,0.2,0.5,0.5,0.7,0.6L164,59l0.7,0.7c0.2,0.2,0.5,0.5,0.6,0.7c0.2,0.2,0.5,0.5,0.6,0.7
	s0.5,0.6,0.6,0.7l0.2,0.4c0.1,0.2,0.5,0.5,0.6,0.7s0.4,0.6,0.5,0.8l0.2,0.4c0.1,0.2,0.4,0.6,0.6,0.7c0.1,0.2,0.4,0.6,0.5,0.8
	l0.3,0.4l0.6,1c0.1,0.2,0.4,0.6,0.6,0.8l0.3,0.4c0.1,0.2,0.4,0.6,0.6,0.8c0.1,0.2,0.4,0.6,0.6,0.8l0.3,0.4c0.1,0.2,0.5,0.6,0.6,0.7
	c0.2,0.2,0.5,0.5,0.7,0.7c0.2,0.1,0.5,0.4,0.7,0.6l0.4,0.3c0.2,0.1,0.5,0.4,0.7,0.6c0.1,0.1,0.4,0.4,0.6,0.6l0.3,0.3
	c0.1,0.2,0.3,0.5,0.4,0.7L177,76c-0.1,0.2-0.3,0.5-0.3,0.7c-0.1,0.1-0.4,0.4-0.5,0.5l-0.3,0.3c-0.4-0.1-1.1-0.3-1.5-0.4l-0.6-0.1
	c-0.4-0.1-1.1-0.4-1.5-0.5s-1.1-0.5-1.4-0.6l-0.5-0.2c-0.4-0.1-1.1-0.4-1.5-0.5l-0.5-0.2c-0.3-0.1-1-0.4-1.4-0.6l-0.5-0.1
	c-0.8,0.1-2.5,0.3-3.4,0.4c-0.2,0.2-0.5,0.5-0.7,0.7c0.2,0.1,0.6,0.4,0.8,0.6l0.3,0.4c0.1,0.2,0.4,0.5,0.6,0.7l0.4,0.2
	c0.2,0.1,0.6,0.4,0.8,0.5l0.4,0.3c0.2,0.1,0.6,0.4,0.8,0.5l0.4,0.2c0.2,0.1,0.6,0.3,0.8,0.5l0.4,0.2c0.2,0.1,0.5,0.4,0.7,0.5
	c0.1,0.1,0.4,0.4,0.5,0.5l0.3,0.2c0.1,0.2,0.2,0.5,0.2,0.7v0.4l-0.2,0.3c-0.1,0.1-0.3,0.4-0.4,0.5l-0.3,0.2L168,83h-0.4
	c-0.2,0.1-0.6,0.2-0.8,0.2h-0.5c-0.4-0.1-1.2-0.2-1.6-0.3c-0.4-0.1-1.1-0.5-1.5-0.6l-0.5-0.2c-0.2-0.1-0.7-0.3-0.9-0.5
	c-0.2-0.1-0.6-0.4-0.7-0.5l-0.4-0.2c-0.2-0.1-0.6-0.3-0.8-0.4l-0.4-0.2c-0.2-0.1-0.6-0.3-0.8-0.3c-0.2-0.1-0.6-0.2-0.8-0.2
	s-0.6,0-0.7,0c-0.2,0.1-0.6,0.2-0.8,0.3l-0.4,0.1c-0.2,0.1-0.6,0.3-0.7,0.4c-0.2,0.1-0.6,0.4-0.7,0.5c-0.2,0.1-0.6,0.4-0.7,0.6
	c-0.2,0.1-0.6,0.4-0.8,0.6l-0.4,0.2c-0.2,0.2-0.5,0.5-0.7,0.6s-0.6,0.4-0.8,0.6c-0.2,0.1-0.6,0.4-0.8,0.6l-0.4,0.2
	c-0.2,0.1-0.5,0.4-0.7,0.6c-0.2,0.1-0.6,0.4-0.8,0.5l-0.4,0.2c-0.2,0.1-0.6,0.4-0.7,0.6c-0.2,0.1-0.6,0.4-0.8,0.5l-0.5,0.3
	c-0.2,0.1-0.7,0.4-0.9,0.5l-0.5,0.2c-0.2,0.1-0.7,0.3-1,0.4l-0.5,0.2l-0.5,0.1c-0.2,0.1-0.7,0.3-0.9,0.4l-0.6,0.2l-0.6,0.1
	c-0.8,0-1.6,0.3-2.2,0.8l-0.5,0.3c-0.2,0.1-0.6,0.4-0.8,0.5s-0.5,0.5-0.7,0.6c-0.1,0.2-0.4,0.5-0.6,0.6c-0.1,0.2-0.4,0.5-0.5,0.7
	l-0.2,0.4c-0.1,0.2-0.3,0.6-0.5,0.8l-0.2,0.4c-0.1,0.2-0.3,0.7-0.4,0.9l-0.2,0.5c0,0.3-0.1,0.8-0.2,1c0,0.5,0,1.4,0,1.8l-0.1,0.6
	l0.4,0.3l0.2,0.4c0.1,0.2,0.4,0.6,0.5,0.8c0.1,0.2,0.4,0.5,0.6,0.7c0.1,0.2,0.4,0.5,0.6,0.7c0.2,0.2,0.5,0.5,0.6,0.7
	c0.2,0.2,0.5,0.5,0.7,0.7s0.5,0.5,0.7,0.7l0.7,0.7c0.2,0.2,0.5,0.5,0.7,0.7s0.5,0.5,0.7,0.7l0.7,0.7l0.7,0.7
	c0.2,0.2,0.5,0.5,0.7,0.7l0.7,0.7l0.7,0.7l0.7,0.7l0.7,0.7l0.7,0.7c0.2,0.2,0.5,0.5,0.7,0.7l0.7,0.7l0.7,0.7l0.7,0.7
	c0.2,0.2,0.5,0.5,0.7,0.7s0.5,0.5,0.7,0.7s0.5,0.5,0.7,0.7s0.5,0.5,0.7,0.6c0.2,0.2,0.5,0.5,0.7,0.6s0.5,0.5,0.7,0.6
	s0.5,0.4,0.7,0.6c0.2,0.1,0.6,0.4,0.8,0.6l0.4,0.3l0.9,0.5l0.5,0.3c0.2,0.1,0.7,0.4,0.9,0.5l0.5,0.2c0.4,0.2,1.1,0.5,1.5,0.7
	s1.1,0.5,1.5,0.7l0.5,0.2c0.2,0.1,0.6,0.4,0.7,0.5l0.4,0.1c0.2,0.1,0.5,0.4,0.6,0.5l0.3,0.3c0.1,0.2,0.3,0.6,0.3,0.7
	c0,0.2,0,0.6,0,0.8c-0.1,0.2-0.2,0.6-0.3,0.7c-0.1,0.2-0.4,0.5-0.5,0.6c-0.2,0.1-0.5,0.4-0.6,0.5l-0.4,0.2c-0.2,0.1-0.5,0.3-0.7,0.4
	l-0.4,0.1c-0.2,0.1-0.5,0.4-0.7,0.5c-0.5,0-1.5-0.1-1.9-0.1l-0.6-0.1c-0.2-0.1-0.7-0.2-1-0.3l-0.8-0.5l-0.5-0.1
	c-0.2-0.1-0.6-0.4-0.8-0.5l-0.4-0.3c-0.2-0.1-0.6-0.4-0.8-0.5s-0.6-0.4-0.8-0.6l-0.4-0.3c-0.2-0.1-0.6-0.4-0.8-0.6
	c-0.2-0.1-0.6-0.4-0.8-0.6c-0.2-0.1-0.5-0.4-0.7-0.6l-0.4-0.2l-0.8-0.6c-0.2-0.1-0.6-0.4-0.7-0.6c-0.2-0.1-0.5-0.5-0.7-0.6l-0.4-0.2
	c-0.2-0.1-0.6-0.5-0.7-0.6c-0.2-0.1-0.6-0.5-0.7-0.6c-0.2-0.2-0.6-0.5-0.8-0.6c-0.2-0.2-0.6-0.5-0.8-0.6l-0.4-0.3
	c-0.2-0.2-0.6-0.5-0.8-0.6c-0.2-0.2-0.6-0.5-0.7-0.6c-0.2-0.1-0.6-0.5-0.7-0.6c-0.2-0.1-0.6-0.5-0.8-0.6l-0.4-0.3
	c-0.2-0.2-0.6-0.5-0.8-0.6c-0.2-0.2-0.6-0.5-0.7-0.6c-0.2-0.1-0.5-0.4-0.7-0.6c-0.2-0.1-0.5-0.4-0.7-0.6c-0.2-0.1-0.5-0.5-0.7-0.6
	l-0.4-0.2c-0.2-0.1-0.6-0.4-0.8-0.6s-0.6-0.5-0.8-0.6s-0.6-0.4-0.8-0.6l-0.4-0.3c-0.2-0.1-0.6-0.4-0.8-0.6c-0.2-0.1-0.6-0.4-0.8-0.6
	c-0.2-0.1-0.5-0.4-0.7-0.6l-0.4-0.2c-0.2-0.1-0.6-0.4-0.8-0.5s-0.6-0.4-0.8-0.6l-0.5-0.2c-0.2-0.1-0.7-0.4-0.9-0.5l-0.5-0.3
	l-0.9-0.5c-0.2-0.1-0.6-0.4-0.8-0.5l-0.4-0.2c-0.2-0.1-0.6-0.4-0.7-0.5l-0.4-0.2c-0.2-0.1-0.5-0.4-0.7-0.6l-0.4-0.2
	c-0.2-0.2-0.5-0.5-0.6-0.7s-0.4-0.6-0.5-0.8c-0.3-0.7-0.4-1.4-0.4-2.1c0-0.2,0.1-0.7,0.2-0.9c-0.1-1.1,0.1-3.4-1.7-2.9
	c-1.3,0.1-2.5,0.2-3.8,0.2c-1.1-0.1-2.1,0.2-2.9,0.8l-0.5,0.2l-0.8,0.5l-0.4,0.2c-0.1,0.2-0.4,0.5-0.6,0.6l-0.6,0.6l-0.2,0.4
	c-0.1,0.2-0.4,0.6-0.6,0.7c-0.1,0.2-0.4,0.5-0.6,0.7l-0.2,0.4c-0.1,0.2-0.4,0.6-0.5,0.8c-0.1,0.2-0.4,0.6-0.6,0.7l-0.2,0.5
	c-0.1,0.2-0.4,0.6-0.6,0.8c-0.1,0.2-0.4,0.6-0.6,0.8l-0.2,0.5c-0.1,0.2-0.4,0.6-0.6,0.8c-0.1,0.2-0.4,0.6-0.6,0.8l-0.2,0.5l-0.5,0.8
	c-0.1,0.2-0.4,0.6-0.6,0.8l-0.2,0.5c-0.1,0.2-0.4,0.6-0.5,0.8c-0.1,0.2-0.4,0.6-0.6,0.8l-0.2,0.5c-0.1,0.2-0.4,0.7-0.5,0.9l-0.3,0.5
	c-0.1,0.2-0.4,0.6-0.5,0.9c-0.1,0.2-0.4,0.6-0.5,0.8l-0.2,0.4c-0.1,0.2-0.4,0.6-0.5,0.8l-0.1,0.5c-0.1,0.2-0.4,0.6-0.5,0.8l-0.1,0.5
	c-0.2,0.4-0.5,1.1-0.7,1.5l-0.2,0.6c-0.1,0.4-0.4,1.2-0.5,1.6l-0.1,0.6c-0.8,0.7-0.5,1.8,0.5,2.1l0.4,0.3c0.3,0.2,1,0.5,1.4,0.7
	l0.5,0.2c0.2,0.1,0.6,0.3,0.8,0.4l0.4,0.2c0.2,0.1,0.5,0.4,0.7,0.5c0.1,0.1,0.4,0.4,0.5,0.5l0.3,0.2l0.1,0.4c0,0.2,0.1,0.5,0.2,0.7
	v0.3c0,0.2,0,0.5,0,0.7h-0.5c-0.8,0-1.5,0.2-2,0.8c-0.4,0-1.4,0-1.8,0c-0.9-0.3-1.9-0.5-2.9-0.4h-0.6l-0.6-0.1
	c-0.4-0.2-1.1-0.5-1.4-0.7c-0.2-0.2-0.6-0.5-0.8-0.7c-0.1-0.2-0.4-0.6-0.6-0.8l-0.2-0.4c-0.1-0.2-0.3-0.6-0.4-0.8l-0.2-0.4
	c-0.1-0.2-0.3-0.7-0.4-0.9l-0.2-0.5v-0.5c-0.1-0.4-0.4-1.2-0.5-1.6c-0.1-0.8,0-1.7,0.2-2.5c0.1-0.3,0.2-0.8,0.3-1l0.2-0.5
	c0.1-0.2,0.3-0.7,0.4-0.9l0.2-0.4l0.4-0.8c0.1-0.2,0.3-0.5,0.5-0.7l0.1-0.4c0.1-0.2,0.4-0.6,0.5-0.8l0.1-0.5
	c0.2-0.4,0.5-1.1,0.7-1.5l0.2-0.5c0.1-0.3,0.3-0.8,0.4-1l0.2-0.5c0.1-0.4,0.4-1.2,0.6-1.6l0.2-0.6c0.1-0.2,0.4-0.7,0.5-0.9
	c0-0.3,0.1-0.8,0.1-1.1l0.2-0.5c0.1-0.2,0.3-0.7,0.4-1l0.2-0.5c0.1-0.2,0.4-0.6,0.5-0.8l0.1-0.5c0.2-0.4,0.5-1.1,0.7-1.5l0.2-0.5
	c0.1-0.2,0.3-0.7,0.4-0.9l0.2-0.5c0.1-0.2,0.3-0.6,0.4-0.8l0.2-0.4l0.4-0.8l0.2-0.4l0.4-0.3l-0.1-0.4l-0.1-0.4
	c-0.1-0.2-0.2-0.7-0.3-0.9c-0.3,0-1-0.1-1.4-0.2c-3.2-0.2-6.4-0.1-9.6-0.2c-0.3-0.1-0.9-0.2-1.2-0.2c-0.6-0.5-1.4-0.7-2.2-0.5
	L83.1,94c-0.2-0.1-0.6-0.4-0.8-0.5c-0.3,0-0.8,0-1.1,0l-0.6-0.1c-0.7-0.4-1.5-0.4-2.3-0.1c-0.3,0.1-0.8,0.3-1.1,0.3h-0.6L76.5,94
	l-0.2,0.4c-0.1,0.2-0.4,0.6-0.6,0.7l-0.3,0.4c-0.1,0.2-0.4,0.6-0.5,0.8c-0.1,0.2-0.4,0.5-0.5,0.7l-0.2,0.4c-0.1,0.2-0.4,0.6-0.5,0.8
	c-0.1,0.2-0.4,0.6-0.6,0.7l-0.2,0.4l-0.5,0.8c-0.1,0.2-0.4,0.6-0.6,0.7l-0.2,0.5c-0.1,0.2-0.4,0.6-0.6,0.8c-0.1,0.2-0.4,0.6-0.6,0.8
	l-0.2,0.4c-0.1,0.2-0.4,0.6-0.5,0.8c-0.1,0.2-0.4,0.6-0.6,0.7l-0.2,0.4c-0.1,0.2-0.4,0.6-0.5,0.8c-0.1,0.2-0.4,0.6-0.5,0.8l-0.2,0.4
	c-0.1,0.2-0.3,0.6-0.5,0.8l-0.1,0.5l-0.2,0.5c-0.6,1-0.6,2.3,0,3.3l0.1,0.5c0.1,0.2,0.3,0.7,0.4,1l0.2,0.5l0.1,0.5
	c0.1,0.2,0.3,0.6,0.5,0.8l0.2,0.5c0.1,0.2,0.3,0.7,0.4,0.9l0.2,0.5c0.1,0.2,0.4,0.6,0.5,0.9l0.3,0.4c0.1,0.2,0.4,0.6,0.6,0.8
	c0.2,0.2,0.5,0.5,0.6,0.7c0.2,0.1,0.5,0.4,0.7,0.6c0.2,0.1,0.5,0.4,0.7,0.5l0.4,0.2c0.2,0.1,0.6,0.4,0.8,0.5l0.5,0.1l0.5,0.2
	c0.4,0.2,1.2,0.5,1.6,0.7h0.6l0.6,0.2c0.4,0.2,1.2,0.5,1.6,0.6l0.5,0.2c0.2,0.1,0.7,0.3,0.9,0.4l0.4,0.2c0.2,0.1,0.6,0.4,0.8,0.5
	l0.4,0.3c0.2,0.1,0.5,0.4,0.6,0.5s0.4,0.4,0.5,0.6s0.3,0.5,0.3,0.7s0.1,0.6,0.1,0.8c-0.1,0.2-0.3,0.5-0.4,0.7c-0.7,0-1.2,0.3-1.4,1
	c-1.9,0.1-3.8,0.1-5.6-0.1c-0.7-0.6-1.4-0.8-2.3-0.8c-0.4-0.1-1.2-0.4-1.5-0.6L72,128l-0.4-0.2c-0.2-0.1-0.6-0.4-0.7-0.5
	c-0.2-0.1-0.5-0.4-0.7-0.6l-0.4-0.2c-0.2-0.1-0.5-0.4-0.7-0.6s-0.5-0.5-0.7-0.6c-0.2-0.2-0.5-0.5-0.7-0.7s-0.5-0.5-0.7-0.7
	s-0.5-0.5-0.7-0.7s-0.5-0.5-0.7-0.7s-0.5-0.5-0.7-0.7s-0.5-0.6-0.6-0.7l-0.3-0.4c-0.2-0.2-0.5-0.5-0.6-0.7c-0.2-0.2-0.5-0.6-0.6-0.7
	c-0.2-0.2-0.5-0.6-0.6-0.7c-0.1-0.2-0.5-0.6-0.6-0.7l-0.2-0.4c-0.2-0.2-0.5-0.5-0.6-0.7s-0.4-0.5-0.6-0.7c-0.1-0.2-0.4-0.5-0.6-0.7
	c-0.1-0.2-0.4-0.5-0.6-0.7c-0.1-0.2-0.4-0.6-0.5-0.8l-0.3-0.4c-0.1-0.2-0.3-0.7-0.5-0.9c0-0.3-0.1-0.8-0.2-1.1v-0.6
	c0.1-0.4,0.2-1.2,0.3-1.6c0.1-0.3,0.2-0.9,0.3-1.2c0.1-0.4,0.4-1.2,0.5-1.6l0.2-0.6c0.1-0.4,0.4-1.2,0.5-1.6
	c0.1-0.3,0.2-0.9,0.3-1.2c0.5-0.7,0.7-1.4,0.6-2.2c0-0.4,0.1-1.3,0.2-1.8c0.1-1.5,1.3-4-0.7-4.5l-0.5-0.2l-0.5-0.2
	c-0.8-0.3-1.5-0.2-2.2,0.4c-0.4,0.1-1.3,0.4-1.7,0.6c-0.2,0.1-0.7,0.3-1,0.4l-0.5,0.1c-0.2,0.1-0.6,0.4-0.8,0.5s-0.6,0.4-0.8,0.5
	L51.2,97c-0.2,0.1-0.6,0.4-0.8,0.5l-0.5,0.2c-0.2,0.1-0.6,0.4-0.8,0.5s-0.6,0.4-0.9,0.5L47.9,99c-0.2,0.1-0.7,0.4-0.9,0.5l-0.5,0.2
	c-0.2,0.1-0.6,0.4-0.8,0.5l-0.5,0.2c-0.2,0.1-0.6,0.4-0.8,0.5s-0.6,0.4-0.9,0.5l-0.5,0.3c-0.2,0.1-0.7,0.4-0.9,0.5l-0.5,0.2
	c-0.2,0.1-0.6,0.4-0.8,0.6c-0.2,0.1-0.6,0.4-0.9,0.5l-0.5,0.3c-0.2,0.1-0.7,0.4-0.9,0.5l-0.5,0.2c-0.2,0.1-0.6,0.4-0.8,0.6
	c-0.2,0.1-0.6,0.4-0.9,0.5l-0.5,0.3c-0.2,0.1-0.6,0.4-0.9,0.5l-0.5,0.2c-0.2,0.1-0.5,0.4-0.7,0.6c-0.2,0.1-0.6,0.4-0.8,0.6
	c-0.2,0.1-0.6,0.4-0.8,0.6c-0.2,0.1-0.6,0.5-0.8,0.6l-0.4,0.3c-0.2,0.2-0.5,0.5-0.7,0.6c-0.2,0.2-0.5,0.5-0.7,0.6l-0.7,0.7
	c-0.2,0.2-0.5,0.5-0.6,0.7s-0.4,0.5-0.6,0.7l-0.2,0.4c-0.1,0.2-0.4,0.6-0.6,0.7c-0.1,0.2-0.4,0.6-0.5,0.8l-0.3,0.4
	c-0.1,0.2-0.4,0.7-0.5,0.9c-0.2,0.4-0.6,1.1-0.7,1.5l-0.2,0.6c-0.4,0.7-0.5,1.5-0.2,2.3l0.3,1c0.1,0.2,0.2,0.6,0.3,0.8
	c0.1,0.2,0.4,0.5,0.5,0.6l0.3,0.3c0.1,0.1,0.4,0.4,0.5,0.6s0.3,0.5,0.4,0.7c0,0.2,0.1,0.7,0.2,0.9l-0.6,0.1c-1,0.1-2,0.2-3,0.3
	c-0.3-0.1-0.9-0.3-1.2-0.3c-0.4-0.1-1.2-0.3-1.7-0.5c-0.1-0.1-0.3-0.5-0.4-0.6l-0.3-0.2c-0.1-0.2-0.4-0.5-0.6-0.6
	c-0.1-0.2-0.3-0.6-0.4-0.8c-0.2-0.7-0.3-1.4-0.2-2.2c0.1-0.2,0.2-0.7,0.3-0.9v-0.5l0.2-0.5c0.1-0.2,0.3-0.6,0.4-0.8
	c0.1-0.2,0.3-0.6,0.4-0.8l0.2-0.4c0.1-0.2,0.3-0.7,0.4-0.9l0.2-0.5c0.1-0.4,0.4-1.2,0.6-1.6c0.1-0.3,0.2-0.9,0.3-1.2
	c0.1-0.4,0.4-1.2,0.5-1.6l0.2-0.6c0.1-0.4,0.3-1.1,0.4-1.5V108c0.9-0.5,0.5-1.7-0.4-1.8l-0.4-0.2c-0.2-0.1-0.5-0.4-0.7-0.5
	c-0.4-0.1-1.2-0.2-1.6-0.3h-0.6c-0.1-0.2-0.3-0.5-0.4-0.7l-0.4-0.3c-0.4-0.7-0.5-1.5-0.5-2.3c0.4-0.7,0.6-1.5,0.5-2.3l0.2-0.5
	c0.1-0.2,0.3-0.7,0.4-0.9l0.2-0.4c0.1-0.2,0.4-0.6,0.5-0.8l0.1-0.4c0.1-0.2,0.4-0.6,0.5-0.7c0.1-0.2,0.4-0.6,0.6-0.7l0.3-0.4
	c0.2-0.2,0.5-0.5,0.6-0.7c0.2-0.2,0.5-0.5,0.7-0.7l0.4-0.3c0.2-0.1,0.6-0.5,0.7-0.6c0.2-0.1,0.6-0.4,0.7-0.6
	c0.2-0.1,0.6-0.4,0.8-0.6l0.4-0.3c0.2-0.1,0.6-0.4,0.8-0.6c0.2-0.1,0.6-0.4,0.8-0.6c0.2-0.1,0.6-0.5,0.8-0.6l0.4-0.3
	c0.2-0.2,0.6-0.5,0.8-0.6c0.2-0.2,0.5-0.5,0.7-0.6c0.2-0.2,0.5-0.5,0.7-0.6c0.2-0.2,0.5-0.5,0.7-0.6c0.2-0.2,0.5-0.5,0.7-0.7
	s0.5-0.5,0.7-0.7c0.2-0.2,0.5-0.5,0.6-0.7c0.2-0.2,0.5-0.5,0.6-0.7c0.2-0.2,0.5-0.5,0.6-0.7s0.4-0.6,0.6-0.8l0.3-0.4
	c0.1-0.2,0.4-0.6,0.6-0.8c0.1-0.2,0.4-0.6,0.6-0.9l0.3-0.5c0.1-0.2,0.4-0.7,0.5-0.9l0.3-0.5c0.1-0.2,0.4-0.6,0.5-0.9
	c0.1-0.2,0.4-0.6,0.5-0.8l0.2-0.5c0.1-0.2,0.4-0.6,0.6-0.8l0.2-0.5c0.1-0.2,0.4-0.6,0.5-0.8c0.1-0.2,0.4-0.6,0.6-0.7l0.2-0.4
	c0.1-0.2,0.4-0.6,0.6-0.8c0.1-0.2,0.4-0.6,0.6-0.8c0.2-0.2,0.5-0.5,0.6-0.7l0.2-0.4c0.2-0.2,0.5-0.5,0.6-0.7
	c0.2-0.2,0.5-0.5,0.7-0.7s0.6-0.5,0.7-0.6l0.4-0.3c0.2-0.1,0.6-0.4,0.8-0.6c0.2-0.1,0.6-0.4,0.8-0.6c0.2-0.1,0.6-0.4,0.8-0.6
	l0.4-0.3c0.2-0.1,0.6-0.4,0.8-0.6c0.2-0.1,0.6-0.4,0.8-0.5l0.5-0.3c0.2-0.1,0.7-0.4,0.9-0.5l0.5-0.3c0.2-0.1,0.6-0.4,0.9-0.5
	l0.5-0.2c0.2-0.1,0.6-0.4,0.8-0.5l0.4-0.1c0.2-0.1,0.6-0.3,0.8-0.5l0.5-0.2c0.2-0.1,0.7-0.3,0.9-0.4l0.5-0.2
	c0.4-0.1,1.1-0.4,1.5-0.6l0.5-0.2c0.3-0.1,0.8-0.3,1-0.4c0.3-0.1,0.8-0.3,1.1-0.3c0.4-0.1,1.2-0.4,1.6-0.5l0.6-0.1
	c0.4,0,1.3,0,1.7,0l0.6,0.1l0.2-0.6c0.9-0.1,1.8-0.2,2.7-0.2c0.9,0.1,1.8,0,2.8,0c1.9-0.1,3.8,0,5.7,0.2l0.3,0.6l0.5-0.2
	c1,0,2,0,3,0c0.9,0,1.7,0.1,2.6,0.3c1.2,0.3,2.5,0.5,3.7,0.4c1.1,0,2.1,0.1,3.2,0.3c1.2,0.3,2.4,0.5,3.7,0.4c1.2,0,2.5,0.1,3.7,0.3
	c1,0,3,0,3.9,0c0.8-0.2,1.6-0.3,2.4-0.3c0.8,0.2,1.6,0,2.3-0.5l0.6-0.1l0.6-0.1c1.2,0,3.5-0.1,4.6-0.1c0.9,0,1.8,0.1,2.6,0.3
	c0.7,0.5,1.5,0.6,2.3,0.4c0.4,0,1.4,0.1,1.8,0.2c0.6,0.6,1.4,0.7,2.2,0.5l0.6-0.1c2-0.1,4-0.1,6.1,0.1c0.8,0.2,1.6,0.1,2.3-0.5
	c0.3-0.1,0.9-0.2,1.2-0.3l1.5-0.4c0.3-0.1,0.9-0.2,1.1-0.2c0.4-0.1,1.1-0.4,1.5-0.5l0.6-0.2c0.4-0.1,1.1-0.4,1.5-0.5l0.5-0.2
	c0.4-0.1,1.1-0.4,1.5-0.5l0.6-0.2c0.4-0.1,1.1-0.4,1.5-0.5l0.5-0.2c0.4-0.1,1.1-0.4,1.5-0.5l0.6-0.2c0.4-0.1,1.1-0.4,1.5-0.5
	l0.6-0.2c0.4-0.1,1.2-0.4,1.6-0.6l0.6-0.2c0.4-0.2,1.1-0.5,1.5-0.7l0.5-0.3c0.2-0.1,0.6-0.4,0.8-0.6c0.2-0.2,0.5-0.5,0.6-0.6
	l0.6-0.6l0.2-0.4c0.1-0.2,0.4-0.5,0.6-0.6c0.1-0.1,0.4-0.4,0.6-0.6c0.1-0.1,0.4-0.4,0.6-0.5c0.2-0.1,0.5-0.3,0.6-0.4
	C155.3,49.3,155.6,49.2,155.8,49.1L155.8,49.1z"/>
<path class="st1" d="M147.4,172.6c0.3,0.5,1,0.6,1,1.2c0,0.1-0.1,0.3,0,0.4c0.1-0.1,0.4-0.1,0.7-0.2c0.1,0.2,0.3,0.3,0.3,0.5
	c0,0.5-0.5,0.5-0.8,0.7c0.1,0.2,0.3,0.2,0.5,0.3c0.1,0.9-2,0.6-2.6,0.6H146c0,0.2-0.1,0.2,0,0.4c-0.6-0.1-1,0.2-1.4,0
	c0.2-0.9,1.5-0.7,1.9-1.2c-0.6-0.1-1.3-0.1-1.6-0.3c0.3-0.4,0.4-0.5,0.8-0.7c-0.1-0.1,0-0.2,0-0.4s0.4-0.4,0.7-0.6
	c-0.2-0.1-0.5-0.4-0.5-0.7s0.1-0.3,0.2-0.4c-0.2-0.2-0.2-0.3-0.3-0.6h-1.2c-0.2,0-0.2,0-0.1-0.3c-0.1-0.1-0.2-0.2-0.4-0.2
	c0.1-0.2,0.2-0.3,0.3-0.5c-0.2-0.1-0.4-0.2-0.5-0.4c0.4-0.4,1.7-1.3,2.5-1.4c-0.1,0.6-0.3,0.8-0.6,1c0.5,0.2,1,0,1.4,0.3
	c-0.3,0.4-0.6,0.6-0.6,1s0.8,1.4,1,1.7L147.4,172.6L147.4,172.6z"/>
<path class="st1" d="M143,173.2v-0.8c0-0.1,0.3-0.2,0.7-0.2s0.8,0,0.8,0.3c0,0.5-0.6,0.5-0.6,0.8c0,0.4,0.3,0.4,0.3,0.7
	c0,0.5-1.5,1.4-2.2,1.4c-0.2,0-0.6-0.2-0.6-0.4c0-0.4,0.5-0.7,0.7-0.9c-0.2-0.2-0.4-0.3-0.6-0.5c0.2-0.2,0.2-0.2,0.1-0.5
	C142.2,172.9,142.9,173,143,173.2L143,173.2z"/>
<path class="st1" d="M188.5,160.9c-1.2,0.9-2.3-0.6-3.9-0.7H183c0,0,0.8,1.6-0.6,0.4c-0.6-0.6-1.4,0.7-2.3,0.7
	c-0.3,0-0.3-0.4-0.8-0.4c-1.5,0-2.5,1-3.4,1.7c-0.3-0.4-0.5-0.7-0.5-1.4h-1.1c0.1,0.7,0.4,0.7,0.4,1.5c-1.4,0-2,0.8-2.5,1.5
	c-0.3-0.2-1.5-0.4-1.5-0.4c0.1,0.3,0.6,0.8,0.7,1.1c-1.9,0.1-2.1-1.4-2.8-2.2c0.6,0,1.3,0.4,2.3,0.4c0.7,0,1.2-0.4,1.7-0.6
	c-0.2-1.9-5.2-1.5-6.6-2.6c-0.2,0.2-0.5,0.2-0.8,0h0.6v-0.5c-0.7,0-1-0.2-1.6-0.2c-0.4,0-0.5,0.2-0.6,0.5c-0.1-0.3-0.4-0.6-0.8-0.6
	c-0.2,0-1.6,0.2-1.9,0.3c-0.1,0-0.4,0.6-0.7,0.6c-0.2,0-0.4-0.1-0.5-0.3c-0.3,0.1-0.9,0.8-1,0.8s-0.5-0.3-0.5,0c0,0.1,0,0.1,0,0.3
	h-0.7c-0.5-0.4-0.3,0.4-1,0.4c0.3,0.2,0.5,0.1,0.9-0.1c0,0.3,0,0.5-0.4,0.6c0,0.7-0.7,0.5-0.8,0.9c-0.2,0.7-0.3,1-0.9,1.4
	c-0.1,0.1-0.8,0.2-0.8,0.6c0,0.3,0.3,0.3,0.7,0.2c-0.2,0.2-0.6,0.2-0.7,0.1c-0.1,0.1-0.3,0.2-0.4,0.2c-0.5,0-0.7,0.5-1.3,0.4
	c-0.1,0.5-0.5,0.7-1.2,0.7c0,0.5,0.1,1.2,0.4,1.4c-0.1,0.2-0.3,0.5-0.3,0.8c0,0.2,0.3,0.3,0.5,0.2c-0.1,0.1-0.2,0.2-0.2,0.3
	c0,0.3,0.9,0.7,1.4,0.7c0.4,0,0.9-0.6,1.3-0.9c-0.1-0.2,0-0.2,0.1-0.4c0.1,0.2,0.1,0.6,0.6,0.6c0.2,0,1.2,1.5,1.4,1.7
	c0.1,0.2,0,0.4,0,0.6s0.2,0.4,0.5,0.4h0.6c0-0.6,0.4-0.6,1.1-0.6c0-0.2,0.1-0.2,0.3-0.2c0-0.3,0.3-0.4,0-0.6v-1.3
	c0.2-0.3,0.7-0.3,1.1-0.6h-1.1c0.5-0.1,1.2,0.1,1.3-0.5c-0.4-0.2-1.4-0.4-1.4-1.1c0-1.7,2.1-1.8,2.1-2.6v-0.3c0-0.6,0.8-0.5,1.1-0.5
	s0.8-0.1,1.3,0c-0.1,1.1-2.2,1-2.2,2.2c0,0.1,0.4,2,0.6,2c0.4,0,0.4,0.5,0.9,0.5c0.4,0,0.9-0.2,1.4-0.2c0.1,0,0.2,0,0.3,0
	c0.1-0.2,0.3-0.3,0.6-0.3c0.5,0,0.8-0.2,1-0.4l0,0c0.2,0.2,0.4,0.4,0.7,0.4c-0.3,0.3-0.9,1.2-2.2,0.6c-0.2-0.1-1.5,0.2-1.5,0.4
	c0,0.4,0.4,0.7,0.9,0.7c0,0,0.5,0.9-0.3,1.1c-0.5,0.1-0.6-0.6-1.1-0.6s-0.6,0.8-0.6,1.1c0,0.2,0.1,0.8,0,1.3c-0.4,0-0.6,0.3-0.6,0.6
	c-0.2,0-0.8,0.2-0.8-0.3h-0.9c-0.3,0.2-1.3,0.8-1.9,0.8c-0.4,0-0.4-0.6-1-0.6c-0.4,0-0.9,0.2-1,0.6c-0.3-0.3-0.8-0.4-1.2-0.7v-0.6
	c0.1,0,0.2,0,0.3,0c-0.2-0.2-0.3-0.3-0.3-0.6c0.3,0,0.4-0.1,0.4-0.4c-0.3,0-0.2-0.2-0.1-0.3V170c-0.2,0.1-1.4,0.9-1.4,1.3
	c0,0.5,0.3,0.6,0.3,1.2h0.3c0,0-0.2,0.1-0.1,0.1c0.1,0.4,0.3,0.7,0.6,1c-0.1-0.1-0.2-0.2-0.4-0.2s-0.3,0.3-0.5,0.3s-0.2-0.2-0.5-0.2
	c-0.4,0-1.4,0.2-1.5,0.7c-0.7,0.1-0.6,0.9-0.9,1.1c-0.5,0.3-0.9,0.6-1.5,0.7c0,0.7-0.7,0.6-1,1c-0.1,0.1-0.1,0.4-0.3,0.4
	c-0.4,0-0.7-0.3-1.1-0.2v0.4c0.1,0,0.2,0.1,0.2,0.2c0,0.2-0.1,0.3-0.3,0.3c-0.3,0-0.5-0.3-0.8-0.3c-0.4,0-0.6,0.3-1,0.4
	c0,0.8,0.8,0.7,1.4,0.9c0.5,0.2,1,1.3,1,2.1c0,0.5-0.1,1.6-0.6,1.6c-1.5,0-2.6-0.4-4-0.4c-0.2,0-0.4,0-0.4,0.3c-0.2,0-0.6,0-0.6,0.3
	s0.4,0.4,0.4,0.7s-0.2,0.4-0.2,0.8c0,0.2,0.2,0.2,0.2,0.5c0,0.7-0.7,1.1-0.7,1.8c0,0.2,0.5,0.2,0.5,0.5c0,0.2-0.1,0.6,0,1
	c0.4,0.2,0.7,0,1.1,0c0.2,0,0.6,0.2,0.6,0.4c0,0.3,0.1,0.7,0.6,0.7c0.2,0,0.3-0.4,0.8-0.4c0-0.1,0.2-0.3,0.3-0.3h1.6
	c0-0.5,1.1-1.5,1.5-1.9c-0.1-0.1-0.3-0.3-0.3-0.5c0-1.6,1.8-1.3,2.4-2.3c0-0.1-0.1-0.3-0.1-0.7s0.3-0.8,0.7-0.8
	c0.5,0,0.9,0.4,1.4,0.4s0.5-0.5,1.1-0.6c0.5,0,0.6-0.5,1-0.6c0.1,0.1,0.5,0.3,0.8,0.3c0.3,2,2.6,2.3,3.7,3.5c0.4,0.4,1,0.2,1,1.1
	c0,0.4-0.3,0.5-0.4,1h0.4c0-0.2,0.2-0.3,0.3-0.3c-0.1-0.2,0-0.3,0-0.6c0.2,0,0.5,0.1,0.5-0.2c0-0.4-0.6-0.4-0.6-0.8
	c0-0.1,0.1-0.3,0.3-0.3c0.5,0,0.7,0.4,1.1,0.4c0.1,0,0.2,0,0.3-0.1c-0.7-0.8-1.7-0.7-2.2-1.5c-0.2-0.4,0.1,0-0.6-0.2
	c-0.4-0.2-0.4-0.8-0.7-1.1s-0.5-0.2-0.9-0.5c-0.1,0-0.6-0.4-0.6-0.7c0-0.2,0.1-0.4,0.1-0.6c0-0.3,0.2-0.4,0.5-0.7
	c0.3,0.4,0.3,0.9,0.8,1.1c0-0.2,0.1-0.3,0.2-0.6c0.2,0.6,0.4,1.2,1,1.6c0.2,0.2,0.5-0.1,0.8,0.1c0.6,0.2,1.7,0.9,2,1.6
	c0.1,0.4,0.1,0.8,0.2,1.3c0.2,0.8,1.1,0.8,1.3,1.7c0.1,0.6,0.2,1.4,0.9,1.2c0.1,0.2,0.1,0.2,0.3,0.3s0.3,0.2,0.5,0.3
	c0-0.5-0.3-0.6-0.3-1.2c0.3,0.1,0.2,0.1,0.5,0c-0.2-0.2-0.2-0.1-0.3-0.4c0.3,0,0.4,0.3,0.7,0h0.4c-0.5-0.7-1.7-1-1.7-1.9
	c0-0.2-0.2-0.1,0.1-0.4c0.2,0.2,0.3,0.4,0.7,0.5c0-0.1,0.1-0.2,0.3-0.3c-0.1-0.1-0.2-0.2-0.2-0.4h1.8v-0.4c-0.1-0.1-0.3-0.1-0.3-0.4
	c0-0.4,0.9-0.3,1.4-0.4c-0.1-0.2-0.2-0.4-0.2-0.8c0-0.8,0.3-1,0.5-1.9c0.2,0.1,0.3,0.1,0.5,0c0,0,0-0.3-0.1-0.4
	c0.4-0.2,0.8-0.4,0.8-1.1c0.2,0,0.3,0,0.6,0l0,0c0.1,0.5,0.7,0.5,1.4,0.5c0,0.3-0.3,0.4-0.6,0.6c0.1,0.1,0.7,0.1,0.8,0.5
	c0.1,0.2-0.1,0.6,0.2,0.6c0.5,0,1-0.5,1.7-0.6c-0.4-0.6-1.4-0.3-1.5-1.1c0.8-0.1,1.4-0.6,2.3-0.6c0.2,0,2.1-0.6,0.2,0.5
	c0.1,0.1,0.1,0.1,0.2,0.3c-0.1,0-0.2,0.1-0.3,0.1c0,0.2,0,0.3,0,0.6c-0.2,0-0.4-0.1-0.6,0.1c0.9,0.7,2.4,1.4,3.3,2
	c0.4,0.2,0.8,0.3,0.8,0.7c0,0.1,0.1,0.3,0,0.4c0.3-0.1,0.5-0.1,0.7-0.1c0.6,0,0.9,0.6,0.9,1c0,0.1,0.1,0.2,0,0.4c1.1,0,1,1,1.9,1
	c0.6,0,1-0.4,1.2-0.6h0.4c0,0.6,0.1,0.9,0.7,1c0.1-0.6,0.1-0.9,0.2-1.6h0.4c-0.9-0.2-1.8-1.9-2.3-2.7c-0.2-0.3-0.9-0.6-0.9-1.1
	c-0.5-0.9-1.5-1.7-1.5-2.6c0.1-2.3,2.3-1.3,4.6-1.1c1.5,0.1,1-1.2,0.1-3.7C184.2,171.5,184.3,166.3,188.5,160.9L188.5,160.9z
	 M166.7,166.8l-0.1,0.1L166.7,166.8z M166.6,166.9l-0.1,0.1L166.6,166.9z M166.3,167.2L166.3,167.2L166.3,167.2z M166.8,166.7
	c0.1,0,0.1-0.1,0.2-0.1C166.9,166.6,166.8,166.7,166.8,166.7z M167.2,166.4c0,0,0.1,0,0.2-0.1C167.3,166.4,167.2,166.4,167.2,166.4z
	 M166.9,166.6c0.1,0,0.1-0.1,0.2-0.1C167.1,166.5,167,166.5,166.9,166.6z M167.4,166.3c0.1,0,0.2,0,0.3-0.1
	C167.6,166.3,167.5,166.3,167.4,166.3z"/>
</svg>
