<?xml version="1.0" encoding="UTF-8" standalone="no"?><!DOCTYPE svg PUBLIC "-//W3C//DTD SVG 1.1//EN" "http://www.w3.org/Graphics/SVG/1.1/DTD/svg11.dtd"><svg width="100%" height="100%" viewBox="0 0 67 67" version="1.1" xmlns="http://www.w3.org/2000/svg" xmlns:xlink="http://www.w3.org/1999/xlink" xml:space="preserve" xmlns:serif="http://www.serif.com/" style="fill-rule:evenodd;clip-rule:evenodd;stroke-linejoin:round;stroke-miterlimit:2;"><path d="M33.333,62.5c-16,0 -29.166,-13.166 -29.166,-29.167c-0,-16 13.166,-29.166 29.166,-29.166c16.001,-0 29.167,13.166 29.167,29.166c0,16.001 -13.166,29.167 -29.167,29.167m0,4.167c18.286,-0 33.334,-15.048 33.334,-33.334c-0,-18.286 -15.048,-33.333 -33.334,-33.333c-18.286,0 -33.333,15.047 -33.333,33.333c0,18.286 15.047,33.334 33.333,33.334" style="fill:#fff;fill-rule:nonzero;"/><path d="M37.208,27.45l-9.541,1.196l-0.342,1.583l1.875,0.346c1.225,0.292 1.467,0.733 1.2,1.954l-3.075,14.45c-0.808,3.738 0.438,5.496 3.367,5.496c2.27,0 4.908,-1.05 6.104,-2.492l0.366,-1.733c-0.833,0.733 -2.049,1.025 -2.858,1.025c-1.146,0 -1.562,-0.804 -1.267,-2.221l4.171,-19.604Zm0.292,-8.7c0,2.286 -1.881,4.167 -4.167,4.167c-2.285,-0 -4.166,-1.881 -4.166,-4.167c-0,-2.286 1.881,-4.167 4.166,-4.167c2.286,0 4.167,1.881 4.167,4.167" style="fill:#fff;fill-rule:nonzero;"/></svg>