<?xml version="1.0" encoding="utf-8"?>
<!-- Generator: Adobe Illustrator 27.8.0, SVG Export Plug-In . SVG Version: 6.00 Build 0)  -->
<svg version="1.1" id="Ebene_1" xmlns="http://www.w3.org/2000/svg" xmlns:xlink="http://www.w3.org/1999/xlink" x="0px" y="0px"
	 viewBox="0 0 200 200" style="enable-background:new 0 0 200 200;" xml:space="preserve">
<style type="text/css">
	.st0{fill:none;stroke:#EFEDE2;stroke-width:4;}
	.st1{fill:#EFEDE2;}
</style>
<path class="st0" d="M84.2,13.3h0.6c0.4,0.2,1.2,0.5,1.6,0.6h0.7l1.6,0.8c0.4,0.2,1.2,0.6,1.6,0.8H91c0.4,0.2,1.2,0.6,1.6,0.8
	l0.7-0.1c0.4,0.2,1.2,0.5,1.7,0.7c1.1,0,2.3,0.1,3.4,0.1c0.6,0.8,1.4,1,2.4,0.6c0.3,0.1,1,0.2,1.3,0.2c0.4,0.1,1.2,0.4,1.6,0.6
	l0.6,0.2c0.2,0.1,0.7,0.4,0.9,0.5l0.6,0.1l0.6,0.2c0.3,0.1,0.8,0.3,1,0.5l0.6,0.3c0.4,0.1,1.2,0.3,1.6,0.4l0.7,0.7l0.6,0.2l0.5,0.2
	l1.1,0.4l0.6,0.3c0.4,0.1,1.2,0.3,1.7,0.5l0.8,0.7l0.6,0.2l0.6,0.2c0.3,0.1,0.8,0.3,1.1,0.4l0.6,0.3c0.4,0.1,1.3,0.4,1.7,0.5
	c0.2,0.2,0.6,0.5,0.7,0.7l0.5,0.2l0.5,0.2c0.2,0.1,0.7,0.3,1,0.4l0.5,0.2c0.2,0.2,0.5,0.5,0.7,0.6l0.5,0.2c0.1,0.2,0.3,0.7,0.4,0.9
	l0.2,0.5c-0.1,0.3-0.4,1-0.5,1.4v0.6c-0.2,0.2-0.5,0.6-0.6,0.8c-0.2,0.2-0.5,0.5-0.7,0.7l-0.4,0.2c-0.2,0.2-0.5,0.5-0.6,0.7
	c-0.2,0.2-0.6,0.4-0.8,0.6c-0.2,0.2-0.6,0.4-0.9,0.6l-0.4,0.3c-0.2,0.2-0.7,0.5-0.9,0.6c-0.2,0.1-0.7,0.4-0.9,0.6l-0.5,0.3
	c-0.2,0.1-0.7,0.4-0.9,0.6L116,37c-0.2,0.2-0.6,0.5-0.8,0.6c-0.2,0.1-0.7,0.4-0.9,0.6l-0.5,0.3c-0.2,0.1-0.6,0.4-0.9,0.6
	c-0.2,0.1-0.6,0.4-0.8,0.6l-0.5,0.2c-0.2,0.2-0.5,0.5-0.6,0.7l-0.7,0.7c-0.2,0.2-0.5,0.6-0.6,0.8s-0.3,0.7-0.4,1l-0.2,0.6
	c-1.1,0.5-1.1,0.9,0.1,1.2c0.1,0.2,0.4,0.7,0.5,1c0.2,0.2,0.5,0.6,0.6,0.8c0.2,0.2,0.5,0.5,0.7,0.7s0.5,0.5,0.7,0.6s0.6,0.5,0.8,0.6
	l0.4,0.3c0.2,0.2,0.6,0.5,0.8,0.6c0.2,0.2,0.7,0.5,0.9,0.6l0.5,0.3c0.2,0.2,0.7,0.5,0.9,0.6c0.2,0.2,0.7,0.5,0.9,0.6l0.5,0.3
	c0.2,0.2,0.7,0.5,0.9,0.6c0.2,0.2,0.6,0.5,0.9,0.6c0.2,0.2,0.5,0.5,0.7,0.7l0.5,0.2c0.2,0.2,0.6,0.5,0.8,0.7
	c0.2,0.2,0.6,0.5,0.7,0.7c0.2,0.2,0.5,0.5,0.7,0.7s0.5,0.6,0.7,0.7c0.2,0.2,0.5,0.6,0.7,0.8s0.5,0.6,0.6,0.8l0.3,0.4
	c0.1,0.2,0.4,0.7,0.6,0.9l0.2,0.5c0.2,0.2,0.5,0.6,0.6,0.8s0.4,0.7,0.5,0.9l0.3,0.5c0.1,0.2,0.4,0.7,0.5,0.9l0.3,0.5
	c0.1,0.2,0.4,0.7,0.5,1l0.3,0.5c0.1,0.2,0.4,0.7,0.5,1l0.3,0.5c0.1,0.3,0.4,0.8,0.5,1l0.3,0.6c0.1,0.4,0.3,1.2,0.4,1.6l0.2,0.6
	c0.2,0.2,0.5,0.6,0.7,0.8l0.2,0.6c0.1,0.4,0.4,1.2,0.6,1.6c0.2,0.4,0.6,1.2,0.8,1.6v0.7c0.2,0.4,0.6,1.2,0.8,1.6
	c0,0.3,0.1,1,0.1,1.4c0.2,0.4,0.5,1.2,0.7,1.6v0.7c0,0.3,0,1,0,1.3c0.2,0.2,0.5,0.7,0.6,0.9l0.1,0.6c-0.5,0.9-0.3,1.7,0.6,2.4
	c0,0.3,0.1,1,0.2,1.4c0,0.5,0,1.5,0,2v0.6l0.6,0.2c0.1,0.5,0.2,1.5,0.2,2c-0.5,1.3-0.4,2.8,0.5,4c0.1,1.2,0.2,2.4,0.3,3.5v0.7
	c-0.1,3.7-0.3,7.5-0.3,11.2v0.6c-0.2,0.2-0.6,0.6-0.8,0.8c-0.2,0.2-0.6,0.5-0.8,0.6l-0.5,0.3c-0.3,0.1-0.7,0.2-1,0.2h-0.6
	c-0.9-0.7-1.3-0.5-1.1,0.6c-0.3-0.1-1-0.3-1.3-0.3l-0.7-0.1c-0.4-0.2-1.3-0.6-1.7-0.9c-0.3-0.1-0.8-0.4-1.1-0.6l-0.5-0.3l-0.3-0.4
	c-0.1-0.2-0.4-0.7-0.5-0.9l-0.2-0.5c-0.1-0.3-0.2-0.8-0.3-1c0-0.3-0.1-0.9-0.1-1.2c0.1-0.2,0.3-0.7,0.4-0.9c0.1-1,0.1-2-0.2-3
	c-0.2-0.2-0.5-0.6-0.6-0.9l-0.2-0.6c-0.1-0.4-0.4-1.2-0.5-1.6c-0.1-0.2-0.3-0.7-0.4-1l-0.3-0.4c-0.1-0.2-0.4-0.5-0.6-0.6l-0.7-0.2
	c-0.3,0-0.9,0-1.1,0.1c-0.2,0-0.5,0.1-0.7,0.1l-0.4,0.1l-0.1,0.5l-0.1,0.5c-0.1,0.2-0.3,0.7-0.4,0.9l-0.2,0.5
	c-0.2,0.4-0.5,1.2-0.6,1.6l-0.2,0.7c-0.9,0.8-1.1,2.1-0.7,3.2c0,0.3-0.1,1-0.1,1.4c-1.1,0.6-1.1,1.9-0.6,2.9v0.6
	c-0.5,1-0.5,2.3,0.6,2.9c0,0.3,0.1,1,0.1,1.4c0.1,0.4,0.4,1.3,0.5,1.8v0.7c0.1,0.3,0.1,0.9,0.2,1.3c0.2,0.2,0.6,0.5,0.7,0.7
	c0.1,0.4,0.3,1.3,0.5,1.7l0.1,0.7c0.2,0.4,0.6,1.2,0.8,1.6v0.7c0.2,0.4,0.6,1.2,0.7,1.6l0.2,0.6c0.1,0.3,0.3,0.8,0.4,1.1l0.1,0.6
	c0,0.5,0,1.4,0.1,1.8c0.1,0.2,0.4,0.6,0.6,0.8c0,0.5,0,1.5,0,2c-0.8,0.8-1,2.1-0.5,3.1c0,0.3-0.1,1-0.2,1.3
	c-0.2,0.4-0.5,1.3-0.6,1.7c0,0.3-0.1,1-0.1,1.4c-0.2,0.4-0.5,1.3-0.6,1.7l-0.1,0.7c-0.2,0.4-0.5,1.2-0.6,1.6l-0.1,0.7l-0.1,0.6
	c-0.1,0.4-0.4,1.2-0.5,1.6v0.7l-0.1,0.7c-1.5,2-1.4,3.4,0.2,4.4l0.2,0.6c0.1,0.3,0.3,0.8,0.5,1l0.3,0.4c0.1,0.2,0.4,0.6,0.5,0.8
	s0.4,0.5,0.5,0.7s0.4,0.5,0.5,0.6c0.1,0.2,0.4,0.5,0.5,0.6c-0.7,0.5-1.1,1.2-1.1,2c-0.3,0-1,0-1.3,0c-0.4,0.1-1.3,0.4-1.8,0.5
	c-0.5,0-1.6,0.1-2.1,0.1h-0.7c-1.5-0.1-2.9-0.1-4.4-0.2c-0.5-1.1-1.3-1.3-2.4-0.8c-0.2-0.2-0.5-0.5-0.6-0.7l-0.5-0.2
	c-0.2-0.1-0.6-0.4-0.8-0.6c-0.2-0.2-0.5-0.5-0.7-0.6c-0.2-0.2-0.5-0.5-0.6-0.7s-0.4-0.6-0.6-0.7l-0.2-0.5c-0.2-0.2-0.5-0.6-0.6-0.8
	l-0.3-0.5c-0.1-0.3-0.4-0.8-0.6-1.1l-0.3-0.6c-0.1-0.4-0.4-1.3-0.6-1.7l-0.2-0.6c-0.2-0.2-0.5-0.6-0.7-0.8l-0.2-0.6
	c-0.1-0.3-0.3-0.8-0.4-1.1l-0.2-0.6L101,148c-0.1-0.2-0.4-0.7-0.5-0.9l-0.2-0.5c-0.1-0.3-0.4-0.8-0.5-1l-0.3-0.5
	c-0.1-0.2-0.4-0.7-0.5-1l-0.3-0.5c-0.1-0.2-0.4-0.7-0.6-0.9c-0.1-0.2-0.4-0.6-0.6-0.8l-0.2-0.5c-0.2-0.2-0.5-0.5-0.7-0.7
	s-0.5-0.6-0.7-0.8s-0.6-0.5-0.7-0.7c-0.2-0.2-0.6-0.5-0.8-0.7l-0.4-0.3c-0.2-0.2-0.6-0.5-0.9-0.6c-0.2-0.1-0.7-0.4-0.9-0.5
	c-0.2-0.2-0.5-0.5-0.7-0.6l-0.5-0.2l-0.4-0.4l-0.5,0.1l-0.5,0.1h-0.5l-0.2-0.5l-0.4,0.1v0.5c-0.2,0.1-0.6,0.4-0.8,0.5l-0.4,0.3
	c-0.2,0.2-0.5,0.5-0.7,0.7s-0.5,0.5-0.6,0.7l-0.2,0.5c-0.1,0.2-0.4,0.7-0.6,0.9l-0.3,0.5c-0.1,0.2-0.4,0.7-0.6,0.9s-0.4,0.7-0.6,0.9
	l-0.3,0.5c-0.1,0.2-0.4,0.7-0.6,0.9s-0.5,0.6-0.6,0.8l-0.2,0.5c-0.1,0.2-0.4,0.7-0.6,0.9l-0.3,0.5c-0.1,0.2-0.4,0.7-0.5,0.9
	c-0.2,0.2-0.4,0.6-0.6,0.8l-0.1,0.5l-0.6,0.8l-0.1,0.5c-0.1,0.2-0.3,0.7-0.5,0.9v0.6c-0.2,0.1-0.6,0.4-0.8,0.6l-0.2,0.6l-0.5,1.8
	l-0.3,0.7c-0.1,0.5-0.4,1.4-0.6,1.9l-0.1,0.7c-0.9,0.5-1.2,1.3-0.7,2.3l0.1,1.3c0.2,0.3,0.7,0.9,0.9,1.3c0.1,0.2,0.4,0.7,0.5,0.9
	s0.4,0.6,0.6,0.7c0.1,0.2,0.4,0.5,0.5,0.7s0.4,0.5,0.5,0.7s0.4,0.6,0.5,0.8l0.3,0.5l-0.3,0.5c-0.2,0.3-0.7,0.8-1,1.1
	c-3.6,0.2-7.3,0.1-10.9,0.2c-0.8-0.9-2.1-1.1-3.1-0.7c-0.3,0-1-0.1-1.3-0.1c-0.4-0.1-1.2-0.4-1.6-0.5l-0.6-0.2
	c-0.2-0.1-0.7-0.4-1-0.5l-0.4-0.3c-0.1-0.2-0.4-0.7-0.5-0.9c-0.1-0.8-0.2-1.7-0.2-2.5c0.1-4.9,0.5-9.9,0.5-14.8
	c0-1.9-0.1-3.8-0.1-5.7c-0.1-2.2-0.2-4.3-0.3-6.4c-0.1-2.4-0.2-4.8-0.2-7.1c1.1-0.9,1.2-2.4,0.6-3.6l0.1-0.6c0.1-0.3,0.1-1,0.2-1.3
	c0.1-0.4,0.4-1.3,0.5-1.7c0-0.3,0.1-1,0.2-1.4c0.2-0.4,0.5-1.3,0.7-1.7v-0.7c0.8-0.6,1.1-1.4,0.6-2.4c0-0.3,0.1-1,0.2-1.3l0.6-0.2
	v-0.6c0-0.5,0-1.5,0-2c0-0.3,0.1-1,0.1-1.4c1-1,1.3-2.5,0.6-3.7v-0.7c0.1-3.7,0-7.5,0-11.2v-0.7c0.7-1.2,0.5-2.8-0.5-3.7
	c0-0.5-0.1-1.6-0.2-2.1c0.4-1,0.3-1.8-0.5-2.5c0-0.3-0.1-1-0.2-1.3v-0.7c-0.1-0.4-0.4-1.1-0.6-1.5v-0.7v-0.6
	c-0.2-0.4-0.5-1.1-0.7-1.5v-0.7c-0.2-0.4-0.5-1.3-0.6-1.7c0-2.2,0-4.4,0-6.5c0.2-0.5,0.5-1.4,0.6-1.8c0.1-0.3,0.3-1,0.3-1.4
	c0.1-0.4,0.3-1.3,0.4-1.7c0.2-0.2,0.5-0.5,0.7-0.7l0.2-0.5l0.2-0.5c0.1-0.2,0.3-0.7,0.4-1l0.2-0.5c0.1-0.2,0.4-0.7,0.5-0.9
	c0.2-0.2,0.5-0.6,0.6-0.8l0.2-0.5c0.1-0.2,0.4-0.7,0.5-0.9l0.3-0.5c0.1-0.2,0.4-0.7,0.6-0.9c0.1-0.2,0.4-0.7,0.6-0.9L66,56
	c0.1-0.2,0.4-0.7,0.6-0.9s0.5-0.6,0.6-0.8l0.2-0.5c0.1-0.2,0.4-0.7,0.6-0.9l0.3-0.5c0.1-0.2,0.4-0.7,0.6-0.9s0.5-0.6,0.6-0.8
	l0.2-0.5c0.1-0.2,0.4-0.7,0.5-0.9l0.3-0.5c0.1-0.2,0.4-0.7,0.5-0.9c0.2-0.2,0.5-0.5,0.6-0.7l0.2-0.5l0.4-0.3v-0.6v-0.6l0.2-0.6
	c1.1-0.9,1.5-2.4,0.7-3.7v-0.7c0.2-3.6,0.3-7.2,0.5-10.9c0.1-0.2,0.4-0.7,0.6-0.9c0-0.3,0-1,0-1.3c0.2-0.2,0.5-0.5,0.7-0.7l0.2-0.5
	c0.1-0.2,0.4-0.7,0.5-0.9c0.2-0.2,0.5-0.5,0.6-0.7l0.2-0.5L77,23c0.1-0.2,0.4-0.6,0.6-0.8c0.2-0.2,0.5-0.5,0.7-0.7l0.2-0.5l0.5-1
	c0.2-0.2,0.5-0.7,0.6-0.9l0.3-0.5c0.2-0.2,0.5-0.7,0.6-0.9c0.2-0.2,0.5-0.7,0.6-0.9c0.2-0.2,0.5-0.6,0.6-0.8l0.2-0.6
	c0.1-0.3,0.4-0.8,0.5-1l0.2-0.5l0.6-0.1C83.5,13.7,83.9,13.4,84.2,13.3L84.2,13.3z"/>
<path class="st1" d="M190.8,159.4v-0.2c-0.1,0-0.2-0.1-0.2-0.2c0-0.1,0.1-0.2,0.1-0.3c0-0.2-0.1-0.2-0.2-0.3c-0.1,0-0.6-0.2-0.9-0.2
	c-0.1,0-0.2-0.1-0.2-0.1s0-0.2,0-0.3c0-0.2-0.5-0.2-0.5-0.4s0.2-0.2,0.3-0.4c0.2-0.4-0.2-0.8-0.2-0.8c-0.1-0.3,0-0.4,0-0.6
	c-0.1-0.4-0.3-0.8-0.3-1.2c-0.3,0-0.4,0.3-0.6,0.4c-0.2,0.2-0.4,0.5-0.5,0.6c-0.1,0-0.4,0.1-0.5,0.2c-0.2,0.2-0.4,0.5-0.7,0.5
	c-0.1,0-0.1-0.2-0.2-0.3c-0.1-0.2-0.6,0-0.6-0.3c0-0.4,0.5-0.8,0.5-1.1c0-0.4-0.7-0.5-0.9-0.5s-0.2-0.2-0.3-0.4
	c-0.1-0.3-0.3-0.5-0.7-0.5c-0.2,0-0.2,0.2-0.3,0.2h-0.6c-0.3,0-0.5-0.1-0.7-0.1c-0.8,0-0.9,0.7-0.9,1.2c0,0.4-0.5,0.9-0.7,1l0,0
	l-0.1,0.1c-0.3,0.2-0.5,0.3-0.5,0.6c0,0.5,0.5,0.3,0.6,0.7c0.1,1.1-1.5,1.6-1.7,1.6c-0.1,0-0.8,0.2-0.8,0.3c-0.3,1-0.2,2-1.2,2.3
	c-0.1,0-0.2,0.2-0.3,0.2s-0.6-0.7-0.6-0.8c0-0.7,0.6-1.3,0.6-1.8c0-0.1,0-0.2,0-0.2c-0.4-0.1-0.8,0-1.1,0c-0.4,0-0.6-0.4-0.8-0.5
	s-0.2,0-0.4-0.1c-0.5-0.2-0.6-0.9-1.4-0.9c-0.3,0-0.4,0-0.6,0.1c0,0-0.3,0-0.3-0.1c0-0.4,0.2-0.7,0.2-1c0-0.2-0.3-0.2-0.5-0.2
	c0.1,0,0.4-0.7,0.4-0.8c0.4-0.6,1-0.8,1.5-1.3c0.7-0.7,2.1-0.2,2.7-1c0.1-0.2,0.3-0.2,0.6-0.2c0.2,0,0.4-0.3,0.5-0.3
	c0.6-0.4,1.6-0.9,2-1.4c0.1,0,0.4,0,0.4,0c0.2,0,0.4,0.2,0.6,0.2c0.1-0.2,0.9-0.6,1.2-0.7c0.3-0.1,0.7-0.2,0.7-0.4s-0.1-0.2-0.1-0.4
	c0-0.5,0.8-0.1,0.8-0.6c0-0.3-0.4-0.4-0.6-0.5h-0.9c-0.1,0-0.3,0.1-0.3,0.3c0,0.1,0,0.1,0,0.2c-0.3,0.1-0.8,0.4-1,0.6
	c-0.1-0.1-0.1-0.1-0.2-0.2c-0.3,0.3-0.4,0.7-0.7,0.7c-0.1,0-0.2-0.3-0.2-0.3c0-0.3,0.4-0.4,0.6-0.7c0.1-0.3-0.2-0.2-0.3-0.2
	c-0.2,0-0.4,0.2-0.7,0.2c-0.2,0-0.1-0.2-0.1-0.3c-0.1-0.2-0.4-0.2-0.4-0.4c0.3-0.2,0.3-0.2,0.3-0.5v-0.7c0-0.3,0.5-0.6,1-0.6
	c0.7,0,1.1-0.4,1.7-0.6v-0.1c-0.1-0.2-0.9-0.2-1.3-0.2c-0.8,0-1.1,0.2-1.5,0.6c-0.2,0.2-0.3,0.7-0.4,0.8c-0.5,0.2-1.5,0.7-1.5,1.3
	c0,0.2,0.7,0,0.3,0.6c-0.2,0.3-0.8,0.4-1,0.7c-0.7,0.9-0.7,0.4-0.7,0.3c0-0.2,0.3-0.5,0.3-0.5c-0.4,0-0.5-0.1-0.8-0.1
	s-0.5,0.5-1,0.4h-1.3c0,0-1-0.1-1-0.5c-0.1,0-0.2-0.1-0.4-0.1c-0.5,0-1.1,0.2-1.4,0.3v0.2c0,0.1-0.1,0.4-0.3,0.4
	c-0.3,0-0.4-0.4-0.7-0.4c-0.7,0-1.1,0.3-1.9,0.3c-0.2,0-0.4,0-0.4-0.2c0-0.3,0.5-0.2,0.6-0.5c0.1-0.5-0.8-0.2-0.8-0.2
	c-0.3,0-0.7-0.1-0.8-0.3c-0.6-0.1-0.9-0.4-1.5-0.4c-0.4,0-0.9,0.5-0.8,0.2c0.1-0.4-0.3-0.4-0.3-0.4c-0.1,0.1-0.5,0.4-0.7,0.4
	c-0.3,0-0.2-0.3-0.2-0.4h-0.3c-0.2,0-0.8,0.1-1.2,0.1c-0.7,0-1,0-1.6,0.2c-0.6,0.3-1.1,0.1-1.1,0.1c-0.5,0.1-1,0.4-1.5,0.4
	c-0.2,0-0.3-0.2-0.5-0.3c-0.5-0.2-1,0-1.3-0.3H154c-0.7-0.3-1.7,0.1-2.1-0.3h-1.4c0,0-0.2-0.1-0.2-0.2c-0.7,0-1-0.2-1.5-0.2
	c-1.2,0-3.1,0.6-4.3,0.9c-0.6,0.2-1,0.7-1.7,0.7c-0.2,0-0.5-0.1-0.6-0.1c-0.2,0.1-0.4,0.3-0.6,0.4c0,0.3-0.1,0.5,0,0.6v0.2
	c0,0.2,0.2,0.2,0.3,0.2c0,0.4-0.1,0.5-0.5,0.5c-0.3,0-0.5,0-0.5-0.3c-0.3,0-0.5-0.1-0.8-0.2c-0.7,0.5-1.3,0.9-2,1.4
	c0.4,0.1,1,0.3,1.5,0.3c0.3,0,0.7-0.2,1.1-0.3c-0.3,0.8-2.3,1.2-3.4,1.2c-0.3,0-0.5,0-0.6-0.2c-0.6,0.4-1.1,0.9-1.7,1.4
	c0.1,0.5-0.1,1.1,0.4,1.1c0.2,0,0.5-0.1,0.7,0c0,0.3-0.7,0.6-0.9,0.9h0.5c0.3-0.1,0.4-0.3,0.7-0.3s0.2,0.2,0.2,0.4h0.3
	c0.1-0.1,0.2-0.2,0.3-0.3c0.1,0.1,0.2,0.3,0.2,0.3c-1,0.6-1.6,1.1-2.7,1.3c-0.4,0-0.6,0.5-0.9,0.5h-0.2c-0.6,0-2.6,0.6-3.1,1h0.3
	c0.7,0,1.5-0.7,2.2-0.7c0.1,0,0.2,0.2,0.2,0.2c1.2-0.6,2.4-1.1,3.7-1.3c0.3,0,0.6-0.4,0.7-0.5c0.7-0.3,1.3-0.2,1.9-0.5
	c0.4-0.2,0.6-0.8,0.9-0.8c0.6,0,1.7-1,2.4-1c-0.6,0.6-1.2,0.6-1.6,1.2h0.6c0.5-0.4,0.9-0.6,1.5-0.6c0.5,0,1-0.4,1.3-0.7h0.3
	c0.1,0.5,0.8,0.7,1.2,0.7c0.3,0,0.8-0.1,1-0.2h0.1c0,0.2,0.2,0.2,0.3,0.2c0.1,0.3,0.6,0,0.8,0.2s0.1,0.6,0.3,0.6
	c-0.2,0.3-0.6,0.8-0.3,1.2c0.2,0.3,0.5,0.5,0.5,0.6c0.1,0.3,0,0.5,0.1,0.8l0,0c-0.1,0-0.2,0.1-0.2,0.2c0.3,0,0.7,0.1,0.7,0.2
	c0,0.4-0.6,0.6-0.3,0.7c0.7,0.4,0.1,0.6,0.2,0.6c0.5,0.1,0.4,0.4,0.4,0.4c-0.1,0.2-0.3,0.3-0.3,0.5c0,0.3,0.2,0.6,0.5,0.6
	c0.6,0.4,1,0.9,1.1,0.9c0,0-0.1,0-0.1,0.1s0.1,0.2,0,0.2c-0.2,0.2-0.2,1-0.6,1l0,0c0-0.3-0.3-0.3-0.6-0.3c0,0-1.2,2.8-2.1,3.4
	c-0.3,0.2-0.7,1.2-0.7,1.2s-0.1,0.7-0.6,1.3c0.1,0.1,0,0.3,0,0.4v0.2c-0.1,0-0.1,0.2-0.1,0.3c0,0.3,0.2,0.8,0.2,0.8
	c0.1,0,0.3-0.1,0.3-0.1c0.1,0,0.3,0.1,0.3,0.1c-0.2,0.1-0.4,0-0.4,0.2c0,0.1,0,0.1,0,0.2c-0.1,0-0.2,0-0.2-0.1v0.1
	c0,0.2,0,0.5,0.2,0.5v0.2c0,0.1,0,0.1-0.1,0.2l0,0c0,0.2-0.2,0.3-0.2,0.4c0,0.6,0.3,1,1,1.2c0.5-0.1,0.9,1.1,0.9,1.5
	c0,0.2-0.1,0.4,0.1,0.5v1c-0.1,0.2,0,0.3,0,0.5c0,0.6,0.8,0.7,0.8,1.2c0,0.3-0.6,0.4-0.6,0.6c0,0.1,0,0.1,0,0.2
	c0.1,0.2,0.6,0.7,1,0.7c0,0.3,0.4,0.3,0.4,0.7c0,0.2-0.2,0.3-0.2,0.6c0,0.4,0.5,0.4,0.7,0.8l0.5,0.7c0.2,0,0.4-0.2,0.4-0.4
	c0-0.5-0.4-0.7-0.7-1.1c0.1-0.1-0.1-0.5-0.1-0.8c-0.1-0.4-0.1-0.6-0.3-0.8c0-0.1-0.2-0.1-0.2-0.3c0-0.7-0.2-1.1-0.4-1.6
	c0-0.1-0.2-0.1-0.2-0.2c-0.2,0-0.3-0.1-0.3-0.4c0-0.3,0-1.2,0.3-1.2c0.7,0,0.9,0.8,0.9,1.4v0.1c-0.1,0.3-0.2,0.2-0.2,0.5
	c0,0.1,0.2,0.2,0.3,0.2c0,0.3,0.2,0.6,0.5,0.6c0.1,0.3,0.2,0.7,0.5,0.9c0,0,0.3,0.1,0.3,0.3s-0.1,0.1-0.1,0.3c0,0.3,0.6,0.9,0.9,1.2
	c0.4,0.4,0.5,0.9,1,1.4v0.6c0,0.1,0.1,0.2,0.1,0.4c0,0.1,0,0.4-0.2,0.4v0.1v0.2h-0.1v0.2c0.2,0.8,0.8,0.8,1.2,1.5
	c0.2,0.1,0.7,0.2,1,0.3c0.3,0.2,0.6,0.7,1.1,0.8c0.7,0.2,1.6,0.9,2.3,0.9c0.4,0,0.6-0.5,1-0.5c0.6,0,1.2,0.6,1.4,1
	c0.1,0.3,0.6,0.8,1,0.8c0.3,0,0.4,0,0.7,0.1c0.1,0.2,0.9,0.3,1,0.3h0.6l0,0c0,0.3,0.6,1,0.8,1.2c0.1,0.1,0.4,0.3,0.4,0.5
	s-0.2,0.3-0.2,0.6c0,0.2,0.3,0.4,0.5,0.4h0.1c0-0.1-0.1-0.2-0.1-0.3c0.3,0,0.7,0.6,1,0.8c0,0.1-0.1,0.1-0.1,0.3c0,0,0.9,0.4,1,0.4
	c0.4,0.1,0.3,0.3,0.8,0.3c0,0.2,0,0.3,0.2,0.3c0.3,0,0.4-0.2,0.4-0.5c-0.1,0-0.3-0.1-0.3-0.1s0.7-0.7,0.8-0.7c0.4,0,0.6,0.3,0.8,0.5
	c-0.1,0-0.1,0-0.2,0v0.2c0.1,0.2,0.1,0.3,0.2,0.4c0,0,0.5-0.3,0.5-0.4c0-0.2-0.1-0.3-0.1-0.5h0.1h-0.1c-0.2-0.3-0.9-0.8-1.4-0.8
	s-0.5,0.6-1.1,0.6c-0.2,0-0.2-0.1-0.4-0.2c-0.4,0-1.2-1.1-1.2-1.8c0-0.5,0.3-0.4,0.3-1c0-0.5,0.3-1,0.3-1.4c0-0.5-0.7-0.7-0.7-1.1
	h-2c-0.3,0-0.4,0.2-0.8,0.2c0-0.3,0.3-0.6,0.3-1c0-0.1,0-0.2,0-0.3c0.9-0.4,0.7-1.7,1.2-2.3c0-0.1,0.3-0.5,0.3-0.5
	c0-0.1-0.1-0.3-0.2-0.3c-0.7,0-1.9,0-2.3,0.5c-0.4,0.5-0.5,1.1-0.9,1.7c-0.8,0-1.3,0.3-2,0.3c-1.1,0-1.8-1.9-1.8-2.9
	c0-0.7,0.5-2.1,0.9-2.7c-0.3-0.1-0.3-0.1,0,0l0,0c0-0.3-0.1-1,0.1-1.3s0.7-0.6,0.7-1c0.6,0,0.8-0.2,1.2-0.4c0.2-0.1,0-0.3,0.3-0.3
	c0,0,0.1,0,0.3,0s0.1-0.2,0.4-0.2c0.3,0,0.5,0.2,0.8,0.2c0.2,0,0.3,0,0.5-0.1c0.1,0.2,0.3,0.4,0.6,0.4c0.2,0,0.2-0.1,0.5-0.1
	c0.2,0,0.2,0.2,0.4,0.2l0.1-0.1v-0.1c-0.1,0-0.2-0.1-0.2-0.2V177c0.2,0,0.6,0,0.8-0.1l0.5,0.1c0.1,0,0.2,0,0.3-0.1h0.7
	c0,0.1,0.6,0.2,0.6,0.3s0,0.2,0,0.2h0.1c0.3,0,0.4-0.2,0.7-0.3c0.2,0.1,0.5,0.1,0.5,0.4c0,0.2,0.1,0.4,0.3,0.5
	c-0.1,0.3-0.3,0.3-0.3,0.6c0,0.1,0.1,0.2,0.2,0.3c-0.1,0-0.1,0.1-0.1,0.2c0,0.3,0.1,0.5,0.3,0.7c0,0.1,0,0.2,0,0.4
	c0,0.3,0.4,0.7,0.6,0.7h0.2c0-0.2,0.1-0.4,0.2-0.6l0,0c0-0.2,0.1-0.3,0.1-0.5c0-0.3,0.1-0.5,0.1-0.9c0-0.5-0.3-1-0.3-1.7
	c0-0.8,0.4-1.4,0.9-1.9c0.2,0.1,0.3-0.2,0.6-0.3c0.5-0.2,0.4-0.8,1-0.8V174h0.2c0.3-0.2,0.3-0.6,0.8-0.6c0.1,0,0.3,0,0.4-0.1
	c-0.2-0.3,0.1-0.3,0.5-0.5l0,0c0.1-0.2,0.3-0.2,0.4-0.4c-0.2-0.2,0-0.5-0.2-0.7c-0.1-0.1-0.2-0.1-0.3-0.2c0.1,0,0.2,0,0.3,0
	c-0.2-0.1,0-0.1,0-0.3c0,0,0.1,0.1,0.2,0.1c0.1,0,0.2-0.1,0.3-0.1c0-0.2,0-0.4-0.2-0.7v-0.2c0.1,0.1,0.1,0.4,0.4,0.4
	c0.2,0,0.2-0.2,0.2-0.4s0-0.5,0-0.8c0,0,0,0.2,0.1,0.2c-0.1,0.1,0,0.1,0.1,0.3c0.1-0.2,0.2-0.3,0.4-0.4l0,0c0.1-0.1,0.4-0.6,0.5-0.6
	c0-0.2-0.1-0.4,0.1-0.5c0,0,0.3,0,0.4,0c0.3,0,0.4,0,0.6-0.1h-0.8c0.4-0.2,0.9-0.1,1.3-0.3c0.1,0,0.2-0.3,0.3-0.3
	c0.3,0,0.7,0.2,0.9-0.1l-0.1-0.1c0,0-0.1,0.1-0.2,0.1h-0.2c0.1-0.1,0-0.2,0-0.4c0-0.3,0.3-0.5,0.3-0.8c0.6-0.5,1.7-0.7,2.5-1.1
	c0.6-0.1,1.1-0.2,1.5-0.3c-0.1,0.6-1.2,0.4-1.2,1.1c0,0.2,0.1,0.3,0.3,0.3c0.6,0,0.6-0.5,1-0.7s0.6-0.1,1-0.2
	c0.7-0.2,1.1-0.3,1.5-0.7c0.2-0.2,0.6-0.2,0.6-0.5c0-0.1-0.2-0.1-0.2-0.2c0.1-0.1,0.2-0.2,0.2-0.3v-0.1H187c-0.2,0-0.3,0.3-0.4,0.4
	c-0.2,0.3-0.6,0.6-1,0.6c-0.5,0-1.2-0.3-1.2-0.7c0-0.3,0.4-0.6,0.5-0.8h-0.5c0.2-0.4,0.9-0.2,0.9-0.7c0-0.3-0.5-0.4-0.9-0.4
	c-0.6,0-1.6,0.4-2.2,0.8c0.5-0.5,0.8-0.9,1.6-1.3c0.8-0.4,0.5-0.6,2.4-0.5l1.1,0.3c1.3,0,1.6-1.1,2.7-1.1h0.3c0.2,0,0.7-0.1,0.8-0.4
	c0-0.2,0.2-0.6,0.2-0.8V159L190.8,159.4L190.8,159.4z M170.7,166.5c-0.3,0.5,0,1.7-1.1,1.7c-0.1,0-0.3-0.1-0.3-0.2
	c0-0.7,0.7-1.5,1-2c0-0.4,0.7-1,1.1-1h0.8c0.3,0,0.3-0.2,0.6-0.3c-0.5-0.2-0.9,0-1.2-0.2c-0.3-0.1-0.7,0.1-0.7-0.5
	c-0.1,0.1-0.2,0.1-0.3-0.1c0,0,0.1-0.1,0.2-0.1c-0.7,0.1-1.3,0.4-1.9,0.4c0,0-0.3,0-0.5,0c0.4-0.5,0.8-0.4,1.3-0.8
	c1-0.3,1.4-0.9,2.5-0.9c0.1,0,0.3,0.2,0.3,0.2c0,0.1,0,0.1,0,0.2c0,0.2,0.2,0.5,0.4,0.5c0,0.1,0,0.2,0,0.3c0,0.2,0.2,0.2,0.2,0.4
	s-0.2,0.3-0.2,0.4c0.5,0.1,0.8,0,1.3,0c0.3,0,0.9,0.7,0.9,1.1c0,0.2-0.2,0.3-0.3,0.3c-0.3,0-0.5-0.2-0.6-0.5
	c-0.3,0.6-0.6,1.3-1.1,1.6v-0.1c0-0.1-0.2-0.1-0.2-0.2c0-0.2,0.1-0.2-0.1-0.5c-0.1,0.1-0.2,0.1-0.3,0.3h-0.3c0.1-0.3,0.7-0.5,0.7-1
	c0-0.3-0.3-0.3-0.3-0.3c-0.1,0-0.3,0-0.5,0C171.6,165.8,171.1,166,170.7,166.5L170.7,166.5z M175.9,167c-0.2,0-0.3-0.2-0.5-0.2
	c-0.5,0-0.5,0.5-0.7,0.7c-0.3,0.2-1.7,0.9-2.1,0.9c-0.2,0-0.6-0.1-0.6-0.2c0-0.1,0-0.2,0.1-0.3c0,0,0.1,0,0.2,0
	c0.6,0,0.8-0.6,1.4-0.6c0.2,0,0.1,0.1,0.3,0v0.2h0.2c0-0.3,0.5-0.5,0.7-0.5c0-0.5,0.7-0.6,1.2-0.6c0.2,0,0.8,0.1,1.3-0.2
	C176.9,166.5,176.5,167,175.9,167L175.9,167z M177.5,166.1L177.5,166.1l0.1-0.1L177.5,166.1L177.5,166.1z"/>
</svg>
