<?xml version="1.0" encoding="utf-8"?>
<!-- Generator: Adobe Illustrator 27.8.0, SVG Export Plug-In . SVG Version: 6.00 Build 0)  -->
<svg version="1.1" id="Ebene_1" xmlns="http://www.w3.org/2000/svg" xmlns:xlink="http://www.w3.org/1999/xlink" x="0px" y="0px"
	 viewBox="0 0 200 200" style="enable-background:new 0 0 200 200;" xml:space="preserve">
<style type="text/css">
	.st0{fill:none;stroke:#8673B3;stroke-width:4;}
	.st1{fill:#8673B3;}
</style>
<g id="layer1">
	<g>
		<g>
			<path class="st0" d="M41.6,19.2c-1.4,0.2-1.4,0.2-1.4,0.3c0,0.1,0.2,0.3,0.4,0.5s0.4,0.5,0.4,0.5l0.1,0.1
				c0.4,0.2,0.1,0.2-2.7,0.6c-0.8,0.1-1.1,0.2-1.1,0.3c0,0.2,2.4,2.6,2.9,2.9c0.1,0.1,0.3,0.2,0.3,0.2s0.2,0.2,0.3,0.3
				c0.2,0.1,0.4,0.2,0.4,0.3c0.1,0.1,1.4,0.9,1.9,1.2c0.3,0.1,0.6,0.4,0.8,0.5l0.3,0.2h-0.6c-0.3,0-0.6-0.1-0.8-0.1
				c-0.1,0-0.4-0.1-0.5-0.1c-0.2,0-0.4,0-0.5-0.1s-0.6-0.1-1-0.2c-1-0.1-5.7,0-5.7,0.1c-0.1,0.1,0.5,0.9,1.3,1.8
				c0.4,0.4,1.4,1.2,1.6,1.3c0.2,0.1,0.2,0.2-0.1,0.2c-0.1,0-1.1-0.1-2.1-0.1h-1.9L34,30c0.2,0.7,2.2,2.8,3.1,3.3
				c0.3,0.2,1.1,0.8,1.2,0.8c0,0,0.2,0.1,0.3,0.2c0.3,0.2,1,0.5,1.8,1c0.3,0.2,0.7,0.4,1,0.5c0.2,0.1,0.5,0.2,0.6,0.3
				c0.4,0.2,2.7,1.2,2.8,1.2c0,0,0.3,0.1,0.7,0.2c0.3,0.1,0.7,0.3,0.9,0.4c0.2,0.1,0.4,0.2,0.6,0.3l0.3,0.2l-0.7-0.1
				c-0.4,0-0.8-0.1-0.8-0.1c-0.1-0.1-1-0.2-3-0.3c-0.7-0.1-1.6-0.1-1.9-0.2c-0.3,0-1.7-0.1-3.1-0.1c-2.1,0-2.5,0-2.5,0.1
				s0.2,0.2,0.4,0.4s0.4,0.3,0.4,0.3s0.1,0.1,0.2,0.1c0.2,0.1,0.9,0.5,1,0.6s0.2,0.1,1.2,0.7c0.4,0.2,0.8,0.5,0.9,0.6
				c0.2,0.2,0.8,0.5,1.4,0.7c0.2,0.1,0.5,0.3,0.7,0.3c0.1,0.1,0.4,0.2,0.5,0.2s0.3,0.1,0.4,0.2c0.1,0.1,0.2,0.2,0.3,0.2
				s0.3,0.1,0.6,0.2c0.2,0.1,0.6,0.3,0.8,0.4c0.2,0.1,0.4,0.2,0.5,0.2s0.3,0.2,0.5,0.2c0.2,0.1,0.5,0.2,0.7,0.3s1.4,0.6,2.1,0.8
				c0.1,0,0.4,0.2,0.6,0.3c0.2,0.1,0.5,0.2,0.5,0.2c0.1,0,0.2,0.1,0.4,0.1c0.1,0.1,0.4,0.2,0.7,0.3c0.2,0.1,0.6,0.2,0.7,0.3
				c0.2,0.1,0.5,0.2,0.7,0.3s0.5,0.2,0.6,0.2c0.1,0.1,0.3,0.1,0.4,0.2c0.1,0,0.5,0.2,0.9,0.4s0.7,0.3,0.8,0.3s0.1,0,0.1,0.1
				c0,0,0.1,0.1,0.2,0.2c0.2,0.1-0.1,0.1-1.1,0.1c-0.7,0-1.4,0.1-1.4,0.1c-0.1,0-0.6,0.1-1.2,0.1c-0.6,0-1.4,0.1-1.8,0.2
				c-0.4,0.1-1.1,0.2-1.4,0.2c-0.4,0-0.7,0.1-0.8,0.1s-0.2,0.1-0.3,0.1S46.1,48,46,48.1c-0.2,0.1-0.4,0.2-0.5,0.2
				c-0.2,0-0.6,0.2-0.6,0.3s0.9,1.2,1.4,1.7c0.6,0.6,1.7,1.4,2.2,1.7c0.2,0.1,0.5,0.3,0.8,0.5c0.6,0.3,1.9,1,2.2,1.1
				c0.1,0,0.2,0.1,0.3,0.2c0.1,0.1,0,0.2-0.2,0.3c-1.1,0.6-1.7,1-1.7,1.3c0,0.2,0.6,1.2,0.9,1.6c0.5,0.5,1.1,1.2,1.3,1.3
				c0.1,0,0.4,0.3,0.7,0.5s0.7,0.4,0.9,0.5s0.3,0.2,0.3,0.2s0.3,0.1,0.6,0.3c0.7,0.2,1.4,0.5,1.2,0.5c-0.1,0-0.4,0.3-0.8,0.7
				c-0.6,0.6-0.6,0.7-0.6,1c0.2,0.9,1.3,2.3,2.3,3.1c0.7,0.5,2.3,1.1,3.5,1.3c0.2,0,0.3,0.1,0.3,0.1S60.3,66.8,60,67
				c-0.7,0.7-1.1,1.1-1.2,1.3c-0.8-0.3-0.4,0.3,0,0.7c0.4,0.5,1.4,1.1,2.1,1.4c0.5,0.2,0.7,0.4,0.7,0.4c0,0.1-0.1,0.1-0.1,0.1
				s-0.1,0.1-0.2,0.2c-0.1,0.2-0.1,0.3,0,0.5c0.2,0.4,0.7,1.1,1.2,1.5c0.4,0.4,1.4,0.9,2,0.9c0.2,0,0.5,0.1,0.5,0.1
				c0.2,0.1,3.5,0.1,3.6-0.1c0.1-0.1,0.4-0.1,0.8-0.2c0.7-0.1,1.4-0.2,2.4-0.5c1.2-0.3,1.3-0.4,1.6-0.5c0.4-0.2,0.4,0-0.3,0.6
				c-1.5,1.2-3.2,3-3.5,3.7c-0.1,0.1-0.1,0.2-0.2,0.3c0,0-0.1,0.2-0.2,0.3C69.1,77.9,69,78,69,78c-0.1,0-0.1,0.1-0.1,0.1
				c0,0.1-0.1,0.4-0.3,0.7c-0.3,0.7-0.5,1.9-0.4,2.7c0.1,0.4,0.1,0.6,0.3,0.7c0.4,0.3,1.2,0.5,1.7,0.5c0.3,0,0.5,0,0.5,0.1
				s0,0.2-0.1,0.4c-0.3,0.5-0.3,0.8-0.4,1.6c-0.1,1.4-0.2,2.2-0.4,3c-0.1,0.4-0.2,0.8-0.1,0.8c0.2,0.1,1,0.3,1.8,0.3h0.9V90
				c0,0.6-0.1,1.3-0.1,1.5C72.2,92,72,93,72,93.2c0,0.1,0.1,0.2,0.5,0.2c0.8,0,2.5-0.5,2.8-0.8c0.1-0.1,0.2-0.1,0.3-0.1
				c0.1,0,0.3-0.1,0.6-0.2c0.2-0.1,0.5-0.2,0.5-0.2s0,0.3,0,0.5c-0.1,0.3-0.1,0.9-0.1,1.5c0,0.7-0.1,1.5-0.2,2.3
				c-0.2,1-0.2,1.3-0.1,1.3c0.1,0.1,1.2,0,1.5-0.1c0.1,0,0.2-0.1,0.3-0.1c0.2,0,1.5-0.7,2-1.1c0.3-0.2,0.5-0.4,0.5-0.4
				s0.3-0.2,0.5-0.3c0.3-0.2,0.4-0.3,0.4-0.2c0,0.1-0.2,0.9-0.3,1.2C81,97.1,81,97.5,81,98.3c0.1,1.9,0.1,3,0,3.6
				c-0.1,0.8,0,0.9,0.8,0.8c0.6-0.1,0.9-0.2,1.4-0.4c0.3-0.1,0.3-0.1,0.4,0s0.1,2.1,0,2.9l-0.1,0.5l0.3,0.1c0.2,0,0.6,0,0.9-0.1
				s0.6-0.1,0.6-0.1s0,0.8,0,1.8s0,1.8,0,1.9s0.2,0.1,0.8,0.1c0.4,0,0.8-0.1,1-0.1l0.3-0.1v1.8c0,1.7,0,1.8,0.2,1.8
				c0.1,0,0.2,0,0.2-0.1c0,0,0.3-0.1,0.7-0.1c0.6-0.1,1-0.2,1.6-0.4c0.1-0.1,0.4-0.2,0.5-0.2s0.3-0.1,0.4-0.1c0.2,0,0.2,0,0.2,1.7
				v1.7h0.6c0.3,0,0.9-0.1,1.2-0.1c0.7-0.2,1.9-0.7,2-0.9c0.1-0.2,0.3-0.1,0.4,0.3c0.1,0.6,0.3,0.8,0.7,0.8c0.4,0,1.7-0.4,1.9-0.6
				c0.2-0.1,0.3-0.1,0.2,0.1c0,0.1-0.1,0.3-0.2,0.6c-0.1,0.3-0.2,0.5-0.2,0.6c0,0-0.2,0.3-0.3,0.7c-0.1,0.3-0.3,0.6-0.3,0.7
				c-0.1,0.1-0.1,0.2-0.1,0.3c0,0.1-0.1,0.3-0.2,0.4s-0.2,0.5-0.3,0.8c-0.1,0.3-0.2,0.6-0.3,0.7c-0.1,0.2-0.4,0.8-0.4,1
				c0,0.1-0.1,0.2-0.1,0.2c-0.1,0.1-0.2,0.3-0.2,0.4c0,0.2-0.2,0.5-0.3,0.9c-0.1,0.3-0.3,0.6-0.3,0.6s-0.1,0.2-0.2,0.3
				c-0.1,0.1-0.2,0.4-0.3,0.7c-0.1,0.2-0.1,0.5-0.2,0.5c0,0.1-0.2,0.3-0.3,0.6c-0.1,0.3-0.3,0.8-0.5,1.1c-0.1,0.3-0.3,0.6-0.3,0.7
				s-0.1,0.2-0.1,0.4c-0.1,0.1-0.2,0.5-0.4,0.8c-0.1,0.3-0.3,0.7-0.4,0.8c-0.1,0.1-0.1,0.3-0.1,0.4c0,0.1-0.1,0.2-0.1,0.2
				c-0.1,0.1-0.2,0.3-0.2,0.4c0,0.2-0.1,0.5-0.3,0.8c-0.1,0.3-0.3,0.7-0.4,0.9c-0.1,0.3-0.2,0.6-0.3,0.7c-0.1,0.1-0.1,0.3-0.1,0.4
				c0,0.1-0.1,0.2-0.1,0.2c-0.1,0.1-0.1,0.2-0.1,0.3s-0.1,0.3-0.2,0.5c-0.2,0.4-1,2.1-1.1,2.4c-0.1,0.1-0.2,0.4-0.3,0.7
				c-0.1,0.3-0.4,0.9-0.7,1.4c-0.2,0.5-0.5,1-0.6,1.1s-0.2,0.3-0.3,0.5c-0.1,0.2-0.2,0.4-0.2,0.4s-0.2,0.2-0.3,0.4
				c-0.3,0.7-0.7,1.5-0.8,1.6c-0.1,0.1-0.2,0.3-0.2,0.4c-0.1,0.2-0.1,0.3-0.2,0.3c0,0-0.1,0.1-0.1,0.2c0,0.1-0.2,0.4-0.3,0.6
				c-0.3,0.5-0.5,0.9-0.8,1.4c-0.1,0.3-0.3,0.4-0.3,0.4s-0.1,0.1-0.2,0.3c-0.1,0.3-0.4,0.9-1.4,2.4c-0.4,0.6-0.7,1.1-0.7,1.1
				s-0.1,0.2-0.2,0.3s-0.3,0.3-0.4,0.5s-0.2,0.4-0.3,0.5c-0.1,0.1-0.2,0.2-0.2,0.4c-0.1,0.1-0.4,0.6-0.7,1.1c-0.3,0.4-0.6,1-0.8,1.2
				c-0.1,0.2-0.4,0.6-0.5,0.8c-0.2,0.2-0.4,0.5-0.5,0.7s-0.2,0.3-0.2,0.3s-0.3,0.3-0.5,0.7s-0.5,0.8-0.7,0.9
				c-0.1,0.1-0.2,0.3-0.2,0.3s-0.1,0.2-0.2,0.3s-0.3,0.4-0.5,0.6c-0.4,0.5-1.1,1.6-1.5,2c-0.7,0.9-0.9,1.1-0.9,1.2
				c0,0-0.2,0.3-0.5,0.6s-0.6,0.7-0.7,0.9c-0.5,0.6-1.4,1.8-1.7,1.9c-0.1,0.1-0.2,0.2-0.2,0.3s-0.1,0.1-0.1,0.1
				c-0.1,0-0.2,0.1-0.3,0.3c-0.3,0.5-4.4,4.8-7.1,7.5c-0.7,0.7-1.2,1.2-1.2,1.2c0.1,0.1,1-0.3,1.5-0.6c0.3-0.2,0.7-0.4,1-0.5
				c0.3-0.1,0.5-0.3,0.6-0.4c0.1-0.1,0.2-0.1,0.2-0.1c0.1,0,0.4-0.2,0.8-0.5c0.7-0.5,0.9-0.7,1.9-1.6c0.8-0.7,2.7-2.5,3.5-3.5
				c0.4-0.4,0.8-0.9,1.1-1.2c0.2-0.3,0.5-0.6,0.7-0.8c0.3-0.4,1.1-1.3,1.2-1.2c0,0-0.3,0.6-1.1,1.9c-0.3,0.4-0.5,0.8-0.5,0.8
				s-0.1,0.2-0.3,0.4c-0.2,0.2-0.3,0.4-0.3,0.5c0,0-0.1,0.3-0.3,0.5c-0.2,0.3-0.4,0.6-0.4,0.7c-0.1,0.2-0.2,0.5-0.5,0.8
				c-0.1,0.2-0.2,0.4-0.2,0.5c-0.1,0.2,0,0.2,0.2-0.1c0.4-0.5,1.1-1.3,1.5-1.8c0.2-0.2,0.4-0.4,0.4-0.5c0,0,0.3-0.3,0.5-0.6
				s0.5-0.7,0.6-0.8s0.3-0.4,0.5-0.6c0.2-0.2,0.4-0.5,0.5-0.6c0.1-0.2,0.6-0.8,1.1-1.5c0.2-0.2,0.5-0.6,0.7-0.8s0.3-0.4,0.3-0.5
				c0,0,0.2-0.3,0.4-0.5c0.2-0.2,0.5-0.7,0.7-1s0.6-0.9,0.9-1.3c1.2-1.7,1.7-2.4,2.1-3c0.2-0.4,0.5-0.8,0.6-0.9
				c0.4-0.6,1-1.5,1.1-1.8c0.1-0.1,0.2-0.3,0.3-0.3l0.1-0.1c0-0.1,0.1-0.3,0.2-0.4c0.2-0.3,0.2-0.3,0.2-0.1c0,0.1,0,0.2-0.1,0.3
				c0,0-0.1,0.2-0.1,0.4c-0.1,0.5-0.2,0.9-0.4,1.3c-0.1,0.1-0.1,0.3-0.1,0.4c0,0.2-0.5,1.2-1,2c-0.2,0.3-0.4,0.6-0.4,0.7
				c-0.5,0.9-2.2,3.4-2.6,3.9c-0.2,0.2-0.4,0.5-0.5,0.7s-0.4,0.5-0.6,0.8s-0.5,0.7-0.6,0.8c-0.1,0.2-0.3,0.4-0.4,0.6
				c-0.1,0.1-0.3,0.3-0.4,0.5c-0.2,0.3-0.8,1.1-1.9,2.3c-1,1.1-1.8,2.2-1.8,2.5c0,0.1,0.4,0,0.8-0.2c0.8-0.3,1.9-0.9,2.4-1.4
				c0.1-0.1,0.3-0.3,0.4-0.4c0.6-0.5,0.8-0.6,0.8-0.7c0-0.1,0.2-0.2,0.4-0.4c0.4-0.3,1.9-1.7,2.5-2.3l0.4-0.4l0.2,0.2
				c0.1,0.1,0.2,0.2,0.3,0.2c0.1,0,0.2-0.1,1.6-1.4c0.7-0.7,2.2-2.2,2.2-2.3c0,0,0.1-0.1,0.2-0.3c0.3-0.2,1.1-1.2,1.1-1.3
				c0,0,0.1-0.2,0.2-0.3c0.4-0.4,0.6-0.7,1-1.3c0.2-0.3,0.4-0.6,0.5-0.7c0.1-0.1,0.3-0.4,0.5-0.8c0.2-0.4,0.5-0.7,0.6-0.9
				c0.2-0.2,0.3-0.3,0.6-1c0.1-0.2,0.3-0.6,0.5-0.7c0.1-0.2,0.3-0.4,0.3-0.4s0.1-0.2,0.2-0.4s0.2-0.4,0.3-0.5c0-0.1,0.1-0.2,0.1-0.2
				s0.1,0,0.1-0.1c0,0,0.2-0.3,0.4-0.6s0.4-0.6,0.4-0.6s0.1-0.1,0.1-0.2c0.1,0,0.2-0.2,0.3-0.5c0.1-0.2,0.2-0.4,0.3-0.4
				c0,0,0.1-0.2,0.2-0.3c0.1-0.2,0.3-0.5,0.5-0.8s0.4-0.7,0.5-0.8s0.3-0.6,0.6-0.9c0.2-0.4,0.4-0.7,0.4-0.7s0.1-0.2,0.3-0.4
				c0.3-0.5,0.5-0.9,0.8-1.3c0.1-0.2,0.4-0.7,0.7-1.2c1.3-2.4,1.6-3,1.8-3.4c0.1-0.2,0.2-0.4,0.2-0.4c0.1-0.1,0.2-0.3,0.3-0.4
				c0.5-1,1.2-2.5,1.3-2.6c0-0.1,0.2-0.5,0.4-0.9c0.2-0.4,0.4-0.9,0.5-0.9c0.1-0.1,0.2-0.3,0.3-0.6c0.1-0.2,0.3-0.7,0.5-1
				s0.3-0.6,0.4-0.7c0.1-0.1,0.3-0.5,0.5-0.8c0.2-0.4,0.4-0.7,0.4-0.7s0.4-0.7,1-1.6c0.1-0.2,0.4-0.5,0.5-0.8
				c0.4-0.6,1.2-1.8,1.6-2.4c0.3-0.4,0.6-0.8,0.8-1c0.1-0.1,0.3-0.4,0.6-0.8c0.2-0.3,0.5-0.6,0.5-0.6c0.1,0,0.2,0.2,0.3,0.5
				c0.1,0.3,0.2,0.6,0.3,0.6c0.1,0.1,0.3,0.4,0.5,0.8s0.5,0.8,0.7,1s0.5,0.5,0.6,0.8c0.1,0.2,0.3,0.4,0.3,0.4c0.1,0,0.1,0.3-0.1,1.2
				c-0.2,1.1-0.2,1.5,0.3,2c0.2,0.2,0.4,0.4,0.5,0.4s0.3,0.2,0.5,0.4s0.5,0.5,0.7,0.6s0.4,0.2,0.5,0.3c0.1,0,0.3,0.1,0.4,0.1
				s0.4,0.2,0.5,0.3s0.4,0.4,0.6,0.5s0.5,0.4,0.6,0.5c0.2,0.3,0.3,0.3,0.9,0.2c0.6,0,0.7-0.1,1-0.3c0.2-0.2,0.3-0.5,0.4-0.7
				c0.1-0.4,0.2-0.5,0.3-0.3c0.2,0.2,1,0.2,1.5-0.1s0.7-0.7,0.7-1.4c0-0.6,0-0.6,0.2-0.5c0.1,0,0.3,0.2,0.4,0.3
				c0.4,0.5,0.8,0.8,1.2,1c0.7,0.3,1,0.2,0.5-0.1c-0.1-0.1-0.2-0.2-0.2-0.3l-0.1-0.1c-0.3-0.1-0.5-0.7-0.5-1.6c0-0.6-0.1-0.9-0.1-1
				c-0.1-0.1-0.2-1.2-0.1-1.2c0,0,0.3,0,0.5,0c0.4,0,0.5,0.1,0.6,0.4c0.1,0.2,0.3,0.5,0.4,0.6c0.1,0.2,0.2,0.4,0.2,0.5
				c0.1,0.1,0.2,0.4,0.2,0.6c0.1,0.3,0.2,0.7,0.2,0.9c0.1,0.4,0,1-0.1,1c0,0-0.1-0.1-0.2-0.1c-0.1-0.1-0.2-0.1-0.2-0.1
				c-0.1,0-0.2-0.1-0.4-0.3c-0.3-0.3-0.4-0.3-0.3,0c0.3,0.7,0.6,1,1.4,1.5c1.1,0.6,1.6,0.6,2-0.2c0.1-0.2,0.2-0.4,0.3-0.4
				c0,0,0.1,0.1,0.2,0.2c0.1,0.2,0.2,0.2,0.6,0.1c1.4-0.2,1.7-0.7,1.5-2c-0.1-0.8-0.6-1.7-1.5-2.8c-1.3-1.8-1.8-2.1-2.6-2
				c-0.4,0-0.4,0-0.8-0.3c-0.3-0.3-0.4-0.4-0.8-0.3c-0.2,0-0.6,0.1-0.8,0.2c-0.6,0.2-0.6,0.2-0.5-1.2c0.1-0.6,0.2-1.4,0.3-1.8
				c0.1-0.4,0.2-0.8,0.3-1c0.2-0.7,0.8-2.6,0.9-2.7s0.2-0.3,0.2-0.4c0-0.2,0.1-0.3,0.2-0.4s0.2-0.4,0.3-0.6c0.1-0.3,0.2-0.5,0.2-0.6
				c0,0,0.4-0.7,0.8-1.5l0.7-1.4l1.4-1.5c0.8-0.8,1.5-1.7,1.7-1.9c0.2-0.2,0.4-0.5,0.5-0.7c0.4-0.5,1.1-1.5,1.1-1.6
				c0,0,0.2-0.3,0.4-0.5c0.2-0.3,0.4-0.5,0.4-0.6c0,0,0.2-0.4,0.4-0.7c0.2-0.4,0.4-0.7,0.4-0.7s0.1-0.3,0.3-0.5s0.3-0.5,0.3-0.7
				c0-0.1,0.2-0.3,0.3-0.5c0.2-0.1,0.5-0.4,0.8-0.6c0.6-0.5,2.7-2.6,3-3c0.1-0.2,0.3-0.3,0.3-0.3s0.1-0.1,0.2-0.3
				c0.1-0.2,0.3-0.4,0.8-0.7c0.4-0.2,0.8-0.4,0.9-0.5c0.1-0.1,0.2-0.1,0.4-0.2c0.3-0.1,1.2-0.7,1.6-1c0.2-0.2,0.5-0.3,0.5-0.4
				c0.1-0.1,0.4-0.3,0.6-0.6c0.5-0.5,0.5-0.5,1-0.5c0.9,0,1.6,0.2,1.8,0.4c0.2,0.2,0.4,0.3,1.2,0.6c0.9,0.4,3.3,0.5,4.8,0.3
				c0.5-0.1,0.9-0.1,0.9-0.1c0.1,0.1-0.7,1.9-0.9,2.1c-0.1,0.1-0.1,0.2-0.1,0.2L150,99c-0.2,0.2-0.2,0.4,0,0.4
				c0.1,0,0.3-0.1,0.4-0.1c0.1-0.1,0.5-0.2,0.8-0.3c1.2-0.4,2.3-1.2,3.2-2.2c0.6-0.7,0.9-1.1,1.2-1.8c0.1-0.2,0.2-0.3,0.3-0.4
				s0.1-0.2,0.1-0.2c0-0.1,0-0.2,0.1-0.3c0.2-0.5,0.5-1.5,0.5-2.5c0.1-1.3-0.1-3.2-0.3-3.7c-0.1-0.2-0.2-0.5-0.2-0.7
				s-0.1-0.4-0.2-0.5c-0.2-0.1-0.1-0.5,0.2-0.9c0.2-0.3,0.3-0.5,0.3-0.9c0-0.5-0.3-1.5-0.7-2c-0.1-0.2-0.2-0.4-0.2-0.4
				c0-0.1-0.4-0.9-0.7-1.3c-0.6-0.8-2.1-2-2.3-1.9c0,0-0.2,0-0.3-0.1s-0.3-0.2-0.3-0.2s-0.4-0.2-0.9-0.4c-0.4-0.2-0.8-0.4-0.9-0.4
				c-0.1,0-0.3-0.1-0.4-0.2c-0.3-0.1-0.5-0.2-1.3-0.2c-0.5,0-1,0-1-0.1c-0.1-0.1-2,0.1-2,0.2c0,0-0.2,0.1-0.6,0.1
				c-0.4,0-0.7,0-0.7,0.1c0,0.2-0.2,0.2-0.6,0.1c-0.2,0-0.7-0.1-1.1-0.1c-0.6,0-0.7,0-0.5,0.1s0.1,0.1-0.7,0.2
				c-0.9,0-1.3,0.2-0.6,0.2c0.2,0,0.2,0-0.2,0c-0.6,0-1.2,0.2-1.2,0.4c0,0.1-0.2,0.1-0.6,0.2c-0.7,0.1-1,0.2-0.9,0.4
				c0,0-0.2,0.1-0.5,0.1s-0.6,0.1-0.7,0.1c-0.1,0.1-0.1,0.1,0,0.1s0.1,0,0.1,0.1c0,0-0.2,0.1-0.6,0.1c-0.4,0-0.6,0.1-0.7,0.2
				c-0.1,0.1-0.2,0.2-0.5,0.2c-0.7,0-1.4,0.2-1.2,0.2c0.3,0.1,0.2,0.2-0.5,0.3c-0.4,0-0.7,0.1-0.7,0.2c-0.1,0.1-0.1,0.1,0,0.1
				s0.1,0,0.1,0.1c0,0-0.1,0.1-0.3,0.1c-0.7,0-1.2,0.1-1.2,0.3c0,0.1-0.1,0.2-0.8,0.2h-0.7l-0.1-0.4c-0.1-0.2-0.2-0.5-0.2-0.7
				c-0.1-0.2-0.2-0.7-0.2-1.1c-0.1-0.5-0.2-1.3-0.3-1.8c-0.3-1.9-0.4-3.4-0.4-6.7c0-2.3,0-3.3,0.1-3.5c0.1-0.4,0.3-1.2,0.3-1.4
				c0,0,0-0.1,0-0.2s0.1-0.4,0.1-0.8s0.1-0.7,0.1-0.8c0-0.1,0.1-0.4,0.1-0.6c0-0.2,0-0.5,0.1-0.5c0,0,0.1-0.2,0.1-0.4
				s0.1-0.4,0.1-0.5c0.1-0.2,0.3-1.1,0.3-2.2c0-0.5,0.1-1.3,0.1-1.8c0-0.4,0.1-0.8,0-0.9c0,0-0.1-1.1-0.2-2.4
				c-0.1-2.9-0.2-3.6-0.5-3.8c-0.1-0.1-0.1-0.2-0.1-0.2c0-0.2-0.4-0.8-0.7-1c-0.4-0.2-0.5-0.2-0.8,0.1l-0.2,0.2l-0.1-0.3
				c-0.2-0.8-0.9-1.9-1.6-2.4c-0.2-0.1-0.3-0.4-0.4-0.8c-0.1-0.3-0.2-0.6-0.3-0.7c-0.1-0.2-0.4-1.1-0.4-1.2v-0.1
				c0,0-0.2-0.4-0.4-0.8c-0.1-0.4-0.3-0.9-0.4-1s-0.2-0.3-0.2-0.6c0-0.2-0.1-0.4-0.1-0.5c-0.1-0.1-0.4-0.9-0.5-1.4
				c0-0.2-0.1-0.5-0.2-0.6s-0.2-0.6-0.3-1c-0.1-0.4-0.2-0.8-0.3-1c-0.1-0.2-0.2-0.8-0.3-1.2c-0.1-0.6-0.2-1-0.3-1.4
				c-0.1-0.3-0.2-0.7-0.2-0.9s-0.1-0.4-0.2-0.4s-0.8,1.5-0.9,2c-0.1,0.3-0.1,0.7-0.2,0.9s-0.1,0.8-0.1,1.1c0,0.7-0.1,0.9-0.2,0.6
				c-0.1-0.2-0.4-0.2-0.4,0c0,0-0.1,0.2-0.2,0.3s-0.3,0.4-0.3,0.6c-0.1,0.2-0.2,0.5-0.3,0.7c-0.2,0.5-0.2,2.9,0,4l0.2,0.8l-0.2,0.5
				c-0.1,0.3-0.3,0.7-0.4,0.9l-0.1,0.4l-0.1-0.5c-0.1-0.3-0.2-0.6-0.3-0.8c-0.1-0.2-0.2-0.6-0.2-0.9c0-0.3-0.1-0.6-0.1-0.6
				c-0.1-0.1-0.3,0.3-0.3,0.6c0,0.1,0,0.2-0.1,0.3c0,0.1-0.1,0.3-0.1,0.5s-0.1,0.7-0.1,1c-0.1,0.6-0.1,0.8,0.1,1.5
				c0.3,1.1,0.2,1.2-0.2,0.8c-0.4-0.4-0.5-0.4-0.9,0.3c-0.2,0.3-0.2,0.5-0.2,1.3c0,0.7,0.1,1.1,0.2,1.3c0.2,0.4,0.2,0.4,0,0.4
				s-0.2,0.1-0.4,0.3c-0.2,0.5-0.3,1.1-0.1,1.7c0.3,1,0.3,1,0.1,1c-0.5-0.2-0.4,1.7,0.2,2.5c1.2,1.7,1.3,1.8,0.5,1.9
				c-0.3,0-0.6,0.1-0.6,0.2c-0.2,0.2-0.5,1.1-0.6,1.6c0,0.4-0.1,0.4-0.3,0.4c-0.1,0-0.3,0.1-0.3,0.1c-0.1,0.1-0.3-0.1-0.3-0.4
				c0-0.1-0.1-0.4-0.2-0.6c-0.1-0.2-0.2-0.4-0.2-0.5s-0.1-0.2-0.1-0.3c-0.1-0.1-0.2-0.4-0.3-0.6c-0.3-0.8-0.9-1.7-1.8-3
				c-0.5-0.7-0.5-0.7-1.5-1.8c-0.9-1-3.2-3.2-3.4-3.2c0,0-0.4-0.3-0.8-0.7c-0.1-0.1-0.3-0.2-0.3-0.2c-0.1,0-0.2-0.1-0.2-0.1
				c-0.1-0.1-0.4-0.3-0.8-0.6c-0.5-0.3-0.8-0.6-1.1-1.1c-0.2-0.4-0.5-0.6-0.5-0.6s-0.1,0-0.1-0.1s-0.1-0.2-0.2-0.4s-0.2-0.3-0.2-0.4
				c0-0.1-2-2.4-2.1-2.4c0,0-0.1-0.1-0.2-0.2c-0.1-0.1-0.2-0.2-0.3-0.3c-0.1,0-0.2-0.1-0.2-0.2c0-0.1-0.1-0.2-0.2-0.3
				s-0.4-0.3-0.6-0.5c-0.8-0.7-1-0.9-1.2-1c-0.1-0.1-0.3-0.2-0.3-0.2s-0.2-0.2-0.4-0.3c-0.2-0.1-0.6-0.3-0.8-0.4
				c-0.7-0.4-1.8-1-2.3-1.1c-0.2-0.1-0.5-0.1-0.5-0.2c-0.1-0.1-0.6-0.2-1.5-0.3c-0.2,0-0.9-0.1-1.5-0.1h-1.1l-0.6-0.5
				c-0.3-0.3-0.6-0.5-0.6-0.5s-0.3-0.2-0.7-0.5c-0.3-0.3-0.6-0.5-0.7-0.5c0,0-0.3-0.2-0.6-0.5c-0.3-0.2-0.5-0.5-0.6-0.5
				c0,0-0.2-0.1-0.5-0.3c-0.2-0.2-0.5-0.3-0.5-0.3c-0.1,0-0.1-0.1-0.1-0.1c0-0.1,0-0.1-0.1-0.1s-0.3-0.2-0.6-0.3
				c-0.2-0.2-0.7-0.5-0.9-0.6c-0.2-0.2-0.5-0.4-0.6-0.4c-0.1-0.1-0.3-0.2-0.5-0.3s-0.4-0.2-0.4-0.2s-0.1-0.1-0.3-0.2
				c-0.2-0.1-0.3-0.2-0.3-0.2c0-0.1-0.2-0.1-1.5-1c-0.5-0.3-1-0.7-1.2-0.8c-0.6-0.4-1.8-1.1-1.9-1.3c-0.1-0.1-0.2-0.1-0.3-0.1
				c-0.1,0-0.3-0.1-0.4-0.2s-0.4-0.3-0.6-0.4c-0.8-0.4-1.9-1.1-1.9-1.1s-0.3-0.2-0.5-0.3c-0.5-0.2-0.8-0.4-1.6-0.9
				c-0.3-0.2-0.9-0.5-1.3-0.7c-0.5-0.2-0.9-0.5-1-0.5c-0.1-0.1-0.6-0.3-1-0.5c-0.5-0.2-1-0.5-1.2-0.6s-0.7-0.3-1.2-0.5
				c-0.4-0.2-0.8-0.4-0.8-0.4s-0.3-0.1-0.5-0.2c-0.3-0.1-0.5-0.2-0.6-0.3C62.7,24,62.6,24,62.6,24s-0.3-0.1-0.5-0.2
				c-1.3-0.6-1.7-0.8-2.2-0.9c-0.3-0.1-0.6-0.2-0.7-0.3c-0.1-0.1-0.2-0.1-0.2-0.1c-0.1,0-0.5-0.1-0.9-0.3c-0.8-0.3-1.9-0.7-2.1-0.7
				c-0.1,0-0.1,0-0.2-0.1c0,0-0.2-0.1-0.3-0.1s-0.3,0-0.3-0.1c-0.1-0.1-0.8-0.3-1.3-0.4c-0.2,0-0.5-0.1-0.7-0.2
				c-0.6-0.2-1.3-0.4-3.2-0.7c-0.4-0.1-0.9-0.2-1.3-0.3c-0.3-0.1-1.1-0.2-1.8-0.2s-1.3-0.1-1.3-0.1C45.6,19,42.4,19.1,41.6,19.2z
				 M116,118.5c0.1,0,0.2-0.1,0.2,0c0,0,0.1,0.4,0.1,0.9c0.1,0.5,0.2,1.1,0.3,1.4c0.1,0.3,0.2,0.7,0.3,0.9c0.1,0.6,0.8,2.3,1.1,2.7
				c0.1,0.1,0.1,0.2,0.1,0.3c0,0.1,0.1,0.2,0.1,0.2c0.1,0.1,0.1,0.1,0.2-0.2c0.1-0.7,0.3-0.2,0.6,1.1c0.1,0.3,0.2,0.8,0.3,0.9
				c0.2,0.4,0.3,0.7,0.1,0.8c-0.1,0-0.1,0.2-0.1,0.4c0,0.2,0,0.4-0.1,0.5c-0.1,0.2-0.1,0.1-0.4-0.3c-0.2-0.2-0.4-0.5-0.5-0.6
				s-0.4-0.5-0.6-0.8c-0.3-0.4-0.6-0.8-0.7-0.9c-0.3-0.3-0.9-0.4-1.3-0.4c-0.3,0.1-0.4,0-0.9-0.3s-0.6-0.4-0.9-0.3
				c-1.2,0.3-1.7,0.3-1.7,0.3c-0.1-0.1,0.3-2.3,0.5-2.8c0.1-0.2,0.2-0.4,0.2-0.4c0-0.1,0.1-0.3,0.2-0.4c0.1-0.2,0.2-0.4,0.3-0.5
				c0-0.1,0.1-0.3,0.2-0.5c0.1-0.1,0.2-0.3,0.2-0.3c0-0.2,0.5-0.8,0.7-0.9c0.1,0,0.4-0.1,0.6-0.2s0.5-0.2,0.6-0.3
				C115.7,118.6,115.9,118.5,116,118.5z M112.3,127.3h0.4c0.3,0,0.5,0,0.6,0.1c0.2,0.2,0.6,0.9,0.6,1c0,0,0.1,0.3,0.2,0.5
				s0.2,0.5,0.3,0.6c0.6,1.4,0.7,2.3,0.3,2.3c-0.4,0-1-0.3-1.3-0.7c-0.1-0.2-0.4-0.4-0.4-0.5c-0.2-0.1-0.2-0.1-0.1,0.2
				c0,0.2,0,0.3,0,0.3c-0.1,0-0.4-0.5-0.4-0.7c0-0.1,0.1-0.2,0.2-0.1c0,0,0,0,0-0.1s-0.1-0.3-0.1-0.6c0-0.2-0.1-0.7-0.2-0.9
				c-0.1-0.4-0.2-0.6-0.1-1V127.3z"/>
		</g>
	</g>
</g>
<path class="st1" d="M172.9,145.7c0.1,0,0.3,0.1,0.4,0.1c1,0,2.1,0.7,2.2,1.7c0.3-0.1,0.5-0.4,1-0.4c0.4,0,0.5,0.3,0.8,0.4
	c0.6,0.2,1-0.1,1.6,0c1.3,0.3,1.5,1.8,3,1.8c0.5,0,0.7,1,0.7,1.8c0,1.8-1.3,2.4-1.9,3.6v0.1c0,0.1-0.4,0.8-0.4,0.9
	c-0.3,0.1-0.5,0-0.6,0.2c-0.1,0.4,0.1,0.5,0.1,0.9c0,0.6,0.2,0.9,0.2,1.4c0,0.1-0.3,1.1-0.4,1.3c0.1,0,0.2,0.1,0.2,0.1
	c-0.5,0.4-0.2,0.9-0.4,1.6c-0.3,0.9-0.8,1.9-1.3,2.6c-0.3,0.4-1.4,0.2-1.9,0.4c-0.9,0.3-2.3,1.2-2.7,2v1.2c0.1,0.2,0.3,0.2,0.3,0.4
	c0,0.1-0.2,0.6-0.2,0.8c-0.1,0.2-0.3,0.2-0.4,0.4c-0.4,0.8-0.6,2.3-1.6,2.3c0,0.9-0.6,2.5-1.4,2.5c-1.1,0-1.8-0.4-2.6-0.8
	c0,0.2,1.2,1,1.2,1c-0.1,0.2,0,0.2,0,0.3c0,0.3,0.5,0.4,0.5,0.9s-0.6,1.5-1.1,1.7c-0.7,0.2-2.3,0.1-2.3,1.2c0,0.2,0.3,0.4,0.4,0.4
	c-0.1,0.2-0.3,0.3-0.6,0.3c-0.5,0-0.8-0.3-1.4-0.2c0.3,0.4,0.3,0.7,0.6,1.1c0.1,0,0.3-0.2,0.5-0.2c0.1,0,0.3,0.2,0.3,0.4
	c0,0.1-0.1,0.3-0.2,0.3c-0.2,0-0.4-0.2-0.5-0.3c0.1,0.2,0.2,0.3,0.3,0.5c-0.3,0.1-0.3,0.3-0.3,0.5c0,0.3,0.1,0.5,0.2,0.6
	c-0.3,0.3-1.2,0.8-1.2,1.3c0,0.4,1.1,0.8,1.5,0.9l0,0c0.1,0.1,0.2,0.2,0.2,0.4c0,0.7-0.8,0.7-0.8,1.3c0,0.1,0.1,0.2,0.2,0.3
	c-0.1,0.3-0.7,0.2-0.7,0.6c0,0.2,0.3,0.5,0.3,0.6c0.4,1,1,1.6,1.7,2.1c0.5,0.3,1.5,0.3,1.8,0.7c-0.7,0.2-1.1,0.6-1.8,0.6
	c-0.6,0-1.2-0.4-1.7-0.4c-0.3,0-0.3-0.3-0.5-0.4c-1-0.5-1.9-0.7-2.6-1.4l0.2-0.2c-0.4-0.2-0.2-0.5-0.2-0.9h-0.4
	c-0.2,0-1.1-1.2-1.1-1.4s0.1-0.2,0-0.4c-0.2-0.3-0.5-0.4-0.5-1h0.4c0-0.4-0.3-0.6-0.1-0.9c-0.3,0-0.8,0-0.8-0.3c0-0.6,0.5-0.6,0.5-1
	c0-0.3-0.3-0.4-0.3-0.7c0.2,0,0.4,0,0.6,0v-0.6c-0.2-0.3-0.1-0.7-0.2-1.1l-0.1-0.4c-0.2,0-0.3,0-0.4,0.1c0,0.2,0.2,0.7,0.2,1
	c0,0.2-0.1,0.2-0.2,0.2c-0.4,0-0.6-2.2-0.6-2.7v-0.7c0-0.4-0.7-1-0.7-1.6c0-0.2,0.4-0.5,0.4-0.6c0.1-0.3,0-0.7,0-0.9
	c0-0.6,0.2-0.9,0.2-1.4c0-1.2-0.5-1.9-0.5-3c0-0.3,0.2-0.2,0.2-0.4c0-0.3-0.3-0.4-0.3-0.7c0-0.1,0.2-1.2,0.2-1.4
	c0-0.6,0.2-1.9,0-2.5c-0.1-0.1-0.3-0.3-0.3-0.5c0-0.3,0.2-0.8,0.2-1.3c0-2.3-0.7-3-2-4c-0.9-0.6-2.6-0.9-2.9-2.1
	c-0.4-1.3-1.2-2.3-1.6-3.5c-0.3-1.1-0.9-1.5-1.2-2.5c-0.2-0.4-1.1-0.3-1.1-0.8c0-0.1,0-1.3,0-1.5c0-0.1,0.3-0.4,0.4-0.5
	c0.5-0.1,0.6-0.5,0.5-0.9c-0.1,0.1-0.2,0.2-0.4,0.2s-0.4-0.3-0.4-0.4c0-0.5,0.6-1.6,0.6-2.2c0-0.5,0.7-0.6,1-0.5
	c0-0.7,0.2-1.2,0.7-1.2c0-0.5,0.4-0.4,0.4-0.9s-0.2-0.9-0.2-1.4c0-0.1,0.2-0.4,0.2-0.5c0-0.5-0.4-0.6-0.4-0.9c0-0.2,0.4-0.3,0.5-0.4
	c-0.1-0.1-0.2-0.3-0.2-0.5c0-0.1,0.6,0.1,0.7,0.1l0.1-0.5c0.1-0.2,0.4-0.2,0.5-0.4c0.4-0.6,0-1.5,1.1-1.3c0-0.1,0.1-0.3,0.2-0.3
	c0.9-0.1,1.4-0.8,2-0.8c0,0.4-0.4,0.5-0.4,0.8c0,0.1,0.2,0.3,0.2,0.4c0,0.3-0.3,0.4-0.3,0.9c0,0.2,0.1,0.6,0.3,0.6s0.4-0.3,0.4-0.4
	c0-0.3-0.4-0.3-0.4-0.6c0-0.5,0.9-0.8,1.2-1c0.2,0.4,0.4,0.1,0.7,0.3c0.6,0.4,0.4,0.6,1.4,0.6c0.5,0,0.7,0.3,1.1,0.3
	c0.6,0,2.4-0.8,1.9-0.4c-0.4,0.2-0.1,0.5,0.1,0.7c0.1,0,0.2,0,0.4,0c0.1,0.1,0.6,0.2,0.6,0.5c0,0.2-0.1,0.4-0.2,0.5
	c0.4,0,0.3-0.2,0.6,0c0.6,0,1.3,0.6,1.2,1.4h0.2c0.5,0,0.9,0.9,1.7,0.9h0.5c1.3,0,2.1,0.7,2.8,1.4c0.4,0.4,0.1,0.8,0.2,1.3
	c0,0.3,0.5,0.7,0.8,0.9c-0.1,0.2-0.2,0.4-0.2,0.6c-0.4,0.2-0.7,0.6-0.8,0.9l-0.2,0.4h0.4l-0.1,0.3c-0.4,0.1-0.5,0.2-0.8,0.4
	c0.8,0,1.2,0.2,2,0.2c0,0.1,0.1,0.4,0.1,0.5C172.3,146.7,172.8,146.5,172.9,145.7L172.9,145.7z"/>
</svg>
